<?xml version="1.0" encoding="utf-8"?><svg xmlns="http://www.w3.org/2000/svg" xmlns:xlink="http://www.w3.org/1999/xlink" width="20" height="19" viewBox="-1 -1 20 19"><defs><path id="aca" d="M1.03.005A.535.535 0 00.496.54v6.43c0 .295.239.535.534.535h2.143c.297 0 .538-.24.538-.535V.54a.537.537 0 00-.538-.535H1.03z"/><path id="acc" d="M2.822 1.226v3.035L.928 7.52s-.183.273-.183.81v6.457c0 .396.331.718.735.718h7.322s1.005.075.901-1.913c0 0 1.314-.314.87-1.989 0 0-.099-.353.169-.494 0 0 .961-.333.659-1.686 0 0-.101-.39-.464-.517 0 0-.211-.023-.014-.265 0 0 .541-.626.337-1.525 0 0-.242-.998-1.174-1.047H5.754s-.293.027.054-.721c.31-.666.504-2.476-.195-3.463 0 0-.843-1.31-1.907-1.377 0 0-.028-.003-.075-.003-.214 0-.809.06-.809.721z"/><path id="ace" d="M2.822 1.226v3.035L.928 7.52s-.183.273-.183.81v6.457c0 .396.331.718.735.718h7.322s1.005.075.901-1.913c0 0 1.314-.314.87-1.989 0 0-.099-.353.169-.494 0 0 .961-.333.659-1.686 0 0-.101-.39-.464-.517 0 0-.211-.023-.014-.265 0 0 .541-.626.337-1.525 0 0-.242-.998-1.174-1.047H5.754s-.293.027.054-.721c.31-.666.504-2.476-.195-3.463 0 0-.843-1.31-1.907-1.377 0 0-.028-.003-.075-.003-.214 0-.809.06-.809.721z"/></defs><g fill="none" fill-rule="evenodd"><g transform="translate(1 8.66)"><mask id="acb" fill="#fff"><use xlink:href="#aca"/></mask><path fill="#FEFEFE" d="M-7.838 15.839h19.882V-8.328H-7.838z" mask="url(#acb)"/><path stroke="#9D9D9D" d="M-7.838 15.839h19.882V-8.328H-7.838z" mask="url(#acb)"/><path stroke="#9D9D9D" d="M-874.5 1032.5h3199.983V-819.158H-874.5z" mask="url(#acb)"/></g><path stroke="#8D95A0" stroke-linejoin="round" d="M4.174 8.665H2.03a.536.536 0 00-.535.535v6.43c0 .295.24.535.535.535h2.143c.297 0 .537-.24.537-.535V9.2a.536.536 0 00-.537-.535"/><g transform="translate(6 .66)"><mask id="acd" fill="#fff"><use xlink:href="#acc"/></mask><path fill="#FEFEFE" d="M-7.588 23.839h27.382V-7.828H-7.588z" mask="url(#acd)"/><path stroke="#9D9D9D" d="M-7.588 23.839h27.382V-7.828H-7.588z" mask="url(#acd)"/></g><g transform="translate(6 .66)"><mask id="acf" fill="#fff"><use xlink:href="#ace"/></mask><path stroke="#9D9D9D" d="M-878.535 1040.5h3199.984V-811.157H-878.535z" mask="url(#acf)"/></g><path stroke="#8D95A0" stroke-linejoin="round" d="M17.402 10.083s-.102-.39-.465-.517c0 0-.21-.023-.013-.265 0 0 .54-.626.336-1.525 0 0-.241-.998-1.174-1.047h-4.332s-.293.027.055-.721c.31-.667.503-2.477-.195-3.463 0 0-.843-1.31-1.907-1.377 0 0-.885-.088-.885.718v3.035L6.929 8.18s-.183.273-.183.81v6.456c0 .397.33.719.735.719h7.32s1.006.075.903-1.914c0 0 1.313-.313.87-1.988 0 0-.1-.353.168-.493 0 0 .962-.333.66-1.687"/></g></svg>