<?xml version="1.0" encoding="utf-8"?><svg xmlns="http://www.w3.org/2000/svg" xmlns:xlink="http://www.w3.org/1999/xlink" width="34" height="34" viewBox="-1 -1 34 34"><defs><path id="aea" d="M0 0h16v16H0z"/></defs><g fill="none" fill-rule="evenodd"><circle cx="16" cy="16" r="16" fill="#C9CDD3"/><g transform="translate(8 8)"><mask id="aeb" fill="#fff"><use xlink:href="#aea"/></mask><path fill="#FFF" d="M15.707 7.293l-7-7a.997.997 0 00-.711-.292L7.992 0c-.075 0-.14.027-.211.043-.053.012-.108.011-.16.032a.971.971 0 00-.352.243L.293 7.293a.999.999 0 101.414 1.414l5.285-5.285V15a1 1 0 102 0V3.406l5.301 5.301a.997.997 0 001.414 0 .999.999 0 000-1.414" mask="url(#aeb)"/></g></g></svg>