<?xml version="1.0" encoding="utf-8"?><svg xmlns="http://www.w3.org/2000/svg" width="15" height="14" viewBox="-1 -1 15 14"><path fill="#FFF" fill-rule="evenodd" d="M11.608.579c-1.259-.942-3.02-.715-4.187.544l-.793.855a.172.172 0 01-.256 0l-.793-.855C4.413-.136 2.65-.364 1.392.579.6 1.172.097 2.104.012 3.139c-.083 1.03.254 2.038.902 2.738.061.078 1.545 1.96 5.244 5.679a.476.476 0 00.686-.005c3.538-3.643 5.216-5.644 5.219-5.648.67-.726 1.008-1.734.924-2.764-.084-1.035-.586-1.967-1.38-2.56"/></svg>