<?xml version="1.0" encoding="utf-8"?><svg xmlns="http://www.w3.org/2000/svg" width="20" height="17" viewBox="-1 -1 20 17"><path fill="none" stroke="#8D95A0" d="M15.788 1.153c-1.538-1.067-3.71-.805-5.16.64L9.532 2.888a.747.747 0 01-1.06.002l-1.1-1.097C5.923.347 3.75.085 2.213 1.153A3.965 3.965 0 00.515 4.067 3.956 3.956 0 001.65 7.212c.253.3.84.95 1.72 1.865 1.436 1.494 3.258 3.285 5.525 5.398l-.024-.025c.034.032.08.05.13.05a.188.188 0 00.132-.054c3.632-3.462 7.027-6.947 7.145-7.14l.072-.091a3.951 3.951 0 001.135-3.148 3.964 3.964 0 00-1.696-2.914zm0 0zM8.825 2.18l-.002.002.002-.002z"/></svg>