<?xml version="1.0" encoding="utf-8"?><svg xmlns="http://www.w3.org/2000/svg" width="21" height="21" viewBox="-1 -1 21 21"><g fill="none" fill-rule="evenodd"><path fill="#88A6FF" d="M19 9.5c0 .811-.986 1.48-1.186 2.229-.207.773.306 1.845-.085 2.522-.398.687-1.587.776-2.145 1.334-.557.558-.646 1.746-1.333 2.144-.677.391-1.75-.122-2.523.084C10.98 18.014 10.311 19 9.5 19c-.811 0-1.48-.986-2.228-1.187-.773-.206-1.846.307-2.523-.084-.687-.398-.776-1.587-1.334-2.144-.557-.558-1.746-.648-2.144-1.334-.391-.677.122-1.749-.085-2.522C.986 10.98 0 10.311 0 9.5c0-.811.986-1.48 1.186-2.229.207-.773-.306-1.845.085-2.522.398-.687 1.587-.776 2.145-1.334.557-.558.646-1.746 1.333-2.144.677-.391 1.75.122 2.523-.084C8.02.986 8.689 0 9.5 0c.811 0 1.48.986 2.228 1.187.773.206 1.846-.307 2.523.084.687.398.776 1.587 1.334 2.144.557.558 1.746.648 2.144 1.334.391.677-.122 1.749.085 2.522C18.014 8.02 19 8.689 19 9.5"/><path fill="#FFF" d="M6.607 8.5H5.32a.321.321 0 00-.32.321v3.858c0 .177.144.321.32.321h1.287a.322.322 0 00.322-.321V8.821a.322.322 0 00-.322-.321m7.358.85s-.061-.233-.28-.31c0 0-.125-.013-.007-.158 0 0 .324-.376.202-.915 0 0-.145-.6-.705-.628h-2.6s-.175.016.034-.433c.186-.4.302-1.486-.117-2.078 0 0-.506-.786-1.144-.826 0 0-.531-.053-.531.43v1.822L7.68 8.209s-.11.164-.11.486v3.874c0 .238.198.43.44.43h4.394s.603.046.54-1.147c0 0 .789-.188.523-1.193 0 0-.06-.212.1-.296 0 0 .578-.2.397-1.012"/></g></svg>