<?xml version="1.0" encoding="utf-8"?><svg xmlns="http://www.w3.org/2000/svg" width="72" height="20" viewBox="-1 -1 72 20"><path d="M41.408 9.576c-.539 1.19-1.506 2.022-2.352 2.022a1.18 1.18 0 01-.479-.1c-.542-.247-.72-.847-.778-1.183-.115-.667.012-1.453.357-2.215.54-1.19 1.508-2.02 2.352-2.02.17 0 .332.032.48.1.896.406 1.086 1.93.42 3.396m12.819 0c-.54 1.19-1.507 2.022-2.353 2.022a1.18 1.18 0 01-.479-.1c-.543-.247-.72-.847-.778-1.183-.116-.667.01-1.453.356-2.215.542-1.19 1.508-2.02 2.353-2.02.17 0 .332.032.479.1.897.406 1.086 1.93.422 3.396m-.983-6.128c-1.53 0-3.068.66-4.22 1.813-1.295 1.294-1.96 3.078-1.78 4.773l-1.732 1.731a.569.569 0 01-.682.11.556.556 0 01-.259-.647l.502-1.585c.006-.018.01-.037.015-.055L47.892.801a.614.614 0 00-.584-.8L44.985 0a.613.613 0 00-.584.427L43.172 4.28c-.789-.542-1.741-.828-2.753-.828-1.528 0-3.063.66-4.214 1.809-.965.966-1.591 2.211-1.761 3.508l-3.521 2.962-.047.044a.57.57 0 01-.672.1.557.557 0 01-.257-.652l.49-1.55a.404.404 0 00.016-.062l1.41-4.415h2.174a.613.613 0 00.585-.427l.166-.521a.613.613 0 00-.585-.8h-1.781L33.266.8a.613.613 0 00-.584-.8h-2.324a.613.613 0 00-.584.427l-.963 3.02h-2.575a.614.614 0 00-.586.427l-.165.523a.613.613 0 00.584.799h2.185l-1.764 5.53a2.765 2.765 0 00-.125.816 2.718 2.718 0 002.602 2.723l.084.003a2.555 2.555 0 00.168.004h.001l.227-.002c.759 0 1.497-.218 2.14-.633l.114-.075c.538-.372.822-.591 1.904-1.468l1.08-.907c.232.643.591 1.21 1.065 1.683.873.874 2.074 1.355 3.38 1.355.927 0 1.868-.241 2.725-.698.478.449 1.1.71 1.739.738l.082.003.048.001a2.5 2.5 0 00.121.003h.002l.226-.002c.758 0 1.497-.218 2.144-.635l.109-.073c.533-.368 1.075-.865 1.612-1.482.182.288.393.554.63.79.875.875 2.078 1.359 3.388 1.359 1.53 0 3.068-.662 4.222-1.814 1.077-1.077 1.717-2.462 1.803-3.9.086-1.436-.394-2.753-1.348-3.71-.877-.875-2.08-1.357-3.39-1.357M6.221 9.54c-.114-.666.013-1.452.358-2.214.54-1.191 1.506-2.023 2.352-2.023.17 0 .332.034.479.102.897.407 1.086 1.93.42 3.396-.538 1.19-1.505 2.021-2.35 2.021-.172 0-.332-.033-.48-.101-.543-.245-.721-.846-.779-1.181m2.635-6.865c-.937 0-1.888.247-2.753.714a2.73 2.73 0 00-1.713-.71l-.077-.003c-.005 0-.044 0-.049-.002-.04 0-.086-.005-.12 0h-.23c-.757 0-1.496.218-2.136.631l-.065.042-.045.03a8.75 8.75 0 00-1.51 1.365.613.613 0 00.043.864l.597.541a.61.61 0 00.873-.05l.798-.91a.567.567 0 01.689-.117.557.557 0 01.257.65l-.448 1.417a.38.38 0 00-.015.055L.048 16.327a.614.614 0 00.584.8h2.325a.615.615 0 00.585-.428l1.291-4.066c.785.534 1.73.816 2.735.816 1.529 0 3.064-.659 4.214-1.81 1.077-1.075 1.718-2.46 1.804-3.898.086-1.437-.392-2.755-1.348-3.71-.874-.874-2.075-1.356-3.382-1.356m60.808 4.274a4.602 4.602 0 00-1.201-2.144c-.875-.875-2.078-1.357-3.388-1.357-1.53 0-3.07.66-4.221 1.813-1.078 1.077-1.718 2.462-1.804 3.9-.086 1.435.392 2.754 1.349 3.71.874.874 2.077 1.357 3.387 1.357 1.485 0 2.99-.628 4.13-1.724a.612.612 0 00-.21-1.017l-1.925-.72a.616.616 0 00-.641.133c-.64.615-1.367.844-1.915.596-.897-.406-1.085-1.93-.421-3.396.54-1.19 1.507-2.021 2.353-2.021.17 0 .331.033.479.1.476.216.673.692.755 1.053.063.28.31.479.598.479h2.08a.612.612 0 00.595-.762m-49.109-.87c.17 0 .331.034.478.1.541.246.847.912.818 1.784h-3.582c.556-1.127 1.474-1.884 2.286-1.884m-.083-2.631c-1.53 0-3.068.66-4.22 1.813-1.078 1.076-1.718 2.461-1.804 3.9-.086 1.435.392 2.754 1.348 3.709.875.876 2.078 1.358 3.388 1.358 1.485 0 2.99-.628 4.13-1.724a.612.612 0 00-.21-1.017l-1.925-.72a.614.614 0 00-.641.133c-.64.615-1.367.845-1.915.596-.541-.244-.847-.912-.817-1.785h4.335l.038.002h2.336c.295 0 .548-.21.603-.5.319-1.683-.139-3.29-1.258-4.408-.875-.876-2.078-1.357-3.388-1.357" fill="#8D95A0" fill-rule="evenodd"/></svg>