<?xml version="1.0" encoding="utf-8"?><svg xmlns="http://www.w3.org/2000/svg" xmlns:xlink="http://www.w3.org/1999/xlink" width="289" height="132" viewBox="-1 -1 289 132"><defs><path id="bkA" d="M1.797.177C.73.24.595.948.595.948.416 1.397.234 3.041.451 3.541c.185.425.626.803 1.509.803.787 0 1.244-.346 1.374-.904.066-.284.051-.593.038-.882a14.102 14.102 0 00-.075-.917c-.031-.289-.038-.601-.19-.856C2.854.357 2.388.173 1.909.173c-.037 0-.074.002-.112.004z"/><path id="bka" d="M0 0h287v130H0z"/><path id="bke" d="M1.836 4.083a3.05 3.05 0 000 4.299 3.05 3.05 0 004.299 0L9.896 4.62 5.597.321 1.836 4.083z"/><path id="bkg" d="M4.359 1.56L.597 5.321 4.896 9.62l3.761-3.761a3.05 3.05 0 000-4.299A3.035 3.035 0 006.508.674c-.78 0-1.558.296-2.149.886z"/><path id="bki" d="M4.809.794L3.781 3.549c-.468.109-1.712.269-2.284-.947a.415.415 0 00-.749.353c.335.712.845 1.113 1.388 1.316.63.235 1.296.201 1.792.087.335.44.852.931 1.49 1.171.555.207 1.193.219 1.86-.172a.414.414 0 00-.419-.714c-1.058.622-1.982-.397-2.3-.814l1.026-2.746a.412.412 0 00-.243-.531.414.414 0 00-.533.242z"/><path id="bkk" d="M.368 1.598c-.35.936.729 2.073 1.107 2.215.552.207 1.936-.01 2.287-.947.351-.937-.248-1.655-1.185-2.005a2.55 2.55 0 00-.88-.173c-.59 0-1.092.273-1.329.91z"/><path id="bkm" d="M.581 1.015a1.241 1.241 0 102.327.868A1.24 1.24 0 002.18.286a1.244 1.244 0 00-1.599.729z"/><path id="bko" d="M.783.825a1.242 1.242 0 002.326.869A1.241 1.241 0 002.38.096 1.242 1.242 0 00.783.825z"/><path id="bkq" d="M6.163 16.63c-.097-.006-.191-.014-.289-.014a4.94 4.94 0 00-4.94 4.938 4.941 4.941 0 004.94 4.94c.389 0 .765-.05 1.128-.135 2.639 7.281 9.614 12.483 17.805 12.483 8.191 0 15.167-5.202 17.805-12.483.364.085.739.135 1.129.135a4.938 4.938 0 100-9.878c-.097 0-.192.008-.289.014C41.899 7.736 34.145.974 24.807.974S7.716 7.736 6.163 16.63z"/><path id="bks" d="M.813 19.705c.962.15.944.228 1.947.228 9.161 0 16.586-4.737 18.408-13.356 1.821 8.619 10.435 13.249 19.596 13.249.115 0 .227-.007.341-.009 0-9.509-6.893-19.698-19.779-19.698-.199 0-.295-.022-.641-.022C7.282.097.813 10.139.813 19.705z"/><path id="bku" d="M.027 5.653l3.416 5.797 9.264-9.207L8.982.706S3.229 4.736.027 5.653z"/><path id="bkw" d="M.348 2.243l8.8 9.207 3.879-5.797C9.825 4.736 4.072.706 4.072.706L.348 2.243z"/><path id="bky" d="M7.461 2.133C6.671 1.206 5.462.156 4.201.156A3.946 3.946 0 00.217 4.14c0 2.739 2.463 4.507 6.193 7.89l1.051.957 1.05-.949c3.731-3.391 6.195-5.159 6.195-7.898A3.947 3.947 0 0010.721.156c-1.261 0-2.47 1.05-3.26 1.977z"/><path id="bkc" d="M.555 37.751h36.17s8.225-26.847 4.639-28.534c0 0-1.686-1.055-4.112 2.002 0 0-7.171-4.112-12.338-5.483 0 0 1.055-3.817-.843-4.651a1.082 1.082 0 00-.439-.089C21.399.995 15.784 6.968.555 37.751z"/><path id="bkC" d="M1.891.177C.824.24.689.948.689.948.51 1.397.328 3.041.544 3.541c.185.425.627.803 1.51.803.787 0 1.243-.346 1.373-.904.067-.284.052-.593.038-.882a13.433 13.433 0 00-.075-.917c-.031-.289-.037-.601-.189-.856-.254-.428-.72-.612-1.198-.612-.037 0-.074.002-.112.004z"/><path id="bkE" d="M.879.599A.864.864 0 00.45 1.741c.055.12 1.375 2.931 5.293 2.931 4.101 0 4.947-2.936 4.981-3.061a.856.856 0 00-.595-1.048.868.868 0 00-1.065.584c-.022.074-.58 1.801-3.321 1.801-2.761 0-3.681-1.834-3.726-1.927a.862.862 0 00-.782-.499.869.869 0 00-.356.077z"/><path id="bkG" d="M35.807 26.959L27.449.262 9.212 5.794s-1.758.38-2.743 3.038C5.38 11.771.504 40.924.816 55.751h71.967s-.572-34.046-7.411-47.724c0 0-.522-1.687-1.283-2.446-.759-.76-13.084-4.56-19.923-5.319l-8.359 26.697z"/><path id="bkI" d="M17.659.178c-.543 0-1.029.28-1.3.751l-2.125 3.68-3.678-2.123a1.48 1.48 0 00-1.502-.001 1.486 1.486 0 00-.752 1.302v4.247H4.054a1.49 1.49 0 00-1.302.75 1.49 1.49 0 000 1.505l2.123 3.678-3.678 2.124a1.488 1.488 0 00-.751 1.302c0 .544.281 1.03.751 1.3l3.678 2.125-2.123 3.679a1.488 1.488 0 000 1.504c.272.469.759.75 1.302.75h27.212a1.49 1.49 0 001.302-.75 1.493 1.493 0 000-1.504l-2.124-3.679 3.679-2.125c.469-.27.75-.756.751-1.3a1.49 1.49 0 00-.751-1.302l-3.679-2.124 2.124-3.678a1.495 1.495 0 000-1.505 1.49 1.49 0 00-1.302-.75h-4.247V3.787c0-.544-.282-1.031-.752-1.302a1.482 1.482 0 00-1.503.001l-3.679 2.123-2.124-3.68a1.485 1.485 0 00-1.3-.751h-.002z"/><path id="bkK" d="M4.44 1.428v3.196c-.434.289-1.639.926-2.683-.095a.45.45 0 10-.631.644c.613.597 1.285.811 1.914.811.733 0 1.396-.287 1.858-.592.509.32 1.222.626 1.962.626.644 0 1.299-.232 1.828-.883a.452.452 0 00-.064-.634.453.453 0 00-.634.066c-.84 1.036-2.168.351-2.65.046V1.428a.449.449 0 00-.451-.449c-.248 0-.449.2-.449.449z"/><path id="bkM" d="M.118 1.79c0 .959 1.349 1.617 1.735 1.617.566 0 1.736-.658 1.736-1.617 0-.957-.777-1.4-1.736-1.4C.896.39.118.833.118 1.79z"/><path id="bkO" d="M.924 1.87a1.35 1.35 0 002.699 0 1.349 1.349 0 10-2.699 0z"/><path id="bkQ" d="M.559 1.87a1.35 1.35 0 002.699 0 1.35 1.35 0 10-2.699 0z"/><path id="bkS" d="M.803.201v9.551s0 2.939 5.878 2.939c5.877 0 5.877-3.674 5.877-3.674V.201H.803z"/><path id="bkU" d="M.54.262a.195.195 0 00-.195.194v6.959c0 .107.087.194.195.194h1.816a.194.194 0 00.194-.194V.456a.195.195 0 00-.194-.194H.54z"/><path id="bkW" d="M2.546 1.295L.369 9.38l4.465-.118-1.425 4.677L14.743 27.41 6.641.02z"/><path id="bkY" d="M.743 27.41l11.462-13.471-1.429-5.198 4.47.639L12.903.792 8.846.012z"/></defs><g fill="none" fill-rule="evenodd"><mask id="bkb" fill="#fff"><use xlink:href="#bka"/></mask><path fill="#FFF2EE" d="M37.368 188.68C21.69 187.63 8.522 174.783 3.51 159.891c-5.01-14.893-4.378-30.423.124-45.476 2.03-6.795 5.683-14.652 10.358-19.983 7.266-8.283 18.763-13.856 30.196-13.593 11.432.263 22.52 5.48 30.622 13.55 5.203-17.837 19.935-32.144 37.312-38.72 17.378-6.577 37.032-5.865 54.662-.002 6.729 2.24 13.31 5.26 18.683 9.887 7.31 6.297 11.897 15.104 16.309 23.686a100.444 100.444 0 0135.187-5.772c8.162.133 16.462 1.316 23.782 4.93 12.959 6.397 21.383 19.871 24.633 33.953 3.25 14.082 1.939 28.812-.4 43.075L37.368 188.68z" mask="url(#bkb)"/><path fill="#FFF" d="M127 0h130v130H127z"/><path fill="#FF5A5C" d="M127 130h129.941V0H127v130zm3.761-3.765H253.18V3.705H130.76v122.53z"/><path fill="#000" d="M141.869 33.412h18.571V14.824h-18.57v18.588zm-3.703 3.706h25.977v-26h-25.977v26zm33.382-22.294h11.166v-3.706h-11.166zm22.274 3.706v-3.706h-3.703v-3.706h-3.702v7.411h3.702v3.706h3.703V26h3.702v-7.47zm0-3.706h3.702v-3.706h-3.702zm22.274 3.706h-3.703v-7.412h-7.464v7.411h3.762v3.706h3.702V26h3.703zm7.404 14.882h18.572V14.824h-18.571v18.588zm-3.702 3.706h25.977v-26h-25.977v26zM167.845 18.53h3.703v-3.706h-3.703z"/><path fill="#000" d="M145.571 29.706h11.167V18.529H145.57zM175.25 18.53h-3.702v3.705h-3.703v7.47h7.405v7.413h3.703V22.235h-3.703zm3.703 3.705h3.761V18.53h-3.761zm48.25 7.471h11.167V18.529h-11.167zM182.714 26h7.405v-3.765h-7.405zm18.513-3.765V26h-3.703v3.706h3.703v3.706h3.702V22.235zm7.463 7.471h3.703V26h-3.702zm-18.57 3.706v7.412h3.702V29.706h-11.108v11.118h3.703v-7.412zm25.976 7.412V29.706h-3.703v11.118h-3.702v7.411h7.405V44.53h7.405v-3.705z"/><path fill="#000" d="M190.12 52h3.702v-3.765h-3.703V52zm-29.68-3.765V52h11.108v7.412h11.166v7.412h3.703v3.705h7.405v-3.705h-3.703v-7.412h-3.702v-3.706h3.702v3.706h3.703v-3.706h3.702V52h3.703v3.706h7.464V52h-3.762v-3.765h-7.405V44.53h-7.405v-3.705h-3.702v7.411h-7.464V52h3.761v3.706h-3.761V52h-3.703v-3.765h3.703v-7.411h-3.703v3.705h-3.702V33.412h-3.703v11.117h-3.702v3.706h-3.703zm37.084-11.117h3.703v-3.706h-3.703zm7.406 3.706h3.76v-7.412h-3.76zm-63.061 3.706h3.702v-3.706h-3.702z"/><path fill="#000" d="M149.274 44.53h14.869v-3.706h-14.869zm48.25 0h3.703v-3.706h-3.703zm33.441 11.176h3.702V52h3.703v-3.765h3.702v-7.411h-3.702v3.705h-3.703v-3.705h-7.464v3.705h-3.702v3.706h7.464zm-92.799 0h3.703V44.529h-3.703zm7.405-7.471h3.703V44.53h-3.703zM149.274 52h3.702v-3.765h-3.702zm70.524 0h3.703v-3.765h-3.703zm-74.227 3.706h3.703V52h-3.703zm70.525 3.706h3.702v3.706h3.703v-3.706h3.702v-3.706h-7.405V52h-7.405v3.706h3.703zm25.976-3.706h3.703V52h-3.703z"/><path fill="#000" d="M152.976 59.412h-7.405v-3.706h-3.702v3.706h-3.703v7.412h3.703v-3.706h7.405v3.706h3.702zm0 0h3.762v-3.706h-3.762zm7.464 7.412h3.703v3.705h3.702v-3.705h11.108v-3.706h-11.108v-7.412h-7.405v3.706h3.703v3.706h-3.703v-3.706h-3.702v7.412h-3.762v3.705h7.464zm48.25-7.412h3.703v-3.706h-3.702zm29.68 0h3.702v-3.706h-3.702z"/><path fill="#000" d="M216.096 100.235h11.107V89.118h-11.107v11.117zm-7.405-14.823h-7.464v-3.706h3.702V78h3.762v7.412zm18.512-3.706v3.706h-3.702v-3.706h-7.405v-7.47h-3.703V63.117h-3.702v-3.706h-7.464v3.706h3.702v3.706h3.762v3.705h-7.464V78h-3.703v3.706h-3.702v3.706h3.702v3.706h3.703v3.706h7.464v-3.706h3.702v3.706h-3.702v3.705h3.702v3.706h-3.702V104h3.702v7.412h3.703v3.706h3.702V104h3.703v3.706h3.702V104h3.762v-3.765h3.702V96.53h-3.702v-3.705h3.702v3.705h3.703v-3.705h3.702v-3.706h-3.702v-3.706h3.702v-3.706h-7.405V78h-3.702v3.706h-3.762zm0-18.588h3.762v-3.706h-3.762zm7.464 0h3.703v-3.706h-3.703zm7.405 3.706h3.703v-7.412h-3.703z"/><path fill="#000" d="M197.524 66.824h3.703v-3.706h-3.703zm37.143 7.411V70.53h3.703v-3.705h-3.703v-3.706h-3.702v11.117zm-66.822 7.471h-3.702v3.706h-7.405v-3.706h-7.464v3.706h-3.703v-3.706h3.703V78h3.702v-7.47h-3.702v-3.707h-3.703v3.706h-3.702v3.706h-3.703v14.883h29.68zm11.108-11.176h3.761v-3.706h-3.761zm40.845 0h3.703v-3.706h-7.405v7.411h3.702zm-59.358 3.705h3.703V70.53h-3.703zm11.108 0h3.702v7.47h3.703V70.53h-7.405zm22.274 0h3.702V70.53h-3.702zm29.678 0h3.703V70.53h-3.702z"/><path fill="#000" d="M160.44 78v-3.765h-3.702v7.47h7.405V78zm11.108-3.765h-7.405V78h3.702v3.706h3.703zM186.417 78h3.702v-3.765h-3.702zm40.786 0h3.762v-3.765h-3.762zm-44.489 3.706h3.703V78h-3.703zm7.406 0h3.702V78h-3.703zm51.952 0h3.703V78h-3.703z"/><path fill="#000" d="M186.417 89.118v-3.706h-3.703v-3.706h-3.761v7.412h3.761v3.705h-3.761v7.412h-3.703v7.47h3.703V104h3.761v14.823h3.703v-26h3.702v-3.705zm3.703 0h3.702v-3.706h-3.703zm-22.275 3.706h3.703v-3.706h-3.703z"/><path fill="#000" d="M175.25 92.824h3.703v-3.706h-3.703zm18.572-.001h-3.703v3.706h3.703v3.706h3.702V89.118h-3.702zm-51.953 22.295h18.571V96.529h-18.57v18.589zm-3.703 3.706h25.977v-26h-25.977v26zm37.084-18.589v-7.412h-3.702v3.706h-3.703v11.177h3.703v-7.47zm44.548-3.705h3.703v-3.706h-3.703zm-14.868 3.705h3.76V96.53h-3.76zm22.273 7.471v7.412h-7.405v3.705h11.167v-3.705h7.405v-3.706h3.702v3.706h3.703v-7.412h-3.703V104h3.703v-7.47h-7.405v11.176z"/><path fill="#000" d="M145.571 111.412h11.167v-11.177H145.57zM190.12 104h3.702v-3.765h-3.703zm18.57 3.706V104h-3.76v-3.765h-3.703v11.177h3.702v-3.706zm-37.142 3.706h3.702v-3.706h-3.702zm22.274 0h3.702v-3.706h-3.702zm-25.977 3.706h3.703v-3.706h-3.703zm29.679 0h3.703v-3.706h-3.703z"/><path fill="#000" d="M204.93 115.118h7.463v-3.706h-7.464zm-33.382 3.706h7.405v-3.706h-7.405zm22.274 0h3.702v-3.706h-3.702zm18.571 0h3.703v-3.706h-3.703z"/><g transform="translate(93 92.293)"><mask id="bkd" fill="#fff"><use xlink:href="#bkc"/></mask><path fill="#FCE599" d="M-1.761 40.068h46.347V-1.321H-1.761z" mask="url(#bkd)"/></g><path fill="#FDE0CE" d="M64.641 81.393h16.204V63.156H64.641z"/><path fill="#485070" d="M63.352 101.703h18.954V79.955H63.352z"/><path fill="#EDEFF7" d="M118.746 40.326c-7.974 0-14.438 6.464-14.438 14.438 0 .99.101 1.958.292 2.894l-3.557 4.472 5.857.875c2.61 3.742 6.938 6.197 11.846 6.197 7.974 0 14.438-6.464 14.438-14.438s-6.464-14.438-14.438-14.438M36.99 9.027c7.765 1.811 12.591 9.575 10.781 17.34a14.442 14.442 0 01-.94 2.751l2.447 5.164-5.902-.479c-3.39 3.053-8.164 4.46-12.945 3.345-7.765-1.81-12.592-9.575-10.78-17.339 1.81-7.766 9.574-12.593 17.338-10.782"/><path fill="#FEFEFE" d="M116.597 52.615l-3.76 3.76a3.05 3.05 0 000 4.3 3.051 3.051 0 004.298 0l3.76-3.762-4.298-4.298z"/><g transform="translate(111 52.293)"><mask id="bkf" fill="#fff"><use xlink:href="#bke"/></mask><path fill="#FEFEFE" d="M-124 280H49.753V-96.233H-124z" mask="url(#bkf)"/><path fill="#FEFEFE" d="M-1.367 11.585h13.58V-1.994h-13.58z" mask="url(#bkf)"/></g><path fill="#EF4E52" d="M124.657 53.152a3.05 3.05 0 000-4.3 3.05 3.05 0 00-4.298 0l-3.762 3.763 4.299 4.298 3.76-3.761z"/><g transform="translate(116 47.293)"><mask id="bkh" fill="#fff"><use xlink:href="#bkg"/></mask><path fill="#EF4E52" d="M-1.72 11.937h13.58v-13.58H-1.72z" mask="url(#bkh)"/></g><g transform="translate(114 108.293)"><mask id="bkj" fill="#fff"><use xlink:href="#bki"/></mask><path fill="#3E3F44" d="M-1.608 7.988H9.799v-9.78H-1.608z" mask="url(#bkj)"/></g><g transform="translate(117 107.293)"><mask id="bkl" fill="#fff"><use xlink:href="#bkk"/></mask><path fill="#3E3F44" d="M-2.018 6.202h8.199v-7.831h-8.199z" mask="url(#bkl)"/></g><g transform="translate(113 104.293)"><mask id="bkn" fill="#fff"><use xlink:href="#bkm"/></mask><path fill="#3E3F44" d="M-1.814 5.007h7.118v-7.118h-7.118z" mask="url(#bkn)"/></g><g transform="translate(123 108.293)"><mask id="bkp" fill="#fff"><use xlink:href="#bko"/></mask><path fill="#3E3F44" d="M-1.613 4.818h7.118v-7.117h-7.118z" mask="url(#bkp)"/></g><g transform="translate(48 32.293)"><mask id="bkr" fill="#fff"><use xlink:href="#bkq"/></mask><path fill="#FDE0CE" d="M-1.383 41.159h52.379V-1.342H-1.383z" mask="url(#bkr)"/></g><g transform="translate(52 29.293)"><mask id="bkt" fill="#fff"><use xlink:href="#bks"/></mask><path fill="#4E5263" d="M-1.503 22.251h44.925V-2.22H-1.503z" mask="url(#bkt)"/></g><g transform="translate(73 74.293)"><mask id="bkv" fill="#fff"><use xlink:href="#bku"/></mask><path fill="#6C728D" d="M-2.29 13.766h17.313V-1.61H-2.29z" mask="url(#bkv)"/></g><g transform="translate(60 74.293)"><mask id="bkx" fill="#fff"><use xlink:href="#bkw"/></mask><path fill="#6C728D" d="M-1.969 13.766h17.313V-1.61H-1.969z" mask="url(#bkx)"/></g><g transform="translate(26 17.293)"><mask id="bkz" fill="#fff"><use xlink:href="#bky"/></mask><path fill="#EF4E52" d="M-2.1 15.303h19.122V-2.161H-2.1z" mask="url(#bkz)"/></g><g transform="translate(63 52.293)"><mask id="bkB" fill="#fff"><use xlink:href="#bkA"/></mask><path fill="#4E5263" d="M-1.964 6.66H5.7v-8.804h-7.664z" mask="url(#bkB)"/></g><g transform="translate(77 52.293)"><mask id="bkD" fill="#fff"><use xlink:href="#bkC"/></mask><path fill="#4E5263" d="M-1.871 6.66h7.665v-8.804h-7.665z" mask="url(#bkD)"/></g><g transform="translate(67 59.293)"><mask id="bkF" fill="#fff"><use xlink:href="#bkE"/></mask><path fill="#F4969A" d="M-1.944 6.989h15.015v-8.783H-1.944z" mask="url(#bkF)"/></g><g transform="translate(37 74.293)"><mask id="bkH" fill="#fff"><use xlink:href="#bkG"/></mask><path fill="#FEFEFE" d="M-1.515 58.068H75.1V-2.055H-1.515z" mask="url(#bkH)"/></g><g transform="translate(22 103.293)"><mask id="bkJ" fill="#fff"><use xlink:href="#bkI"/></mask><path fill="#D7CCC8" d="M-1.871 29.068h39.062V-2.139H-1.871z" mask="url(#bkJ)"/></g><g transform="translate(35 114.293)"><mask id="bkL" fill="#fff"><use xlink:href="#bkK"/></mask><path fill="#3E3F44" d="M-1.325 8.334h12.431v-9.673H-1.325z" mask="url(#bkL)"/></g><g transform="translate(38 114.293)"><mask id="bkN" fill="#fff"><use xlink:href="#bkM"/></mask><path fill="#3E3F44" d="M-2.198 5.724h8.104v-7.65h-8.104z" mask="url(#bkN)"/></g><g transform="translate(32 113.293)"><mask id="bkP" fill="#fff"><use xlink:href="#bkO"/></mask><path fill="#3E3F44" d="M-1.393 5.538H5.94v-7.333h-7.333z" mask="url(#bkP)"/></g><g transform="translate(43 113.293)"><mask id="bkR" fill="#fff"><use xlink:href="#bkQ"/></mask><path fill="#3E3F44" d="M-1.758 5.538h7.333v-7.333h-7.333z" mask="url(#bkR)"/></g><g transform="translate(83 98.293)"><mask id="bkT" fill="#fff"><use xlink:href="#bkS"/></mask><path fill="#ECEEF0" d="M-1.514 15.008h16.389V-2.116H-1.514z" mask="url(#bkT)"/></g><g transform="translate(90 95.293)"><mask id="bkV" fill="#fff"><use xlink:href="#bkU"/></mask><path fill="#4E5263" d="M-1.971 9.926h6.838v-11.98h-6.838z" mask="url(#bkV)"/></g><g transform="translate(58 74.293)"><mask id="bkX" fill="#fff"><use xlink:href="#bkW"/></mask><path fill="#ECEEF0" d="M-1.947 29.726H17.06V-2.296H-1.947z" mask="url(#bkX)"/></g><g transform="translate(72 74.293)"><mask id="bkZ" fill="#fff"><use xlink:href="#bkY"/></mask><path fill="#ECEEF0" d="M-1.574 29.726h19.136v-32.03H-1.574z" mask="url(#bkZ)"/></g></g></svg>