<?xml version="1.0" encoding="utf-8"?><svg xmlns="http://www.w3.org/2000/svg" width="22" height="22" viewBox="-1 -1 22 22"><g fill="none" fill-rule="evenodd"><circle cx="10" cy="10" r="10" fill="#FF5A5C"/><path fill="#FFF" d="M13.93 6.683c-.969-.705-2.324-.534-3.221.407l-.61.64a.135.135 0 01-.197 0l-.61-.64c-.898-.941-2.253-1.112-3.221-.407A2.628 2.628 0 005.01 8.597c-.065.77.195 1.525.693 2.048.047.059 1.188 1.466 4.034 4.247v.001a.372.372 0 00.528-.005c2.721-2.724 4.012-4.22 4.014-4.223a2.675 2.675 0 00.711-2.068 2.628 2.628 0 00-1.06-1.914"/></g></svg>