<?xml version="1.0" encoding="utf-8"?><svg xmlns="http://www.w3.org/2000/svg" xmlns:xlink="http://www.w3.org/1999/xlink" width="54" height="54" viewBox="-1 -1 54 54"><defs><path id="bqa" d="M0 14.167c0 7.856 6.31 14.166 14.167 14.166 7.083 0 13.522-5.151 13.522-14.166 0-.837-.128-1.74-.322-2.576h-13.2v5.473h7.598c-.708 3.478-3.67 5.474-7.598 5.474a8.355 8.355 0 01-8.371-8.371 8.355 8.355 0 018.37-8.372c1.997 0 3.8.71 5.216 1.867l4.122-4.12C20.992 1.352 17.772 0 14.167 0A14.126 14.126 0 000 14.167z"/><path id="bqc" d="M0 14.167c0 7.856 6.31 14.166 14.167 14.166 7.083 0 13.522-5.151 13.522-14.166 0-.837-.128-1.74-.322-2.576h-13.2v5.473h7.598c-.708 3.478-3.67 5.474-7.598 5.474a8.355 8.355 0 01-8.371-8.371 8.355 8.355 0 018.37-8.372c1.997 0 3.8.71 5.216 1.867l4.122-4.12C20.992 1.352 17.772 0 14.167 0A14.126 14.126 0 000 14.167z"/><path id="bqe" d="M0 14.167c0 7.856 6.31 14.166 14.167 14.166 7.083 0 13.522-5.151 13.522-14.166 0-.837-.128-1.74-.322-2.576h-13.2v5.473h7.598c-.708 3.478-3.67 5.474-7.598 5.474a8.355 8.355 0 01-8.371-8.371 8.355 8.355 0 018.37-8.372c1.997 0 3.8.71 5.216 1.867l4.122-4.12C20.992 1.352 17.772 0 14.167 0A14.126 14.126 0 000 14.167z"/><path id="bqg" d="M0 14.167c0 7.856 6.31 14.166 14.167 14.166 7.083 0 13.522-5.151 13.522-14.166 0-.837-.128-1.74-.322-2.576h-13.2v5.473h7.598c-.708 3.478-3.67 5.474-7.598 5.474a8.355 8.355 0 01-8.371-8.371 8.355 8.355 0 018.37-8.372c1.997 0 3.8.71 5.216 1.867l4.122-4.12C20.992 1.352 17.772 0 14.167 0A14.126 14.126 0 000 14.167z"/></defs><g fill="none" fill-rule="evenodd"><path fill="#FFF" stroke="#E1E4E6" stroke-width=".5" d="M26 1c13.807 0 25 11.193 25 25S39.807 51 26 51 1 39.807 1 26 12.193 1 26 1"/><g transform="translate(11.833 11.833)"><mask id="bqb" fill="#fff"><use xlink:href="#bqa"/></mask><path fill="#FBBC05" d="M-1.288 22.538V5.795L9.66 14.167z" mask="url(#bqb)"/></g><g transform="translate(11.833 11.833)"><mask id="bqd" fill="#fff"><use xlink:href="#bqc"/></mask><path fill="#EA4335" d="M-1.288 5.795L9.66 14.166l4.507-3.927 15.455-2.512v-9.015h-30.91z" mask="url(#bqd)"/></g><g transform="translate(11.833 11.833)"><mask id="bqf" fill="#fff"><use xlink:href="#bqe"/></mask><path fill="#34A853" d="M-1.288 22.538l19.319-14.81 5.086.643 6.504-9.659v30.91H-1.288z" mask="url(#bqf)"/></g><g transform="translate(11.833 11.833)"><mask id="bqh" fill="#fff"><use xlink:href="#bqg"/></mask><path fill="#4285F4" d="M29.621 29.621L9.66 14.167l-2.575-1.932 22.537-6.44z" mask="url(#bqh)"/></g></g></svg>