<?xml version="1.0" encoding="utf-8"?><svg xmlns="http://www.w3.org/2000/svg" xmlns:xlink="http://www.w3.org/1999/xlink" width="24" height="17" viewBox="-1 -1 24 17"><defs><path id="bya" d="M0 0h21.429v15H0z"/></defs><g fill="none" fill-rule="evenodd"><mask id="byb" fill="#fff"><use xlink:href="#bya"/></mask><path fill="red" d="M20.98 2.342A2.687 2.687 0 0019.087.447C17.416 0 10.714 0 10.714 0s-6.7 0-8.372.447A2.684 2.684 0 00.448 2.342C0 4.013 0 7.5 0 7.5s0 3.487.448 5.157a2.684 2.684 0 001.894 1.895C4.014 15 10.714 15 10.714 15s6.702 0 8.372-.448a2.687 2.687 0 001.895-1.895c.448-1.67.448-5.157.448-5.157s0-3.487-.448-5.158" mask="url(#byb)"/><path fill="#FFF" d="M8.572 10.714L14.139 7.5 8.572 4.285z"/></g></svg>