<svg xmlns="http://www.w3.org/2000/svg" width="20" height="24" viewBox="0 0 20 24">
    <g fill="#8D95A0" fill-rule="evenodd">
        <path d="M16.309 12.763c-.028-3.032 2.482-4.507 2.597-4.576-1.421-2.073-3.625-2.356-4.4-2.378-1.85-.194-3.644 1.107-4.587 1.107-.962 0-2.414-1.088-3.977-1.056-2.013.031-3.897 1.197-4.93 3.007-2.131 3.69-.541 9.114 1.5 12.097 1.022 1.461 2.216 3.092 3.778 3.034 1.529-.063 2.1-.974 3.945-.974 1.828 0 2.364.974 3.958.938 1.64-.027 2.674-1.468 3.66-2.942 1.18-1.675 1.654-3.324 1.673-3.408-.038-.014-3.186-1.214-3.217-4.849M13.298 3.847C14.12 2.818 14.683 1.42 14.528 0c-1.192.053-2.68.823-3.537 1.83-.758.885-1.435 2.338-1.26 3.704 1.337.1 2.71-.675 3.567-1.687"/>
    </g>
</svg>
