<svg xmlns="http://www.w3.org/2000/svg" xmlns:xlink="http://www.w3.org/1999/xlink" width="325" height="325" viewBox="0 0 325 325">
    <defs>
        <path id="a" d="M0 0h305v303H0z"/>
        <path id="c" d="M.602.358h109.022v87.52H.602z"/>
    </defs>
    <g fill="none" fill-rule="evenodd">
        <g transform="translate(10 21)">
            <mask id="b" fill="#fff">
                <use xlink:href="#a"/>
            </mask>
            <path fill="#EDEFF7" d="M146.926.42S86.325-7.22 43.249 42.63C.17 92.478-15.527 187.083 18.424 234.385c33.95 47.303 91.995 78.96 170.849 65.496 78.852-13.462 115.36-95.332 115.724-143.726.365-48.394-31.76-92.786-67.902-115.345-7.156-4.467-14.482-8.677-22.05-12.414-5.262-2.596-10.821-5.419-16.437-7.131-8.504-2.595-16.699-6.227-24.244-10.928-3.444-2.144-6.646-4.257-10.452-5.746-3.499-1.368-7.147-2.282-10.824-3.027a249.644 249.644 0 0 0-6.162-1.143" mask="url(#b)"/>
        </g>
        <path fill="#DADFEF" d="M198.101 141.48c-6.737 1.404-12.184 6.677-15.443 13.371-1.19 2.44-3.824 11.26-2.076 14.692.865.004 1.787.197 2.665.457.343-.747-.262-1.583-1.008-1.283.872-.35.348-.916.235-2.305-.128-1.595.062-3.214.287-4.808.456-3.223 1.821-6.295 3.445-9.022 3.57-5.989 9.557-9.002 15.629-9.587 13.083-1.26 21.83 11.337 22.965 24.748.073.871 1.213.69 1.2-.174-.228-16.696-12.93-29.21-27.899-26.09"/>
        <path fill="#DADFEF" d="M234.512 162.662c-.642-.655-1.88-.88-2.654-1.046-2.183-.475-4.87-.833-7.1-.463-.503.084-.583 1.047-.048 1.048 2.106.009 4.254.077 6.309.597.697.176 2.051.858 1.408 1.742-.462.636-2.822.53-3.534.65-1.53.263-3.064.493-4.596.721-5.622.84-11.262 1.387-16.898 1.766-6.08.407-12.158.475-18.219.34-2.982-.069-5.959-.22-8.927-.449-.82-.061-5.284-.082-5.363-1.134-.143-1.934 4.197-2.075 5.264-2.076 1.234 0 1.323-1.961.09-1.945-.841.009-10.997 2.223-7.522 5.31 1.916 1.702 4.856 1.608 7.219 1.831 4.477.426 9.027.436 13.536.446 8.26.017 16.538-.541 24.797-1.512 4.608-.541 9.206-1.286 13.79-2.138 1.372-.256 3.682-1.527 2.7-3.348a1.535 1.535 0 0 0-.252-.34M222.767 171.559c-3.436 10.563-10.814 14.358-18.258 15.359-7.444 1-18.782-1.32-21.701-13.063-.374-1.504-2.137-1.181-1.754.328 3.012 11.831 13.353 15.126 21.13 14.795 8.095-.345 18.847-4.283 21.786-16.991.227-.98-.882-1.417-1.203-.428M170.61 163.604c.192-.158.207-.575-.122-.598-1.017-.071-1.737.501-2.484 1.135-.713.605-1.81 1.496-1.97 2.479-.402 2.468 2.808 3.1 4.667 3.376.33.05.42-.412.1-.495-1.443-.37-4.91-1.383-3.272-3.444.847-1.066 2.059-1.618 3.082-2.453M237.81 164.086c-.105.055-.131.207-.103.312.1.359.408.582.363.99-.05.46-.511.943-.908 1.107-.298.123-.15.596.16.49.776-.269 1.546-.574 1.669-1.53.082-.653-.39-1.775-1.18-1.369"/>
        <path fill="#DADFEF" d="M212.739 160.245c-10.663 1.405-21.513 1.217-32.157-.24-.632-.088-.827.945-.192 1.029 10.8 1.416 21.6 1.227 32.38-.25.325-.045.297-.583-.031-.54M215.75 157.002c-5.461.585-10.952.897-16.441 1.038-5.64.147-11.387.373-16.891-.947-.428-.103-.567.49-.23.694 1.815 1.11 4.123 1.1 6.188 1.156 3.137.087 6.278.069 9.414-.015 6.022-.16 12.013-.698 17.99-1.435.311-.04.284-.524-.03-.491M219.383 152.016a71.874 71.874 0 0 1-19.138 2.286c-.354-.005-.308.579.033.597 6.524.37 13.033-.28 19.4-1.894.593-.15.29-1.14-.295-.99M216.3 147.125c-1.14 1.128-3.135 1.479-4.624 1.876-1.877.499-3.807.762-5.733.97-3.21.345-6.478.456-9.704.476-.342.001-.305.53.032.532 4.005.02 7.954.117 11.942-.384 1.755-.22 3.487-.598 5.19-1.072 1.274-.352 2.958-.647 3.555-1.96.197-.43-.343-.75-.658-.438M206.953 143.511c-.258-.057-.397.344-.147.453-.142.392-.282.785-.422 1.18-.47.118-.939.231-1.408.34-1.148.273-2.303.438-3.473.555-1.257.125-7.456.368-6.333-2.528.12-.312-.203-.656-.5-.447-1.105.778-.697 2.034.17 2.86 1.362 1.297 4.305 1.091 5.996 1.02 2.074-.091 4.946-.433 6.728-1.582.97-.626.12-1.688-.611-1.85M196.777 178.466c-2.483.065-4.935-.087-7.403-.377-2.312-.27-5.123-.376-6.966-2.033-.17-.154-.491.034-.388.279.787 1.879 3.357 1.903 4.992 2.168 3.238.521 6.524.572 9.792.426.279-.012.251-.47-.027-.463M208.744 179.93a136.88 136.88 0 0 1-12.287.485c-2.05-.01-4.102-.079-6.152-.177-1.899-.09-5.31.176-6.718-1.16-.232-.217-.7.059-.562.325.489.944 1.489 1.127 2.62 1.235 2.322.222 4.678.268 7.01.326 5.376.134 10.772-.117 16.118-.601.321-.03.292-.46-.03-.433M223.53 158.028c-1.058.472-1.967 1.144-3.047 1.596-1.063.447-2.212.702-3.337.984-.241.06-.163.409.084.391 2.194-.155 5.097-.989 6.684-2.446.24-.22-.063-.669-.384-.525"/>
        <path fill="#DADFEF" d="M242.419 161.725c-5.17-2.935-12.815-2.968-18.66-2.507-.542.043-.588 1.008-.05 1.05 4.454.347 8.874.62 13.266 1.407 1.521.269 4.642.325 4.988 2.25.299 1.659-1.165 2.36-2.355 2.883-2.805 1.236-5.752 1.989-8.674 2.681-9.395 2.224-19.058 3.173-28.557 3.614-9.468.44-18.912-.039-28.251-1.177a92.519 92.519 0 0 1-5.265-.784 18.27 18.27 0 0 1-3.148-.89c-.665-.234-6.758-3.814-1.664-5.242 5.136-1.44 10.45-2.278 15.635-3.437.99-.221.884-1.922-.119-1.715-3.651.752-7.303 1.511-10.951 2.287-2.11.447-4.987.48-6.9 1.817-3.213 2.249-1.394 5.468 1.246 6.987 4.977 2.865 11.25 2.916 16.823 3.424 7.03.64 14.118.747 21.208.514 7.023-.23 14.051-.985 21.048-2.078 6.746-1.052 13.942-2.265 20.246-5.566 2.31-1.21 2.218-4.335.134-5.518"/>
        <path fill="#B7C5E2" d="M208.15 293.304c-.805.9-2.057 1.64-3.118 2.324a.792.792 0 0 0-.273.301c-.621-.08-1.293.289-1.21.974.291 2.397 1.617 5.302.279 7.65-1.446-.47-2.722-1.169-3.884-2.19-.465-.409-1-.454-1.458-.29-.314-.243-.753-.33-1.1-.09-1.93 1.32-3.563 2.744-6.053 2.929-1.523.114-.705-2.466-.618-3.417.14-1.516.513-3.101.127-4.5-.003-.01-.01-.018-.013-.029.17-.66-.109-1.48-.84-1.758-1.062-.402-2.155-.593-3.13-1.14-.808-.454-1.604-1.887-.5-2.572.733-.453 1.876-.385 2.695-.488a6.587 6.587 0 0 0 2.511-.825c.004-.002.005-.005.009-.008.65.606 1.996.581 2.245-.472.299-1.258.452-2.498.797-3.7.136-.477 1.426-4.347 2.346-3.615 2.13 1.689 3.057 4.762 3.804 7.263.238.8 1.327.946 1.936.571.8.153 1.595.15 2.417.074 1.02-.095 2.508-.537 3.444.134 1.064.763.148 2.248-.413 2.874m3.637-2.94c-.398-1.467-1.967-2.466-3.485-2.772-1.87-.374-3.662.527-5.511.092-.028-.007-.047 0-.074-.006-.4-1.368-.99-2.649-1.711-3.884-.856-1.47-2.107-3.406-4.1-3.753-2.011-.349-3.122 1.603-3.783 2.854-.876 1.651-1.642 3.597-1.844 5.545a1.136 1.136 0 0 0-.404.055c-2.672.848-6.836-.313-7.744 3.333-.797 3.198 2.167 5.196 5.227 5.85-.707 2.01-.611 4.623-.864 6.77-.204 1.732.56 3.037 2.277 3.412 2.844.621 6.484-.888 8.261-3.294 1.77 1.565 3.798 2.664 6.146 3.236.52.127 1.114.004 1.457-.412 2.385-2.902 1.986-7.197.307-10.312 3.82-.74 6.912-2.783 5.845-6.714"/>
        <path fill="#96AAD6" d="M177.814 292.108c-.638-.71-1.447-1.246-2.19-1.838-.586-.469-1.137-.987-1.697-1.496 1.254-1.066 2.263-2.38 3.274-3.704.43-.563-.359-1.165-.88-.91-1.526.746-3.161 1.212-4.723 1.863-.795-1.863-1.655-3.749-2.276-5.672a.474.474 0 0 0-.932.105c-.183 2.14-.221 4.163.073 6.263-1.748.308-3.63.619-5.112 1.416-.455.246-.476.966-.014 1.218 1.397.76 3.212.999 4.933 1.1-.67 1.852-1.03 3.857-.853 5.788.069.742.953 1.062 1.39.396 1.036-1.575 1.97-3.25 2.893-4.913 1.687.943 3.822 1.655 5.632 1.52.574-.043.893-.68.482-1.136"/>
        <g transform="translate(167)">
            <mask id="d" fill="#fff">
                <use xlink:href="#c"/>
            </mask>
            <path fill="#FFF" d="M97.199 86.892c.493.48-.195 1.24-.75.9-13.402-8.204-26.132-16.746-41.046-22.082-13.931-4.986-28.254-7.779-43-8.685-1.696-.105-1.877-2.178-.635-3.012 5.247-3.531 11.957-5.818 18.217-4.463-4.84-2.495-9.161-6.926-13.24-10.39-2.882-2.45-6.56-5.848-6.478-10.038.085-4.248 3.214-3.534 6.806-2.942 3.361.553 6.901 1.382 10.08 2.857-2.096-2.128-4.157-4.302-6.405-6.262-5.113-4.46-10.414-8.69-15.606-13.054C2.978 7.903-2.971.905 3.61.361 4.3.305 4.84.883 4.856 1.453 25.4 8.253 43.942 20.5 60.789 33.95c8.428 6.73 16.625 13.745 24.745 20.846 8.198 7.168 17.428 14.275 23.767 23.239 1.066 1.504-.74 3.266-2.119 1.964L97.2 86.892z" mask="url(#d)"/>
        </g>
        <path fill="#B7C5E2" d="M275.678 77.215c-6.34-8.91-15.566-15.976-23.763-23.1-8.12-7.06-16.313-14.033-24.74-20.722-16.843-13.372-35.381-25.546-55.922-32.304-.015-.568-.555-1.142-1.245-1.085-6.58.539-.632 7.496 1.531 9.303 5.192 4.339 10.491 8.543 15.603 12.976 2.248 1.949 4.308 4.112 6.403 6.225-3.177-1.466-6.716-2.29-10.076-2.84-3.592-.588-6.722-1.298-6.805 2.925-.084 4.165 3.595 7.543 6.477 9.979 4.076 3.443 8.396 7.848 13.237 10.329-6.26-1.348-12.968.925-18.215 4.437-1.24.828-1.06 2.888.635 2.992 14.743.903 29.064 3.678 42.992 8.634 14.912 5.304 27.637 13.797 41.038 21.952.554.337 1.242-.417.75-.895-20.225-19.585-51.098-29.768-79.03-32.423 4.469-1.672 8.926-1.701 14.25-1.596 1.337.026 1.592-1.74.411-2.228-.287-.118-.575-.213-.864-.314.335-.269.43-.876.158-1.263-4.01-5.703-11.094-9.448-16.225-14.084-1.191-1.076-2.084-2.304-2.903-3.687-2.838-4.793 6.035-2.404 6.717-2.267 4.016.807 7.534 2.713 11.349 4.075.48.422.967.836 1.466 1.236.712.572 1.74-.43 1.3-1.188-3.081-5.28-8.269-9.338-12.841-13.298-2.398-2.076-4.866-4.073-7.322-6.079-1.254-1.024-11.063-8.423-9.78-10.599 19.444 7.954 36.818 18.81 53.415 31.664 17.932 13.889 33.423 29.755 49.879 45.198 1.38 1.295 3.186-.457 2.12-1.953"/>
        <path fill="#B7C5E2" d="M163.417 41.843c1.103-.932 2.94-1.163 3.937-2.358 2.647.52 5.179 1.735 7.292 3.499-3.81.3-7.645.306-11.229-1.14m15.253 1.316c-3.413-3.859-7.575-5.572-12.292-5.076-2.518-.434-5.499 1.42-6.314 3.954-.181.564.028 1.385.564 1.664 5.518 2.872 11.394 2.522 17.343 1.765 1.011-.129 1.342-1.581.7-2.307"/>
        <path fill="#DADFEF" d="M233.738 50.974c-7.816-5.12-16.199-9.847-23.597-15.557-2.285-1.764-4.745 2.556-1.77 3.808 8.468 3.563 16.593 8.488 24.766 12.704.63.326 1.22-.55.601-.955"/>
        <path fill="#96AAD6" d="M303.362 72.226c.286-.627-.054-1.489-.768-1.604-3.521-.57-7.119.218-10.564.821-2.489.437-5.641.475-8.183 1.422-2.954-5.895-6.724-11.948-10.96-16.453-.224-.238-.504-.287-.776-.231-.41-.357-1.15-.19-1.37.53-1.228 3.96-1.911 7.901-2.563 11.964-.492 3.068-1.195 6.166-1.186 9.238a1.7 1.7 0 0 0-.848.235c-7.514 1.681-15.266 3.082-22.08 6.015a1.073 1.073 0 0 0-.61.713c-.464-.124-.94-.257-1.391-.37-1.029-.259-1.428 1.27-.669 1.863 5.607 4.378 12.993 9.201 20.265 11.606-.451 3.134.824 6.85 1.395 9.796.67 3.462 1.26 7.693 3.308 10.687.141 1.934 2.398 3.563 3.965 1.764 3.918-4.495 8.6-10.312 10.725-16.438 6.316 3.618 13.022 8.308 20.266 10.793 1.332.457 2.268-1.33 1.391-2.327 0-.03.024-.046.022-.076-.527-8.029-5.102-16.169-9.359-22.544 4.168-4.726 8.608-10.376 10.57-16.259.196-.59-.128-.993-.58-1.145"/>
        <path fill="#B7C5E2" d="M293.108 54.027c-1.745 3.287-2.943 6.861-5.007 10-.413.63.54 1.314 1.059.783 2.675-2.736 5.674-5.412 7.567-8.77 1.296-2.295-2.381-4.341-3.619-2.013M257.587 70.496c-3.329-1.888-6.304-4.314-9.61-6.232-.763-.442-1.82-.33-2.43.342-.254.282-.447.521-.509.907-.136.839.07 1.926.946 2.308 3.54 1.547 7.274 2.518 10.804 4.099.93.416 1.727-.898.8-1.424M313.398 90.71c-3.134-.489-6.295-.515-9.456-.708-1.18-.071-1.234 1.536-.257 1.892 2.844 1.035 5.633 2.255 8.57 3.025 2.802.735 3.915-3.778 1.143-4.21M288.215 122.017c-1.751-2.632-2.273-6.788-2.506-9.834-.123-1.595-2.268-1.555-2.46-.013a32.095 32.095 0 0 0-.066 7.408c.115 1.11.289 2.18.533 3.27.03.128.188.865.322 1.342-.048.29-.052.59.006.89l.034.175c.275 1.424 2.219 2.233 3.436 1.423 1.834-1.22 1.851-2.932.7-4.661M251.549 105.149c-2.017 1.339-4.312 2.11-6.471 3.167-1.87.913-4.457 1.887-5.016 4.135-.266 1.071.35 2.05 1.317 2.385 2.157.746 4.268-1.22 5.911-2.512 2.051-1.613 3.566-3.78 5.428-5.594.795-.775-.25-2.192-1.17-1.581"/>
        <path fill="#FFF" d="M113.871 125.574c-.19-2.728.103-5.368-.982-7.869-.54-1.242-2.01-.66-2.384.34-.934 2.505-.354 5.355.003 7.984.514 3.786 1.452 7.451 2.4 11.132.373 1.451 2.318.866 2.07-.582-.625-3.65-.85-7.31-1.107-11.005M118.11 159.552c-.456-1.019-2.155-.504-2.11.546.254 5.76 1.238 12.768 3.669 18.032.74 1.605 3.384.797 3.33-.861-.188-5.75-2.535-12.47-4.889-17.717M150.472 138c-3.05.006-6.127 1.115-9.12 1.664-3.461.635-6.728 1.34-9.916 2.788-.896.407-.277 1.773.654 1.516 6.119-1.687 13.484.128 19.158-3.19 1.307-.764.823-2.78-.776-2.778M99.019 150.005c-3.194.29-6.341.744-9.476 1.382-3.017.613-7.206 1.272-9.211 3.605-.7.812-.241 1.875.882 1.98 2.753.257 5.356-1.304 7.91-2.176a107.284 107.284 0 0 1 10.146-2.928c1.094-.257.916-1.97-.251-1.863M135.947 118.132c-2.64 1.125-4.336 4.287-6.014 6.524-2.33 3.108-4.02 6.488-5.8 9.909-.601 1.152.994 1.998 1.737.978 2.179-2.998 4.646-5.817 6.934-8.738 1.747-2.231 4.411-4.387 5.144-7.157.327-1.237-.957-1.96-2-1.516M104.524 139.023c-2.943-1.887-5.93-3.697-8.835-5.65-2.364-1.587-4.649-4.114-7.515-4.37-.676-.06-1.387.809-1.114 1.502 1.157 2.954 4.401 4.431 6.947 5.957 3.094 1.852 6.36 3.382 9.762 4.487 1.117.363 1.706-1.317.755-1.926M144.75 163.742c-1.676-2.529-4.796-3.848-7.294-5.413-2.989-1.872-5.969-3.825-9.19-5.245-.863-.381-1.698.617-1.014 1.387 2.197 2.474 4.81 4.492 7.434 6.451 2.425 1.811 5.391 4.642 8.403 5.064 1.126.158 2.478-1.008 1.66-2.244M107.354 158.326c-1.793 2.25-3.47 4.454-4.968 6.917-1.418 2.329-3.629 5.508-3.364 8.323.121 1.285 1.473 1.901 2.473 1.023 1.843-1.62 2.457-4.5 3.411-6.723 1.214-2.824 2.53-5.667 3.984-8.375.5-.936-.827-2.057-1.536-1.165M152.142 152.935c-1.663-.809-3.52-1.06-5.337-1.425-2.216-.444-4.387-1.06-6.607-1.489-1.057-.204-1.682 1.122-.725 1.669 1.936 1.105 4.003 1.883 6.067 2.737 1.823.755 3.73 1.516 5.736 1.572 1.707.048 2.417-2.31.866-3.064M145.054 125.128c-1.838-.607-3.837 1.075-5.189 2.267-1.553 1.369-2.722 3.103-3.732 4.955-.572 1.047.844 2.258 1.598 1.303 1.16-1.463 2.536-2.578 4.029-3.62 1.34-.935 3.218-1.374 4.07-2.904.433-.78-.01-1.749-.776-2M123.584 113.611c-.336-.73-1.334-.797-1.836-.25-1.241 1.353-1.191 3.204-1.401 5.003-.258 2.206-.305 4.409-.347 6.63-.02 1.198 1.584 1.373 1.9.271.613-2.137 1.193-4.257 1.612-6.449.349-1.807.86-3.492.072-5.205M103.866 128.404c-1.135-2.044-2.255-4.094-3.394-6.134-.983-1.758-1.776-4.052-3.489-5.096-.83-.505-2.03.144-1.982 1.225.097 2.15 1.623 3.86 2.789 5.529a68.433 68.433 0 0 0 4.527 5.758c.767.88 2.113-.264 1.549-1.282M90.925 142.003c-3.832.293-8.062.006-11.72 1.477-1.694.68-1.644 3.57.418 3.52 3.947-.098 7.77-1.81 11.575-2.702 1.215-.285.99-2.391-.273-2.295M95.124 160.329c-1.314 1.47-2.588 2.959-3.789 4.533-1.077 1.413-2.703 3.21-2.26 5.127.164.709.895 1.157 1.56.967 1.7-.49 2.373-2.601 3.193-4.101.957-1.75 1.92-3.493 2.999-5.163.696-1.078-.876-2.288-1.703-1.363M136.391 175.745a1.784 1.784 0 0 0-.498-.309c-.03-.078-.122-.2-.331-.401-.236-.32-.477-.637-.72-.951-.48-.627-1.006-1.225-1.513-1.827-1.147-1.363-2.34-2.655-3.561-3.944-.83-.876-2.213.256-1.628 1.317.966 1.748 1.961 3.455 3.023 5.14.895 1.422 1.931 3.749 3.633 4.182 1.018.258 2.293-.546 2.2-1.757-.046-.582-.158-1.058-.605-1.45M111.968 172.139c.02-1.304-1.873-1.597-2.152-.305-.812 3.78-2.211 8.09-1.71 11.988.23 1.805 2.478 1.315 2.963.011 1.294-3.477.842-8.014.899-11.694"/>
        <path fill="#DADFEF" d="M288.03 150.736s-5.45.106-6.358 7.352c-.909 7.243-1.554 17.23-19.233 14.349 0 0-7.47-.65-10.211-10.904-2.74-10.257-6.02-22.448-14.525-20.28-8.504 2.167-7.323 10.605-6.097 17.913 1.225 7.307-3.096 25.296-10.93 38.342 0 0-6.02 7.721-12.081 14.043-1.462-.753-2.797-1.606-3.733-2.44-2.242-2.001-7.085-.374-6.205 3.822.345 1.64.878 3.72 2.014 5.641-.236.147-.466.284-.688.403-6.824 3.685-15.871 9.141-24.062 10.043-8.187.905-16.34 3.521-15.904 9.99.435 6.467 12.467 11.521 27.293 1.57 0 0-1.89 14.725 12.507 25.602 14.394 10.875 29.998 5.316 33.821 3.594 0 0-1.605 5.175-9.2 7.029-7.595 1.854-7.192 9.81-4.35 12.725 2.844 2.916 9.684 4.35 17.388-2.07 7.706-6.42 35.843-27.53 48.13-63.908 12.285-36.38 16.843-74.446 2.424-72.816"/>
        <path fill="#96AAD6" d="M233.627 268.19c.302 0 .6.11.838.316.374.33.52.85.374 1.327-.075.24-1.903 5.903-10.074 7.91-3.309.814-4.536 2.839-4.982 4.395-.714 2.482.115 5.074 1.256 6.254 2.348 2.422 8.437 3.845 15.597-2.166.509-.427 1.107-.918 1.783-1.475 9.425-7.746 34.46-28.322 45.775-62.063 10.958-32.67 14.434-61.927 8.265-69.566-1.157-1.433-2.644-2.018-4.503-1.812a1 1 0 0 1-.108.008c-.194.008-4.362.25-5.111 6.263l-.083.682c-.522 4.282-1.171 9.61-5.36 12.756-3.343 2.508-8.305 3.177-15.18 2.053-.245-.02-8.266-.845-11.192-11.867-3.204-12.074-6.198-21.172-12.93-19.438-7.012 1.8-6.517 8.264-5.139 16.529 1.278 7.67-3.175 26.115-11.05 39.322a1.075 1.075 0 0 1-.087.127c-.06.077-6.107 7.87-12.119 14.184-.389.406-.997.511-1.5.25-1.135-.587-2.75-1.522-3.983-2.628-.724-.65-2.01-.71-3-.14-.556.32-1.44 1.107-1.095 2.768.32 1.527.82 3.508 1.859 5.276.346.59.162 1.35-.416 1.716-.26.164-.512.313-.754.446-.805.438-1.64.9-2.5 1.376-6.457 3.573-14.495 8.02-21.938 8.847-6.928.768-15.105 2.899-14.72 8.674.127 1.891 1.515 3.62 3.807 4.745 4.281 2.1 12.156 2.114 21.409-4.14.413-.278.95-.287 1.374-.028.424.262.656.748.594 1.242-.071.573-1.584 14.202 11.965 24.51 14.24 10.83 29.49 4.783 32.404 3.459.169-.075.346-.112.524-.112zM226.709 293c-3.336 0-5.984-1.286-7.49-2.841-1.988-2.054-2.758-5.64-1.873-8.723.894-3.11 3.313-5.299 6.814-6.157 3.03-.745 4.995-2.047 6.245-3.264-6.44 1.993-19.172 4.03-31.239-5.15-11.336-8.624-12.945-19.474-13.044-24.327-11.652 6.981-19.621 4.11-21.88 3.001-3.13-1.533-5.032-4.033-5.222-6.858-.286-4.292 2.425-9.75 16.97-11.366 6.941-.77 14.731-5.081 20.992-8.545.722-.4 1.426-.79 2.11-1.163-.823-1.739-1.26-3.5-1.554-4.908-.484-2.323.38-4.376 2.311-5.49 1.954-1.13 4.406-.943 5.958.452.644.577 1.555 1.206 2.62 1.811 5.416-5.784 10.688-12.517 11.239-13.223 7.455-12.54 11.865-30.46 10.687-37.536-1.12-6.723-2.815-16.885 7.01-19.407 9.697-2.487 13.203 10.672 16.01 21.247 2.45 9.23 8.796 9.974 9.065 10 6.151 1.007 10.613.478 13.335-1.567 3.324-2.496 3.877-7.029 4.363-11.03l.085-.69c.815-6.552 5.229-8.408 7.506-8.484 2.695-.293 5.019.656 6.705 2.743 7.914 9.804 1.488 44.18-7.833 71.97-11.548 34.435-36.993 55.346-46.571 63.218-.67.551-1.26 1.036-1.762 1.459-4.236 3.553-8.237 4.828-11.557 4.828z"/>
        <path fill="#5C6073" d="M228.559 248.992a1.293 1.293 0 0 1-.783-.379l-4.416-4.487a1.232 1.232 0 0 1 .038-1.777 1.318 1.318 0 0 1 1.826.038l4.417 4.487a1.233 1.233 0 0 1-.039 1.777c-.29.27-.674.382-1.043.34M210.856 233.995a1.28 1.28 0 0 1-.747-.162l-4.487-2.556c-.6-.34-.8-1.09-.449-1.672a1.277 1.277 0 0 1 1.719-.438l4.486 2.557c.6.34.8 1.09.449 1.671-.213.354-.58.566-.971.6"/>
        <path fill="#DADFEF" d="M209.722 223.361c-8.13-.91-9.737-6.395-10.616-10.637-.88-4.24 3.956-5.886 6.195-3.863 2.24 2.023 6.74 4.202 9.95 4.66 3.207.457 4.142 3.487 4.142 3.487S233.073 212.77 249 232"/>
        <path fill="#96AAD6" d="M248.743 233c-.36 0-.718-.153-.967-.45-15.05-17.971-27.84-14.318-27.967-14.278a1.256 1.256 0 0 1-1.57-.827c-.027-.08-.756-2.215-3.075-2.542-3.31-.467-8.024-2.65-10.51-4.869-.718-.64-1.997-.701-2.975-.138-.553.318-1.43 1.095-1.086 2.732.91 4.34 2.387 8.643 9.415 9.42.69.077 1.187.697 1.111 1.383a1.257 1.257 0 0 1-1.39 1.107c-9.426-1.044-10.893-8.038-11.597-11.398-.482-2.29.376-4.316 2.29-5.414 1.942-1.113 4.373-.932 5.913.445 2.097 1.87 6.387 3.858 9.182 4.251 2.603.367 3.99 2.07 4.638 3.216 3.64-.612 15.803-1.108 29.553 15.307a1.25 1.25 0 0 1-.965 2.055"/>
        <path fill="#DADFEF" d="M243.36 250.373s-3.029 19.174 8.49 17.527c0 0 6.593-1.692 4.86-9.631-1.736-7.94-1.945-12.131-2.056-14.269"/>
        <path fill="#96AAD6" d="M251.008 269c-2.29 0-4.194-.753-5.672-2.246-4.814-4.862-3.025-16.006-2.946-16.479a1.268 1.268 0 0 1 1.466-1.036 1.263 1.263 0 0 1 1.056 1.444c-.475 2.87-.996 11.038 2.254 14.317 1.211 1.222 2.846 1.685 4.996 1.407.778-.212 5.433-1.763 4.016-7.918-1.803-7.834-2.027-11.94-2.149-14.146a1.282 1.282 0 0 1 1.207-1.342c.701-.025 1.304.476 1.342 1.17.119 2.168.336 6.136 2.092 13.762 1.633 7.102-3.179 10.255-5.95 10.931-.044.01-.089.02-.134.024-.544.076-1.072.112-1.578.112"/>
        <path fill="#DADFEF" d="M203 226.02s-5.75-.637-11.155 5.212c-5.404 5.851-3.674 11.605-3.223 15.768"/>
        <path fill="#96AAD6" d="M187.935 248c-.653 0-1.216-.477-1.288-1.123a48.75 48.75 0 0 0-.22-1.602c-.587-3.952-1.39-9.366 3.876-14.78 5.927-6.09 12.276-5.494 12.539-5.468.713.076 1.227.698 1.15 1.39a1.283 1.283 0 0 1-1.424 1.119c-.236-.017-5.39-.434-10.38 4.694-4.404 4.527-3.762 8.861-3.195 12.685.088.586.171 1.148.232 1.685.08.69-.434 1.317-1.146 1.392-.05.005-.098.008-.144.008"/>
        <path fill="#5C6073" d="M210.235 238.32s-.938 3.685.936 5.52c1.876 1.835 5.076 1.062 6.06.578.985-.483 3.244-3.278.337-6.082-2.909-2.805-6.447-3.404-7.333-.015"/>
        <path fill="#FFF" d="M237.65 99.15c-3.52-.84-7.741-1.414-11.53-.83.335-.598.65-1.209 1.003-1.75.82-1.26 1.735-2.47 2.604-3.697.135-.193-.13-.43-.315-.318-1.376.839-2.507 1.809-3.626 2.983-.397.417-.835.867-1.244 1.348-.083-1.65-.32-3.32-.413-4.914-.186-3.179-.64-6.328-.822-9.503-.035-.619-.92-.63-.945-.006-.122 3.179-.384 6.313-.331 9.497.02 1.324-.01 2.751.055 4.164-1.433-.984-3.027-1.844-4.667-2.11-.494-.08-.848.466-.486.868 1.295 1.44 2.999 2.616 4.546 3.811-3.413-.262-6.908-.226-10.22.604-.33.084-.36.634-.002.701 3.102.593 6.281.834 9.439 1.115-.286.298-.546.582-.758.802-1.316 1.364-2.646 2.992-3.242 4.826-.157.487.454.737.778.454 1.374-1.202 2.52-2.631 3.936-3.8.29-.24.65-.467 1.022-.697.092.467.195.938.28 1.417.51 2.823.712 5.65.591 8.516-.013.355.523.524.674.185 1.018-2.294 1.171-4.508 1.093-7.015-.028-.88-.02-1.872-.08-2.865l.065.056c.992.842 1.998 1.962 3.197 2.483.484.208.89-.222.69-.708-.456-1.109-1.413-2.027-2.155-2.948-.24-.299-.486-.611-.739-.923 1.295-.125 2.592-.318 3.885-.397 2.526-.155 5.062-.272 7.59-.383.533-.023.68-.834.127-.966M134.651 243.15c-3.52-.841-7.743-1.415-11.53-.83.334-.6.648-1.21 1.002-1.751.82-1.26 1.734-2.47 2.603-3.696.137-.194-.128-.43-.313-.318-1.376.838-2.508 1.81-3.626 2.982-.398.417-.835.869-1.244 1.348-.083-1.65-.32-3.318-.415-4.914-.184-3.177-.64-6.327-.82-9.502-.035-.62-.921-.63-.946-.006-.121 3.178-.384 6.312-.33 9.497.02 1.324-.012 2.75.054 4.164-1.433-.985-3.026-1.845-4.666-2.11-.494-.08-.848.466-.488.868 1.296 1.44 3 2.615 4.547 3.812-3.413-.263-6.908-.228-10.22.604-.33.083-.36.632-.002.7 3.102.592 6.28.835 9.44 1.115-.286.297-.546.582-.758.802-1.317 1.365-2.647 2.992-3.244 4.827-.156.486.454.735.778.453 1.376-1.202 2.522-2.63 3.938-3.8.29-.24.648-.466 1.022-.696.092.465.193.937.28 1.415.509 2.824.712 5.651.59 8.517-.014.354.523.525.674.184 1.019-2.293 1.17-4.506 1.092-7.014-.026-.88-.02-1.871-.08-2.864l.066.054c.993.844 1.997 1.963 3.198 2.483.483.21.888-.22.689-.707-.456-1.11-1.412-2.027-2.154-2.948-.24-.3-.487-.61-.74-.924 1.295-.124 2.592-.318 3.886-.396 2.526-.156 5.062-.273 7.589-.382.533-.024.679-.836.128-.968M264.71 85.823l-2.771 3.753h2.771v-3.753zm3.351 3.726c.593 0 .939.515.939 1.087 0 .558-.346 1.09-.939 1.09h-.951v1.158c0 .725-.524 1.116-1.214 1.116s-1.213-.39-1.213-1.116v-1.158h-4.344c-.663 0-1.09-.322-1.255-.753-.167-.434-.084-1.033.233-1.451l5.076-6.908c.372-.517 1.117-.74 1.738-.544.551.182.979.628.979 1.256v6.223h.951zM275 91.785c1.624 0 2.507-1.387 2.507-3.798 0-2.399-.896-3.772-2.508-3.772-1.61 0-2.506 1.373-2.506 3.772 0 2.41.896 3.798 2.506 3.798M280 87.987c0 3.868-2.102 6.013-5 6.013-2.913 0-5-2.145-5-6.013 0-3.856 2.087-5.987 5-5.987 2.898 0 5 2.13 5 5.987M286.71 85.823l-2.771 3.753h2.771v-3.753zm3.351 3.726c.593 0 .939.515.939 1.087 0 .558-.346 1.09-.939 1.09h-.951v1.158c0 .725-.524 1.116-1.214 1.116s-1.213-.39-1.213-1.116v-1.158h-4.344c-.663 0-1.09-.322-1.255-.753-.167-.434-.084-1.033.233-1.451l5.076-6.908c.372-.517 1.117-.74 1.738-.544.551.182.979.628.979 1.256v6.223h.951z"/>
        <path fill="#5C6073" d="M211.72 251c-.527 0-1.02-.332-1.206-.862-1.63-4.666-6.256-5.535-6.452-5.57a1.294 1.294 0 0 1-1.044-1.492 1.278 1.278 0 0 1 1.469-1.057c.256.042 6.298 1.127 8.44 7.258A1.294 1.294 0 0 1 211.72 251"/>
        <path fill="#5C6073" d="M210.148 246L208 244.898c1.118-2.07 3.41-3.825 3.507-3.898l1.493 1.867c-.02.014-1.98 1.52-2.852 3.133"/>
        <path fill="#FFF" d="M80.346 83.48c-1.325 2.549-6.625 10.927-1.855 12.665 4.772 1.74 6.047-6.266 6.696-9.477.648-3.212 3.915-12.965 12.349-15.288 0 0-3.944-2.563-1.914-6.47 0 0 .302-.415.965-.173.661.241 3.661 2.308 6.383 3.075 2.724.768 13.004 1.816 20.235 6.474 7.232 4.66 8.894 10.587 9.953 11.797 1.058 1.211 1.317 2.354 2.948 3.024 1.633.67 4.767 1.961 5.674 2.143.91.182 1.175 1.102.547 1.997-.627.896-1.81 2.489-6.114 2.345 0 0-2.088 12.281-11.327 17.01-9.238 4.728-3.507 9.59.516 7.009 4.023-2.582 6.24-6.796 8.733-9.711 2.492-2.915 10.28-14.767 15.363-10.592 5.08 4.176-4.144 12.358-6.714 14.868-2.572 2.511-16.574 14.724-24.523 29.891-8.816 16.82-18.61 42.876-15.812 61.099 2.797 18.221 8.426 20.385 1.892 26.549-6.534 6.164-14.225-9.457-15.448-14.737-1.223-5.28-2.218-18.573-8.883-17.29-6.664 1.28-4.367 10.862-2.454 18.106 2.132 8.07 6.48 16.676 17.445 30.53 9.975 12.605 10.716 17.674 5.848 21.054-5.75 3.993-13.598 1.982-25.038-21.863-11.443-23.846-7.84-42.32-9.633-46.347-1.794-4.027-2.018-5.57-4.947-6.187-2.927-.617-7.19 3.337-5.131 12.183s8.854 18.293 3.634 21.788c-5.22 3.495-13.84.578-19.995-14.933-6.155-15.509-19.18-50.012 1.488-95.849 20.668-45.836 45.82-71.188 54.946-62.466 0 0 4.878 2.677-4.454 13.106-7.582 8.47-10.358 12.715-11.373 14.67"/>
        <path fill="#96AAD6" d="M80.555 84.256c-.146.28-.334.625-.555 1.023-1.122 2.04-3.748 6.82-2.949 8.95.16.428.458.702.97.89.849.311 1.339.122 1.635-.045 1.9-1.072 2.802-5.68 3.237-7.894l.114-.577c.102-.507 2.445-11.651 11.16-15.499-.567-.718-1.052-1.608-1.266-2.627-.381.46-.785.93-1.21 1.406-7.65 8.568-10.26 12.683-11.136 14.373zM59.813 193.571c.29 0 .58.03.862.09 3.148.664 3.901 2.432 5.151 5.361.199.466.417.976.665 1.536.605 1.362.68 3.662.794 7.144.272 8.32.728 22.243 8.776 39.057 6.5 13.582 12.373 21.149 17.459 22.492 1.902.503 3.73.12 5.588-1.176 1.395-.968 2.13-2.002 2.314-3.252.455-3.073-2.135-7.985-8.405-15.924-10.066-12.756-15.162-21.713-17.586-30.918-1.698-6.443-3.157-13.055-.756-16.876.924-1.47 2.332-2.396 4.183-2.753 1.494-.287 2.855-.013 4.058.814 3.536 2.431 4.757 9.262 5.647 14.247.215 1.2.406 2.283.606 3.146 1.02 4.414 5.719 13.685 10.028 14.988 1.171.353 2.2.06 3.24-.924 3.526-3.334 3.046-4.873 1.262-10.594-1.049-3.364-2.485-7.97-3.527-14.777-2.74-17.9 6.398-43.623 15.863-61.728 7.186-13.744 19.042-24.873 23.507-29.064.484-.455.867-.815 1.13-1.071l.614-.593c2.185-2.101 7.307-7.021 7.179-10.39-.03-.785-.359-1.41-1.032-1.964-.573-.471-1.17-.652-1.897-.573-3.393.38-7.829 6.121-10.211 9.203a54.24 54.24 0 0 1-1.41 1.781c-.69.806-1.366 1.732-2.081 2.712-1.804 2.466-3.846 5.262-6.887 7.217-1.7 1.094-3.846 1.218-5.46.317-1.241-.693-1.97-1.905-1.945-3.243.025-1.551 1.024-3.896 5.631-6.26 8.504-4.364 10.578-15.938 10.6-16.053.106-.625.664-1.09 1.29-1.053 3.694.11 4.5-1.08 5.003-1.799l.046-.07c-1.059-.276-3.31-1.188-5.542-2.107l-.138-.055c-1.475-.608-2.12-1.555-2.69-2.39-.21-.31-.428-.636-.715-.966-.342-.39-.64-.96-1.051-1.752-1.163-2.231-3.326-6.386-8.585-9.784-5.431-3.508-12.658-4.886-16.978-5.707-1.216-.233-2.174-.416-2.814-.597-2.06-.58-4.222-1.831-5.513-2.578-.227-.131-.427-.25-.59-.34-.793 2.423 1.457 4.013 1.736 4.2a1.27 1.27 0 0 1-.36 2.28c-7.124 1.967-10.561 10.2-11.382 14.278l-.111.565c-.585 2.98-1.563 7.969-4.48 9.614-1.118.63-2.413.703-3.747.218-1.198-.439-2.054-1.263-2.473-2.38-1.114-2.973 1.018-7.27 3.103-11.063.207-.377.389-.704.524-.968v-.001c1.138-2.192 4.055-6.557 11.495-14.893 5.046-5.651 5.52-8.627 5.353-9.896-.12-.905-.602-1.232-.622-1.245a2.029 2.029 0 0 1-.228-.172c-1.261-1.21-2.884-1.6-4.97-1.198-10.504 2.046-30.251 24.381-47.671 63.114-20.699 46.021-7.216 80.085-1.46 94.63 4.43 11.188 9.524 14.237 12.167 15.06 2.11.655 4.132.399 5.847-.752 2.516-1.69 1.209-5.6-1.245-11.838-1.096-2.784-2.227-5.662-2.899-8.556-1.7-7.325.808-10.865 1.967-12.047 1.09-1.112 2.451-1.724 3.773-1.724zM95.118 272a8.757 8.757 0 0 1-2.245-.298c-5.92-1.564-12.165-9.364-19.098-23.849-8.276-17.292-8.742-31.55-9.022-40.069-.096-2.953-.172-5.286-.577-6.197-.253-.572-.476-1.092-.679-1.57-1.25-2.931-1.543-3.497-3.345-3.877-.721-.148-1.583.194-2.304.93-1.802 1.84-2.292 5.465-1.308 9.698.63 2.713 1.727 5.503 2.788 8.203 2.412 6.13 4.69 11.922.298 14.869-2.336 1.569-5.184 1.946-8.008 1.068-5.308-1.652-10.198-7.527-13.768-16.548-5.876-14.843-19.634-49.604 1.502-96.602 15.94-35.443 36.296-61.992 49.498-64.56 2.825-.554 5.278.062 7.115 1.769.416.286 1.382 1.119 1.67 2.795.29 1.706-.21 3.735-1.491 6.07.266.115.608.31 1.21.66 1.188.687 3.178 1.837 4.933 2.332.533.152 1.445.325 2.6.546 4.5.856 12.03 2.292 17.877 6.068 5.823 3.76 8.187 8.302 9.457 10.741.281.539.571 1.094.713 1.257.375.43.655.842.903 1.204.489.721.786 1.156 1.559 1.474l.138.056c1.35.557 4.514 1.859 5.274 2.011.815.163 1.448.672 1.738 1.397.321.802.173 1.738-.406 2.566-.588.844-1.91 2.733-6.09 2.88-.75 3.189-3.593 12.657-11.722 16.827-3.113 1.598-4.24 3.14-4.255 4.05-.009.51.347.817.647.984.664.37 1.806.44 2.857-.234 2.644-1.701 4.458-4.182 6.211-6.583.745-1.019 1.45-1.982 2.2-2.861.346-.406.8-.991 1.334-1.684 2.796-3.619 7.475-9.671 11.931-10.173 1.412-.163 2.685.223 3.79 1.134 1.238 1.02 1.895 2.307 1.953 3.824.171 4.507-5.319 9.78-7.956 12.315l-.597.577c-.27.265-.667.637-1.169 1.109-4.378 4.11-16.008 15.027-22.995 28.39-9.28 17.75-18.251 42.877-15.605 60.169 1.015 6.618 2.42 11.12 3.442 14.405 1.823 5.84 2.736 8.771-1.94 13.193-1.697 1.603-3.672 2.122-5.71 1.506-5.946-1.797-10.826-12.776-11.765-16.842-.207-.898-.41-2.024-.631-3.27-.766-4.29-1.925-10.774-4.588-12.604-.643-.442-1.328-.571-2.144-.417-1.152.223-1.975.752-2.519 1.617-2.014 3.208-.09 10.514 1.06 14.878 2.33 8.843 7.292 17.532 17.128 29.993 6.827 8.65 9.495 13.994 8.921 17.869-.291 1.96-1.394 3.584-3.372 4.961-1.764 1.227-3.585 1.843-5.438 1.843z"/>
        <path fill="#EDEFF7" d="M85.221 113.011c-3.548.126-23.399 7.483-30.408 28.735-7.008 21.252.584 32.86 6.412 34.537 5.827 1.679 7.433 4.66 13.549 7.193 6.113 2.531 20.113 4.796 27.27-18.5 7.156-23.294 8.138-40.756-7.763-49.706 0 0-3.447-2.455-9.06-2.259"/>
        <path fill="#5C6073" d="M110.244 84a1.255 1.255 0 0 1-1.239-1.152 1.262 1.262 0 0 1 1.125-1.377l5.836-.546 1.796-2.42a1.229 1.229 0 0 1 1.743-.25c.549.423.658 1.217.244 1.776l-2.461 3.315-6.929.649a1.196 1.196 0 0 1-.115.005"/>
        <path fill="#5C6073" d="M117.626 89c-.642 0-1.216-.399-1.343-.976l-1.256-5.575c-.149-.657.336-1.295 1.079-1.426.754-.13 1.465.296 1.612.953l1.255 5.576c.15.657-.335 1.294-1.078 1.425-.09.016-.18.023-.269.023"/>
        <path fill="#FF9FA4" d="M125 77.328s-2.97 4.023-6.212 2.197C115.543 77.7 117.707 73 117.707 73s3.667.126 7.293 4.328"/>
        <path fill="#96AAD6" d="M118.877 73.752c-.361 1.239-.703 3.403.923 4.323 1.604.907 3.258-.3 4.165-1.186-2.061-2.086-3.999-2.854-5.088-3.137M120.99 81c-.796 0-1.625-.197-2.459-.667-3.52-1.993-2.636-6.484-1.674-8.58a1.298 1.298 0 0 1 1.216-.752c.18.006 4.475.207 8.615 5.03.392.457.418 1.128.06 1.614C125.747 79.01 123.53 81 120.99 81"/>
    </g>
</svg>
