<svg xmlns="http://www.w3.org/2000/svg" xmlns:xlink="http://www.w3.org/1999/xlink" width="37" height="21" viewBox="0 0 37 21">
    <defs>
        <path id="a" d="M0 1.047h16.818V17.18H.001z"/>
        <path id="c" d="M1.116 1.047h16.56V17.18H1.117z"/>
    </defs>
    <g fill="none" fill-rule="evenodd">
        <g transform="translate(.821 1.203)">
            <mask id="b" fill="#fff">
                <use xlink:href="#a"/>
            </mask>
            <path fill="#FFF" d="M11.596 2.593c0-.876.687-1.546 1.546-1.546.86 0 1.546.67 1.546 1.546v1.804h.928c.67 0 1.202.532 1.202 1.202 0 .67-.532 1.203-1.202 1.203h-.928v2.13c0 .893-.687 1.546-1.546 1.546s-1.546-.653-1.546-1.546V2.593zm-6.82 12.25h6.099c.515 0 .927-.36.927-.878 0-.515-.412-.893-.927-.893H4.776c-.515 0-.91.378-.91.893 0 .517.395.878.91.878zm-3.968-.878c0-1.82 1.477-3.23 3.281-3.23h7.473c1.82 0 3.298 1.41 3.298 3.23 0 1.804-1.477 3.214-3.298 3.214H4.089c-1.804 0-3.281-1.41-3.281-3.214zM.79 7.042C2.869 6.046 3.78 4.38 3.78 2.902V2.68c0-.859.687-1.46 1.546-1.46s1.546.601 1.546 1.46v.223c0 1.478.91 2.972 2.989 3.969.498.24.79.687.79 1.305 0 .773-.601 1.392-1.408 1.392-.24 0-.516-.069-.705-.155-1.254-.567-2.422-1.426-3.195-2.749-.773 1.41-1.958 2.354-3.23 2.922a1.866 1.866 0 0 1-.704.153A1.379 1.379 0 0 1 .001 8.348c0-.618.292-1.065.79-1.306z" mask="url(#b)"/>
        </g>
        <g transform="translate(18 1.203)">
            <mask id="d" fill="#fff">
                <use xlink:href="#c"/>
            </mask>
            <path fill="#FFF" d="M12.455 2.593c0-.876.687-1.546 1.546-1.546s1.546.67 1.546 1.546v1.718h.928c.67 0 1.202.533 1.202 1.203s-.532 1.202-1.202 1.202h-.928v2.079c0 .893-.687 1.546-1.546 1.546s-1.546-.653-1.546-1.546V2.593zm-7.559 12.25h7.593v-1.735H4.896v1.735zm-1.872 2.336a1.189 1.189 0 0 1-1.185-1.187v-4.037c0-.652.532-1.185 1.185-1.185h11.338c.652 0 1.185.533 1.185 1.185v4.037c0 .653-.533 1.187-1.185 1.187H3.024zM1.116 2.662c0-.653.534-1.185 1.186-1.185h6.992c.653 0 1.185.532 1.185 1.185s-.532 1.185-1.185 1.185h-5.12v3.264c2.303 0 4.467-.189 6.357-.653a1.54 1.54 0 0 1 .31-.034c.652 0 1.184.533 1.184 1.185a1.18 1.18 0 0 1-.893 1.134c-2.422.584-4.879.739-7.97.739h-.86a1.189 1.189 0 0 1-1.186-1.186V2.662z" mask="url(#d)"/>
        </g>
    </g>
</svg>
