<svg xmlns="http://www.w3.org/2000/svg" xmlns:xlink="http://www.w3.org/1999/xlink" width="74" height="44" viewBox="0 0 74 44">
    <defs>
        <path id="a" d="M0 68.714h76.643V0H0z"/>
    </defs>
    <g fill="none" fill-rule="evenodd" transform="translate(2.643 .393)">
        <mask id="b" fill="#fff">
            <use xlink:href="#a"/>
        </mask>
        <path fill="#FFE2CF" d="M28.663 35.502h11.009V23.05H28.663z" mask="url(#b)"/>
        <path fill="#474F70" d="M27.788 49.366h12.876V34.52H27.788z" mask="url(#b)"/>
        <path fill="#FFE2CF" d="M47.073 13.325c-.066 0-.13.006-.195.01-1.056-6.071-6.323-10.688-12.666-10.688-6.344 0-11.612 4.617-12.666 10.688-.066-.004-.13-.01-.197-.01a3.363 3.363 0 0 0-3.355 3.373 3.363 3.363 0 0 0 3.355 3.37c.264 0 .52-.034.768-.092 1.792 4.971 6.53 8.522 12.095 8.522 5.564 0 10.302-3.55 12.095-8.522.246.058.502.093.766.093a3.363 3.363 0 0 0 3.355-3.371 3.363 3.363 0 0 0-3.355-3.373" mask="url(#b)"/>
        <path fill="#4E5263" d="M34.564.015c-.136 0-.2-.015-.436-.015C25.023 0 20.63 6.856 20.63 13.386c.653.101.64.156 1.321.156 6.224 0 11.268-3.235 12.505-9.118 1.237 5.883 7.09 9.045 13.313 9.045.077 0 .154-.005.23-.007C48 6.972 43.32.015 34.564.015" mask="url(#b)"/>
        <path fill="#6C728D" d="M34.361 34.513l2.32 3.958 6.293-6.286-2.53-1.048s-3.908 2.75-6.083 3.376M34.361 34.513l-2.635 3.958-5.98-6.286 2.531-1.048s3.909 2.75 6.084 3.376" mask="url(#b)"/>
        <path fill="#4E5263" d="M27.954 16.283s.091-.484.817-.526c.35-.022.703.1.889.414.103.174.108.388.13.584.022.21.04.417.05.626.009.198.02.41-.026.603-.09.38-.399.617-.934.617-.598 0-.898-.258-1.024-.549-.148-.34-.024-1.464.098-1.769M37.528 16.283s.091-.484.816-.526c.35-.022.703.1.89.414.103.174.107.388.13.584.022.21.04.417.05.626.009.198.018.41-.027.603-.089.38-.398.617-.933.617-.599 0-.898-.258-1.024-.549-.148-.34-.024-1.464.098-1.769" mask="url(#b)"/>
        <path fill="#FF999A" d="M34.167 23.604c-2.661 0-3.557-1.92-3.595-2.002a.59.59 0 0 1 .292-.779.585.585 0 0 1 .773.289c.03.063.655 1.314 2.53 1.314 1.864 0 2.242-1.178 2.257-1.229a.587.587 0 0 1 .723-.399.584.584 0 0 1 .405.715c-.024.085-.598 2.09-3.385 2.09" mask="url(#b)"/>
        <path fill="#FFF" d="M28.533 30.833l-12.388 3.775s-1.195.262-1.865 2.076c-.738 2.006-4.051 21.908-3.838 32.03h48.887s-.388-23.242-5.033-32.58c0 0-.356-1.15-.872-1.67s-8.888-3.112-13.534-3.631l-5.678 18.226-5.679-18.226z" mask="url(#b)"/>
        <path fill="#EDEFF1" d="M25.882 31.537l2.782-.869 5.505 18.698-7.7-9.196.967-3.192-3.033.08z" mask="url(#b)"/>
        <path fill="#EDEFF1" d="M42.428 31.194l-2.756-.531-5.504 18.703 7.787-9.195-.971-3.55 3.035.436z" mask="url(#b)"/>
    </g>
</svg>
