<svg xmlns="http://www.w3.org/2000/svg" xmlns:xlink="http://www.w3.org/1999/xlink" width="120" height="26" viewBox="0 0 120 26">
    <defs>
        <path id="a" d="M0 .312h29.91V26H0z"/>
        <path id="c" d="M.391.626H13V13.4H.391z"/>
    </defs>
    <g fill="none" fill-rule="evenodd">
        <g transform="translate(0 -.312)">
            <mask id="b" fill="#fff">
                <use xlink:href="#a"/>
            </mask>
            <path fill="#FF5A5C" d="M22.082 21.704c0-1.011.82-1.831 1.831-1.831a1.82 1.82 0 0 1 1.35.598l.004-.004 2.936 2.937c1.091-1.417 1.706-3.29 1.707-5.277.002-2.39-.865-4.582-2.443-6.176L18.9 2.163c-.69-.791-1.556-1.357-2.502-1.639a5.129 5.129 0 0 0-3.352.15c-.837.325-1.619.884-2.263 1.615l-8.36 9.504C.857 13.371-.003 15.446 0 17.64c.001 2.283.913 4.501 2.503 6.086 1.513 1.509 3.406 2.264 5.294 2.264 1.86 0 3.712-.733 5.19-2.199.114-.109.695-.672 1.274-1.492a8.194 8.194 0 0 0 1.077-2.049c3.473-3.123 5.121-4.838 5.123-4.841a2.89 2.89 0 0 0 .91-2.376c-.083-.888-.578-1.69-1.358-2.2-1.239-.809-2.973-.614-4.12.467l-.784.736a.186.186 0 0 1-.25 0l-.782-.736c-1.148-1.081-2.883-1.277-4.122-.467-.78.51-1.274 1.312-1.357 2.2-.082.886.25 1.753.887 2.354.052.058 1.144 1.266 3.77 3.64-.263 1.312-1.406 2.629-1.874 3.066l-.032.03c-2.07 2.064-5.097 2.042-7.197-.052-1.135-1.132-1.814-2.789-1.815-4.432 0-1.12.305-2.76 1.765-4.221a.841.841 0 0 0 .05-.054l8.385-9.531c.398-.452.866-.791 1.356-.981a2.772 2.772 0 0 1 1.838-.088c.522.155 1.01.48 1.411.938l8.591 9.816c.017.02.035.039.053.057 1.154 1.154 1.79 2.77 1.787 4.551 0 .398-.035.791-.1 1.174a4.295 4.295 0 1 0-2.101 6.444l-2.656-2.657a1.824 1.824 0 0 1-.634-1.383" mask="url(#b)"/>
        </g>
        <path fill="#DE4E50" d="M27.627 23.756c.205-.208.396-.43.576-.664l-2.936-2.937-.004.004c.298.326.481.758.481 1.233a1.831 1.831 0 0 1-3.028 1.384l2.656 2.656a4.29 4.29 0 0 0 1.297-.746c.243-.185.556-.472.958-.93"/>
        <path fill="#FF5A5C" d="M44.809 14.533c-.136-.789.015-1.72.424-2.624.639-1.41 1.785-2.396 2.787-2.396.201 0 .393.041.567.12 1.063.482 1.286 2.287.499 4.024-.639 1.411-1.785 2.396-2.787 2.396-.201 0-.392-.04-.568-.12-.642-.29-.853-1.002-.922-1.4M47.931 6.4c-1.11 0-2.237.293-3.262.846a3.238 3.238 0 0 0-2.03-.84l-.091-.005c-.007 0-.052 0-.057-.002-.047-.002-.103-.007-.144-.002l-.271.002c-.898 0-1.773.26-2.532.747l-.077.051-.053.035c-.593.411-1.196.955-1.791 1.617a.728.728 0 0 0 .053 1.024l.707.641a.725.725 0 0 0 1.035-.06l.946-1.078a.671.671 0 0 1 .816-.139c.27.151.399.476.305.771l-.532 1.68a.519.519 0 0 0-.017.064l-3.441 10.824a.723.723 0 0 0 .692.947h2.754a.726.726 0 0 0 .692-.507l1.531-4.816c.93.632 2.051.966 3.242.966 1.809 0 3.63-.78 4.992-2.144 1.276-1.275 2.035-2.916 2.137-4.619.102-1.703-.465-3.264-1.597-4.396C50.902 6.97 49.479 6.4 47.931 6.4M86.5 14.575c-.64 1.41-1.786 2.396-2.787 2.396a1.37 1.37 0 0 1-.568-.12c-.642-.29-.853-1.002-.922-1.4-.136-.79.014-1.72.423-2.623.64-1.41 1.787-2.396 2.788-2.396.201 0 .392.04.567.12 1.062.482 1.286 2.287.5 4.024m15.187 0c-.64 1.41-1.787 2.395-2.788 2.395a1.37 1.37 0 0 1-.568-.12c-.643-.29-.853-1.002-.922-1.4-.137-.79.014-1.72.423-2.623.64-1.41 1.786-2.396 2.787-2.396.201 0 .394.04.568.12 1.063.482 1.287 2.287.5 4.024m-1.165-7.261c-1.812 0-3.635.782-5 2.148-1.534 1.533-2.322 3.648-2.109 5.656l-2.053 2.05a.672.672 0 0 1-.807.131.658.658 0 0 1-.307-.768l.595-1.877c.007-.021.012-.043.017-.066l3.324-10.412a.726.726 0 0 0-.693-.947h-2.753a.727.727 0 0 0-.692.506L88.59 8.3c-.935-.642-2.063-.98-3.262-.98-1.81 0-3.63.78-4.992 2.143-1.144 1.145-1.885 2.62-2.087 4.157l-4.172 3.51a.538.538 0 0 0-.055.053.675.675 0 0 1-.797.117.66.66 0 0 1-.304-.773l.581-1.836a.508.508 0 0 0 .02-.074l1.67-5.23 2.575-.002a.727.727 0 0 0 .693-.505l.196-.618a.728.728 0 0 0-.692-.948h-2.11l1-3.136a.726.726 0 0 0-.693-.949h-2.753a.728.728 0 0 0-.692.506l-1.14 3.58h-3.053a.729.729 0 0 0-.693.506l-.196.617a.727.727 0 0 0 .693.947h2.587l-2.089 6.554a3.27 3.27 0 0 0-.148.966 3.219 3.219 0 0 0 3.083 3.226l.1.006h.054c.046.003.091.003.144.003h.002l.27-.003a4.66 4.66 0 0 0 2.534-.75l.135-.088c.64-.441.975-.7 2.256-1.74l1.28-1.075a5.377 5.377 0 0 0 1.262 1.994c1.034 1.035 2.457 1.606 4.006 1.606a6.889 6.889 0 0 0 3.226-.826 3.227 3.227 0 0 0 2.061.873l.098.006h.056c.045.003.091.003.144.003h.002l.268-.003a4.67 4.67 0 0 0 2.54-.752l.13-.086c.63-.436 1.273-1.026 1.91-1.755v-.002c.214.342.465.657.745.936 1.038 1.038 2.463 1.61 4.015 1.61 1.813 0 3.636-.783 5.002-2.149 1.275-1.276 2.035-2.916 2.137-4.62.101-1.702-.466-3.264-1.598-4.396-1.038-1.037-2.464-1.608-4.015-1.608"/>
        <g transform="translate(107 6.688)">
            <mask id="d" fill="#fff">
                <use xlink:href="#c"/>
            </mask>
            <path fill="#FF5A5C" d="M12.979 4.775a5.445 5.445 0 0 0-1.424-2.54C10.518 1.197 9.092.626 7.542.626c-1.815 0-3.637.783-5.002 2.15C1.263 4.05.504 5.69.403 7.393.3 9.097.868 10.658 2 11.79c1.037 1.038 2.462 1.61 4.014 1.61 1.76 0 3.543-.745 4.894-2.043a.726.726 0 0 0-.25-1.205l-2.281-.854a.726.726 0 0 0-.758.158c-.757.73-1.621 1-2.27.707-1.061-.482-1.286-2.287-.5-4.024.642-1.41 1.787-2.396 2.788-2.396.2 0 .393.04.57.12.563.256.796.82.893 1.247a.727.727 0 0 0 .709.567h2.464a.728.728 0 0 0 .706-.902" mask="url(#d)"/>
        </g>
        <path fill="#FF5A5C" d="M61.792 10.432c.201 0 .393.04.566.12.642.29 1.003 1.08.97 2.113h-4.244c.657-1.335 1.745-2.232 2.708-2.232m-.098-3.118c-1.813 0-3.636.783-5.002 2.148-1.275 1.277-2.035 2.917-2.136 4.62-.103 1.702.465 3.264 1.597 4.396 1.037 1.038 2.462 1.61 4.014 1.61 1.76 0 3.543-.745 4.894-2.043a.728.728 0 0 0-.249-1.206l-2.282-.854a.728.728 0 0 0-.759.159c-.756.729-1.619 1.002-2.268.706-.643-.29-1.004-1.081-.969-2.115h5.137l.046.002h2.767a.727.727 0 0 0 .714-.592c.378-1.995-.165-3.898-1.49-5.223-1.037-1.037-2.463-1.608-4.014-1.608"/>
    </g>
</svg>
