<svg xmlns="http://www.w3.org/2000/svg" width="20" height="20" viewBox="0 0 20 20">
    <g fill="none" fill-rule="evenodd">
        <path fill="#475377" d="M20 10c0 5.523-4.477 10-10 10-5.522 0-10-4.477-10-10C0 4.478 4.478 0 10 0c5.523 0 10 4.478 10 10"/>
        <path fill="#FFF" d="M16.25 10s-2.273 4.375-6.25 4.375C6.022 14.375 3.75 10 3.75 10S6.022 5.625 10 5.625c3.977 0 6.25 4.375 6.25 4.375"/>
        <path fill="#475377" d="M12.5 10c0 1.382-1.118 2.5-2.5 2.5A2.499 2.499 0 0 1 7.5 10c0-1.382 1.118-2.5 2.5-2.5s2.5 1.118 2.5 2.5"/>
    </g>
</svg>
