<svg xmlns="http://www.w3.org/2000/svg" xmlns:xlink="http://www.w3.org/1999/xlink" width="22" height="15" viewBox="0 0 22 15">
    <defs>
        <path id="a" d="M0 0h21.429v15H0z"/>
    </defs>
    <g fill="none" fill-rule="evenodd">
        <g>
            <mask id="b" fill="#fff">
                <use xlink:href="#a"/>
            </mask>
            <path fill="#F00" d="M20.98 2.342A2.687 2.687 0 0 0 19.087.447C17.416 0 10.714 0 10.714 0s-6.7 0-8.372.447A2.684 2.684 0 0 0 .448 2.342C0 4.013 0 7.5 0 7.5s0 3.487.448 5.157a2.684 2.684 0 0 0 1.894 1.895C4.014 15 10.714 15 10.714 15s6.702 0 8.372-.448a2.687 2.687 0 0 0 1.895-1.895c.448-1.67.448-5.157.448-5.157s0-3.487-.448-5.158" mask="url(#b)"/>
        </g>
        <path fill="#FFF" d="M8.572 10.714L14.139 7.5 8.572 4.285z"/>
    </g>
</svg>
