<?xml version="1.0"?>
<svg xmlns="http://www.w3.org/2000/svg" width="50" height="50" viewBox="0 0 50 50">
    <g fill="none" fill-rule="evenodd">
        <path fill="#FFDE00" d="M25 0c13.807 0 25 11.193 25 25S38.807 50 25 50 0 38.807 0 25 11.193 0 25 0"/>
        <path fill="#3C1E1E" d="M25 12.5c-7.363 0-13.333 4.707-13.333 10.512 0 3.755 2.495 7.048 6.25 8.908-.205.704-1.313 4.532-1.357 4.832 0 0-.027.226.12.312.146.086.317.02.317.02.42-.059 4.866-3.181 5.635-3.724.769.11 1.56.166 2.368.166 7.363 0 13.333-4.707 13.333-10.514 0-5.805-5.97-10.512-13.333-10.512"/>
    </g>
</svg>
