<?xml version="1.0"?>
<svg xmlns="http://www.w3.org/2000/svg" width="50" height="50" viewBox="0 0 50 50">
    <g fill="none" fill-rule="evenodd">
        <path fill="#3C5A9A" d="M25 0c13.807 0 25 11.193 25 25S38.807 50 25 50 0 38.807 0 25 11.193 0 25 0"/>
        <path fill="#FFF" d="M30.913 11.667H26.92c-2.372 0-5.01.997-5.01 4.434.012 1.197 0 2.344 0 3.635h-2.742V24.1h2.827v12.566h5.197V24.018h3.43l.31-4.295h-3.83s.01-1.91 0-2.465c0-1.357 1.413-1.28 1.498-1.28.673 0 1.981.002 2.316 0v-4.311h-.002z"/>
    </g>
</svg>
