<?xml version="1.0"?>
<svg xmlns="http://www.w3.org/2000/svg" width="360" height="361" viewBox="0 0 360 361">
    <g fill="none" fill-rule="evenodd">
        <path fill="#FFF2EE" d="M0 360h360V.001H0z"/>
        <path fill="#FFE79A" d="M220.773 360.48h74.94s17.04-55.626 9.612-59.123c0 0-3.496-2.185-8.521 4.151 0 0-14.856-8.52-25.562-11.361 0 0 2.185-7.91-1.748-9.636-3.933-1.725-14.857 7.51-48.721 75.969"/>
        <path d="M0 360h360V0H0z"/>
        <path fill="#FFE2CF" d="M160.864 259.68h33.575v-37.786h-33.575z"/>
        <path fill="#474F70" d="M158.195 301.759h39.271v-45.057h-39.271z"/>
        <path fill="#FFF" d="M272.966 174.592c-16.52 0-29.913 13.393-29.913 29.915 0 2.052.208 4.057.602 5.995l-7.368 9.266 12.135 1.811c5.405 7.755 14.374 12.841 24.544 12.841 16.52 0 29.914-13.393 29.914-29.913 0-16.522-13.393-29.915-29.914-29.915M103.574 109.745c16.09 3.752 26.09 19.837 22.338 35.926-.467 2-1.125 3.905-1.949 5.701l5.07 10.698-12.228-.992c-7.025 6.325-16.916 9.24-26.82 6.93-16.089-3.752-26.09-19.836-22.337-35.925 3.752-16.09 19.837-26.09 35.926-22.338"/>
        <path fill="#EDEFF1" d="M268.513 200.053l-7.792 7.792c-2.45 2.45-2.45 6.458 0 8.907 2.449 2.45 6.456 2.45 8.906 0l7.792-7.793-8.906-8.906z"/>
        <path fill="#FF7B7D" d="M285.212 201.166c2.45-2.449 2.45-6.457 0-8.906-2.45-2.449-6.457-2.449-8.905 0l-7.794 7.793 8.907 8.906 7.792-7.793z"/>
        <path fill="#3E3F44" d="M278.516 325.339a.86.86 0 0 0-1.174-.306c-2.19 1.29-4.106-.822-4.763-1.686l2.125-5.69a.857.857 0 1 0-1.607-.6l-2.132 5.708c-.97.228-3.547.56-4.731-1.96a.858.858 0 0 0-1.552.73c.694 1.477 1.75 2.306 2.875 2.727 1.307.488 2.685.417 3.714.181.693.911 1.764 1.93 3.086 2.425 1.15.43 2.473.455 3.854-.355a.859.859 0 0 0 .305-1.174"/>
        <path fill="#3E3F44" d="M277.143 319.279c-.726 1.942-3.594 2.391-4.74 1.963-.784-.293-3.02-2.649-2.294-4.59.726-1.944 2.635-2.252 4.577-1.526 1.943.726 3.183 2.21 2.457 4.153M267.085 311.028a2.571 2.571 0 0 1-3.31 1.509 2.572 2.572 0 1 1 1.801-4.82 2.573 2.573 0 0 1 1.51 3.31M288.221 318.923a2.572 2.572 0 1 1-4.82-1.8 2.572 2.572 0 0 1 4.82 1.8"/>
        <path fill="#FFE2CF" d="M217.013 192.374c-.201 0-.398.02-.598.03-3.218-18.426-19.282-32.437-38.63-32.437-19.348 0-35.412 14.01-38.631 32.437-.2-.01-.396-.03-.598-.03-5.652 0-10.234 4.581-10.234 10.234 0 5.651 4.582 10.233 10.234 10.233.806 0 1.586-.103 2.34-.28 5.465 15.085 19.917 25.864 36.889 25.864 16.97 0 31.423-10.779 36.889-25.863.754.176 1.533.28 2.34.28 5.652 0 10.233-4.583 10.233-10.234 0-5.653-4.581-10.234-10.234-10.234"/>
        <path fill="#4E5263" d="M178.86 151.98c-.412 0-.612-.046-1.329-.046-27.77 0-41.171 20.807-41.171 40.626 1.992.31 1.953.473 4.032.473 18.982 0 34.366-9.817 38.139-27.674 3.773 17.857 21.623 27.45 40.604 27.45.236 0 .47-.013.705-.017 0-19.703-14.28-40.812-40.98-40.812"/>
        <path fill="#6C728D" d="M178.24 256.68l7.077 12.012 19.194-19.078-7.717-3.181s-11.92 8.348-18.554 10.247"/>
        <path fill="#6C728D" d="M178.24 256.68l-8.037 12.012-18.234-19.078 7.717-3.181s11.92 8.348 18.554 10.247"/>
        <path fill="#FF7B7D" d="M96.263 153.777l-2.176-1.982c-7.73-7.01-12.834-10.673-12.834-16.347 0-4.622 3.632-8.255 8.255-8.255 2.613 0 5.12 2.176 6.755 4.098 1.636-1.922 4.142-4.098 6.755-4.098 4.623 0 8.255 3.633 8.255 8.255 0 5.674-5.104 9.337-12.834 16.363l-2.176 1.966z"/>
        <path fill="#4E5263" d="M158.699 201.35s.279-1.465 2.489-1.598c1.071-.063 2.148.303 2.715 1.26.314.529.327 1.177.393 1.775.07.631.127 1.264.156 1.9.026.6.057 1.239-.08 1.827-.27 1.155-1.215 1.871-2.846 1.871-1.829 0-2.744-.782-3.127-1.662-.448-1.034-.071-4.442.3-5.372M187.898 201.35s.28-1.465 2.49-1.598c1.071-.063 2.148.303 2.716 1.26.312.529.327 1.177.392 1.775.07.631.128 1.264.155 1.9.028.6.06 1.239-.079 1.827-.27 1.155-1.214 1.871-2.846 1.871-1.83 0-2.744-.782-3.127-1.662-.448-1.034-.071-4.442.3-5.372"/>
        <path fill="#FF999A" d="M177.651 223.57c-8.117 0-10.853-5.825-10.965-6.074a1.786 1.786 0 0 1 3.246-1.49c.093.191 2 3.992 7.72 3.992 5.68 0 6.833-3.58 6.88-3.731.282-.935 1.275-1.482 2.205-1.211a1.773 1.773 0 0 1 1.234 2.172c-.069.258-1.822 6.342-10.32 6.342"/>
        <path fill="#FFF" d="M160.466 245.51l-37.785 11.462s-3.64.788-5.684 6.298c-2.256 6.087-12.357 66.49-11.712 97.21h149.109s-1.185-70.54-15.354-98.88c0 0-1.082-3.495-2.657-5.07-1.574-1.573-27.11-9.445-41.28-11.02l-17.318 55.317-17.319-55.317z"/>
        <path fill="#D7CCC8" d="M89.716 360.48h-8.8a3.084 3.084 0 0 1-2.697-1.555 3.087 3.087 0 0 1 0-3.117l4.4-7.622-7.622-4.401a3.08 3.08 0 0 1-1.557-2.694c0-1.125.581-2.134 1.557-2.699l7.621-4.4-4.4-7.62a3.087 3.087 0 0 1 .001-3.117 3.084 3.084 0 0 1 2.697-1.555h8.8v-8.8a3.08 3.08 0 0 1 1.56-2.698 3.071 3.071 0 0 1 3.113.002l7.62 4.4 4.4-7.624a3.084 3.084 0 0 1 2.697-1.558h.001a3.084 3.084 0 0 1 2.696 1.558l4.4 7.624 7.622-4.4a3.067 3.067 0 0 1 3.113-.002 3.08 3.08 0 0 1 1.559 2.698v8.8h8.8c1.125 0 2.134.582 2.697 1.555.562.974.562 2.139 0 3.117l-4.4 7.62 7.62 4.4h.001a3.087 3.087 0 0 1 1.557 2.699 3.08 3.08 0 0 1-1.558 2.694l-7.62 4.401 4.4 7.622a3.092 3.092 0 0 1 0 3.117 3.084 3.084 0 0 1-2.697 1.555h-47.58z"/>
        <path fill="#3E3F44" d="M117.318 351.799a.936.936 0 0 0-1.312.135c-1.74 2.146-4.493.725-5.49.094v-6.6a.931.931 0 1 0-1.865 0v6.622c-.9.601-3.397 1.92-5.561-.195a.933.933 0 0 0-1.304 1.333c1.268 1.24 2.66 1.682 3.965 1.682 1.517 0 2.891-.596 3.85-1.227 1.053.662 2.53 1.295 4.064 1.295 1.334 0 2.69-.478 3.788-1.829a.931.931 0 0 0-.135-1.31"/>
        <path fill="#3E3F44" d="M113.102 346.181c0 1.986-2.423 3.35-3.595 3.35-.8 0-3.594-1.364-3.594-3.35 0-1.984 1.61-2.9 3.594-2.9 1.986 0 3.595.916 3.595 2.9M100.743 344.275a2.797 2.797 0 1 1-5.594 0 2.797 2.797 0 0 1 5.594 0M122.777 344.275a2.797 2.797 0 1 1-5.593 0 2.797 2.797 0 0 1 5.593 0"/>
        <path fill="#EDEFF1" d="M200.566 295.11h24.356v18.268s0 7.612-12.177 7.612c-12.179 0-12.179-6.09-12.179-6.09v-19.79z"/>
        <path fill="#4E5263" d="M218.287 304.244h-3.763a.402.402 0 0 1-.402-.401v-14.42c0-.221.18-.4.402-.4h3.763c.222 0 .403.179.403.4v14.42c0 .222-.18.401-.403.401"/>
        <path fill="#EDEFF1" d="M152.38 247.65l8.484-2.64 16.788 56.748-23.484-27.909 2.952-9.689-9.25.243zM202.845 246.608l-8.406-1.614-16.787 56.765 23.75-27.91-2.962-10.769 9.259 1.323z"/>
    </g>
</svg>
