<?xml version="1.0" encoding="utf-8"?><svg width="616" height="361" viewBox="0 0 616 361" xmlns="http://www.w3.org/2000/svg" xmlns:xlink="http://www.w3.org/1999/xlink"><svg width="34" height="34" viewBox="-1 -1 34 34" id="btn-patination-left-disabled" x="34" y="327" xmlns="http://www.w3.org/2000/svg"><g fill="none" fill-rule="evenodd" stroke="#C9CDD3"><circle cx="16" cy="16" r="15.75" fill="#FFF" stroke-width=".5"/><path d="M18 21l-5-5 5-5"/></g></svg><svg width="34" height="34" viewBox="-1 -1 34 34" id="btn-patination-right-normal" x="102" y="327" xmlns="http://www.w3.org/2000/svg"><g fill="none" fill-rule="evenodd"><circle cx="16" cy="16" r="15.75" fill="#FFF" stroke="#C9CDD3" stroke-width=".5"/><path stroke="#4E5263" d="M14 11l5 5-5 5"/></g></svg><svg width="20" height="19" viewBox="-1 -1 20 19" id="chat-btn-like-none" x="412" y="303" xmlns="http://www.w3.org/2000/svg"><defs><path id="aca" d="M1.03.005A.535.535 0 00.496.54v6.43c0 .295.239.535.534.535h2.143c.297 0 .538-.24.538-.535V.54a.537.537 0 00-.538-.535H1.03z"/><path id="acc" d="M2.822 1.226v3.035L.928 7.52s-.183.273-.183.81v6.457c0 .396.331.718.735.718h7.322s1.005.075.901-1.913c0 0 1.314-.314.87-1.989 0 0-.099-.353.169-.494 0 0 .961-.333.659-1.686 0 0-.101-.39-.464-.517 0 0-.211-.023-.014-.265 0 0 .541-.626.337-1.525 0 0-.242-.998-1.174-1.047H5.754s-.293.027.054-.721c.31-.666.504-2.476-.195-3.463 0 0-.843-1.31-1.907-1.377 0 0-.028-.003-.075-.003-.214 0-.809.06-.809.721z"/><path id="ace" d="M2.822 1.226v3.035L.928 7.52s-.183.273-.183.81v6.457c0 .396.331.718.735.718h7.322s1.005.075.901-1.913c0 0 1.314-.314.87-1.989 0 0-.099-.353.169-.494 0 0 .961-.333.659-1.686 0 0-.101-.39-.464-.517 0 0-.211-.023-.014-.265 0 0 .541-.626.337-1.525 0 0-.242-.998-1.174-1.047H5.754s-.293.027.054-.721c.31-.666.504-2.476-.195-3.463 0 0-.843-1.31-1.907-1.377 0 0-.028-.003-.075-.003-.214 0-.809.06-.809.721z"/></defs><g fill="none" fill-rule="evenodd"><g transform="translate(1 8.66)"><mask id="acb" fill="#fff"><use xlink:href="#aca"/></mask><path fill="#FEFEFE" d="M-7.838 15.839h19.882V-8.328H-7.838z" mask="url(#acb)"/><path stroke="#9D9D9D" d="M-7.838 15.839h19.882V-8.328H-7.838z" mask="url(#acb)"/><path stroke="#9D9D9D" d="M-874.5 1032.5h3199.983V-819.158H-874.5z" mask="url(#acb)"/></g><path stroke="#8D95A0" stroke-linejoin="round" d="M4.174 8.665H2.03a.536.536 0 00-.535.535v6.43c0 .295.24.535.535.535h2.143c.297 0 .537-.24.537-.535V9.2a.536.536 0 00-.537-.535"/><g transform="translate(6 .66)"><mask id="acd" fill="#fff"><use xlink:href="#acc"/></mask><path fill="#FEFEFE" d="M-7.588 23.839h27.382V-7.828H-7.588z" mask="url(#acd)"/><path stroke="#9D9D9D" d="M-7.588 23.839h27.382V-7.828H-7.588z" mask="url(#acd)"/></g><g transform="translate(6 .66)"><mask id="acf" fill="#fff"><use xlink:href="#ace"/></mask><path stroke="#9D9D9D" d="M-878.535 1040.5h3199.984V-811.157H-878.535z" mask="url(#acf)"/></g><path stroke="#8D95A0" stroke-linejoin="round" d="M17.402 10.083s-.102-.39-.465-.517c0 0-.21-.023-.013-.265 0 0 .54-.626.336-1.525 0 0-.241-.998-1.174-1.047h-4.332s-.293.027.055-.721c.31-.667.503-2.477-.195-3.463 0 0-.843-1.31-1.907-1.377 0 0-.885-.088-.885.718v3.035L6.929 8.18s-.183.273-.183.81v6.456c0 .397.33.719.735.719h7.32s1.006.075.903-1.914c0 0 1.313-.313.87-1.988 0 0-.1-.353.168-.493 0 0 .962-.333.66-1.687"/></g></svg><svg width="20" height="19" viewBox="-1 -1 20 19" id="chat-btn-like-press" x="432" y="303" xmlns="http://www.w3.org/2000/svg"><defs><path id="ada" d="M1.03.005A.535.535 0 00.496.54v6.43c0 .295.239.535.534.535h2.143c.297 0 .538-.24.538-.535V.54a.537.537 0 00-.538-.535H1.03z"/><path id="adc" d="M2.822 1.226v3.035L.928 7.52s-.183.273-.183.81v6.457c0 .396.331.718.735.718h7.322s1.005.075.901-1.913c0 0 1.314-.314.87-1.989 0 0-.099-.353.169-.494 0 0 .961-.333.659-1.686 0 0-.101-.39-.464-.517 0 0-.211-.023-.014-.265 0 0 .541-.626.337-1.525 0 0-.242-.998-1.174-1.047H5.754s-.293.027.054-.721c.31-.666.504-2.476-.195-3.463 0 0-.843-1.31-1.907-1.377 0 0-.028-.003-.075-.003-.214 0-.809.06-.809.721z"/><path id="ade" d="M2.822 1.226v3.035L.928 7.52s-.183.273-.183.81v6.457c0 .396.331.718.735.718h7.322s1.005.075.901-1.913c0 0 1.314-.314.87-1.989 0 0-.099-.353.169-.494 0 0 .961-.333.659-1.686 0 0-.101-.39-.464-.517 0 0-.211-.023-.014-.265 0 0 .541-.626.337-1.525 0 0-.242-.998-1.174-1.047H5.754s-.293.027.054-.721c.31-.666.504-2.476-.195-3.463 0 0-.843-1.31-1.907-1.377 0 0-.028-.003-.075-.003-.214 0-.809.06-.809.721z"/></defs><g fill="none" fill-rule="evenodd"><g transform="translate(1 8.66)"><mask id="adb" fill="#fff"><use xlink:href="#ada"/></mask><path fill="#FEFEFE" d="M-7.838 15.839h19.882V-8.328H-7.838z" mask="url(#adb)"/><path stroke="#9D9D9D" d="M-7.838 15.839h19.882V-8.328H-7.838z" mask="url(#adb)"/><path stroke="#9D9D9D" d="M-874.5 1032.5h3199.983V-819.158H-874.5z" mask="url(#adb)"/></g><path fill="#88A6FF" stroke="#88A6FF" stroke-linejoin="round" d="M4.174 8.665H2.03a.536.536 0 00-.535.535v6.43c0 .295.24.535.535.535h2.143c.297 0 .537-.24.537-.535V9.2a.536.536 0 00-.537-.535"/><g transform="translate(6 .66)"><mask id="add" fill="#fff"><use xlink:href="#adc"/></mask><path fill="#FEFEFE" d="M-7.588 23.839h27.382V-7.828H-7.588z" mask="url(#add)"/><path stroke="#9D9D9D" d="M-7.588 23.839h27.382V-7.828H-7.588z" mask="url(#add)"/></g><g transform="translate(6 .66)"><mask id="adf" fill="#fff"><use xlink:href="#ade"/></mask><use fill="#88A6FF" xlink:href="#ade"/><path stroke="#9D9D9D" d="M-878.535 1040.5h3199.984V-811.157H-878.535z" mask="url(#adf)"/></g><path stroke="#88A6FF" stroke-linejoin="round" d="M17.402 10.083s-.102-.39-.465-.517c0 0-.21-.023-.013-.265 0 0 .54-.626.336-1.525 0 0-.241-.998-1.174-1.047h-4.332s-.293.027.055-.721c.31-.667.503-2.477-.195-3.463 0 0-.843-1.31-1.907-1.377 0 0-.885-.088-.885.718v3.035L6.929 8.18s-.183.273-.183.81v6.456c0 .397.33.719.735.719h7.32s1.006.075.903-1.914c0 0 1.313-.313.87-1.988 0 0-.1-.353.168-.493 0 0 .962-.333.66-1.687"/></g></svg><svg width="34" height="34" viewBox="-1 -1 34 34" id="chat-detail-btn-send-disable" y="327" xmlns="http://www.w3.org/2000/svg"><defs><path id="aea" d="M0 0h16v16H0z"/></defs><g fill="none" fill-rule="evenodd"><circle cx="16" cy="16" r="16" fill="#C9CDD3"/><g transform="translate(8 8)"><mask id="aeb" fill="#fff"><use xlink:href="#aea"/></mask><path fill="#FFF" d="M15.707 7.293l-7-7a.997.997 0 00-.711-.292L7.992 0c-.075 0-.14.027-.211.043-.053.012-.108.011-.16.032a.971.971 0 00-.352.243L.293 7.293a.999.999 0 101.414 1.414l5.285-5.285V15a1 1 0 102 0V3.406l5.301 5.301a.997.997 0 001.414 0 .999.999 0 000-1.414" mask="url(#aeb)"/></g></g></svg><svg width="16" height="18" viewBox="-1 -1 16 18" id="common-btn-bookmark-none" x="537" y="283" xmlns="http://www.w3.org/2000/svg"><path fill="none" stroke="#8D95A0" d="M1.225 15.5a.68.68 0 00.454-.174L7 10.688l.329.286 4.993 4.353a.688.688 0 00.759.1.803.803 0 00.419-.714V1.287c0-.44-.331-.787-.725-.787H1.225C.831.5.5.848.5 1.287v13.426a.8.8 0 00.425.715.652.652 0 00.3.072z"/></svg><svg width="16" height="18" viewBox="-1 -1 16 18" id="common-btn-bookmark-press" x="600" y="206" xmlns="http://www.w3.org/2000/svg"><path fill="#88A6FF" fill-rule="evenodd" d="M.694 15.872A1.298 1.298 0 010 14.712V1.288C0 .576.55 0 1.225 0h11.55C13.45 0 14 .576 14 1.287v13.426c0 .491-.273.948-.694 1.16a1.189 1.189 0 01-1.315-.171L7 11.352l-4.992 4.351a1.178 1.178 0 01-1.314.169z"/></svg><svg width="26" height="26" viewBox="-1 -1 26 26" id="common-btn-checkbox-off" x="254" y="327" xmlns="http://www.w3.org/2000/svg"><rect width="18" height="18" x="3" y="3" fill="none" stroke="#E1E4E6" stroke-width="2" rx="4"/></svg><svg width="26" height="26" viewBox="-1 -1 26 26" id="common-btn-checkbox-on" x="280" y="327" xmlns="http://www.w3.org/2000/svg"><path fill="#FF5A5C" fill-rule="evenodd" d="M11.45 16.785a.998.998 0 01-1.41.02l-5.024-4.86 1.391-1.438 4.308 4.17 6.838-6.99 1.43 1.398-7.534 7.7zM16 2H8a6 6 0 00-6 6v8a6 6 0 006 6h8a6 6 0 006-6V8a6 6 0 00-6-6z"/></svg><svg width="32" height="32" viewBox="-1 -1 32 32" id="common-btn-close" x="170" y="327" xmlns="http://www.w3.org/2000/svg"><g fill="#4E5263" fill-rule="evenodd"><path d="M21.274 22.059a.782.782 0 01-.554-.23L8.17 9.28a.783.783 0 111.11-1.109L21.828 20.72a.783.783 0 01-.555 1.339"/><path d="M8.726 22.059a.783.783 0 01-.554-1.339L20.72 8.17a.783.783 0 111.109 1.11L9.28 21.828a.782.782 0 01-.554.23"/></g></svg><svg width="10" height="8" viewBox="-1 -1 10 8" id="common-btn-ic-dropdown-mini-none" x="449" y="152" xmlns="http://www.w3.org/2000/svg"><path fill="#5C6073" fill-rule="evenodd" d="M4 5.333L0 0h8z"/></svg><svg width="10" height="8" viewBox="-1 -1 10 8" id="common-btn-ic-dropdown-mini-press" x="604" y="132" xmlns="http://www.w3.org/2000/svg"><path fill="#5C6073" fill-rule="evenodd" d="M4 0l4 5.333H0z"/></svg><svg width="19" height="14" viewBox="-1 -1 19 14" id="common-btn-ic-logout" x="585" y="132" xmlns="http://www.w3.org/2000/svg"><path d="M9.5 3.462V.5h-9v11h9V8.538M12 2.571L15.429 6 12 9.429M15.429 6H6.857" fill="none" fill-rule="evenodd" stroke="#8D95A0"/></svg><svg width="20" height="17" viewBox="-1 -1 20 17" id="common-btn-like-none" x="565" y="132" xmlns="http://www.w3.org/2000/svg"><path fill="none" stroke="#8D95A0" d="M15.788 1.153c-1.538-1.067-3.71-.805-5.16.64L9.532 2.888a.747.747 0 01-1.06.002l-1.1-1.097C5.923.347 3.75.085 2.213 1.153A3.965 3.965 0 00.515 4.067 3.956 3.956 0 001.65 7.212c.253.3.84.95 1.72 1.865 1.436 1.494 3.258 3.285 5.525 5.398l-.024-.025c.034.032.08.05.13.05a.188.188 0 00.132-.054c3.632-3.462 7.027-6.947 7.145-7.14l.072-.091a3.951 3.951 0 001.135-3.148 3.964 3.964 0 00-1.696-2.914zm0 0zM8.825 2.18l-.002.002.002-.002z"/></svg><svg width="20" height="17" viewBox="-1 -1 20 17" id="common-btn-like-press" x="545" y="132" xmlns="http://www.w3.org/2000/svg"><path fill="#FF5A5C" fill-rule="evenodd" d="M16.073.743c-1.742-1.209-4.18-.917-5.797.696l-1.1 1.097a.247.247 0 01-.351 0L7.724 1.439C6.11-.174 3.67-.467 1.928.743a4.46 4.46 0 00-1.91 3.28c-.116 1.322.35 2.614 1.248 3.51.085.102 2.14 2.513 7.262 7.282a.693.693 0 00.95-.007c4.898-4.67 7.221-7.235 7.224-7.24a4.455 4.455 0 001.28-3.545 4.454 4.454 0 00-1.909-3.28"/></svg><svg width="16" height="16" viewBox="-1 -1 16 16" id="common-btn-more" x="540" y="229" xmlns="http://www.w3.org/2000/svg"><path fill="#8D95A0" fill-rule="evenodd" d="M7 0c3.86 0 7 3.141 7 7s-3.14 7-7 7-7-3.141-7-7 3.14-7 7-7zm0 1C3.691 1 1 3.691 1 7s2.691 6 6 6 6-2.691 6-6-2.691-6-6-6zm.705 2l3.174 3.672a.5.5 0 010 .654l-3.174 3.671-.757-.654 2.45-2.834H3v-1h6.415L6.948 3.654 7.705 3z"/></svg><svg width="34" height="34" viewBox="-1 -1 34 34" id="common-btn-share" x="571" y="249" xmlns="http://www.w3.org/2000/svg"><g fill="none" fill-rule="evenodd"><path fill="#FEFEFE" d="M16 31.5C7.453 31.5.5 24.547.5 16S7.453.5 16 .5 31.5 7.453 31.5 16 24.547 31.5 16 31.5"/><path fill="#E0E3E5" d="M16 0C7.163 0 0 7.164 0 16s7.163 16 16 16 16-7.164 16-16S24.837 0 16 0m0 1c8.271 0 15 6.729 15 15s-6.729 15-15 15S1 24.271 1 16 7.729 1 16 1"/><path stroke="#5C6073" stroke-linejoin="round" d="M12.567 10.235l8.805 6.256-8.805 5.744"/><path fill="#FEFEFE" d="M15 10.5a2.5 2.5 0 11-5 0 2.5 2.5 0 015 0"/><path stroke="#5C6073" stroke-linejoin="round" d="M15 10.5a2.5 2.5 0 11-5 0 2.5 2.5 0 015 0z"/><path fill="#FEFEFE" d="M15 22.5a2.5 2.5 0 11-5 0 2.5 2.5 0 015 0"/><path stroke="#5C6073" stroke-linejoin="round" d="M15 22.5a2.5 2.5 0 11-5 0 2.5 2.5 0 015 0z"/><path fill="#FEFEFE" d="M24 16.5a2.5 2.5 0 11-5 0 2.5 2.5 0 015 0"/><path stroke="#5C6073" stroke-linejoin="round" d="M24 16.5a2.5 2.5 0 11-5 0 2.5 2.5 0 015 0z"/></g></svg><svg width="26" height="26" viewBox="-1 -1 26 26" id="common-filer-ic-arrow-close" x="354" y="327" xmlns="http://www.w3.org/2000/svg"><path fill="#FF5A5C" d="M12.074 10.414l-5.372 5.298a1 1 0 11-1.404-1.424l6.084-6a1 1 0 011.414.01l5.916 6a1 1 0 11-1.424 1.404l-5.214-5.288z"/></svg><svg width="26" height="26" viewBox="-1 -1 26 26" id="common-filer-ic-arrow-open" x="328" y="327" xmlns="http://www.w3.org/2000/svg"><path fill="#FF5A5C" d="M11.926 13.586l5.372-5.298a1 1 0 111.404 1.424l-6.084 6a1 1 0 01-1.414-.01l-5.916-6a1 1 0 111.424-1.404l5.214 5.288z"/></svg><svg width="22" height="26" viewBox="-1 -1 22 26" id="common-footer-btn-appstore" x="306" y="327" xmlns="http://www.w3.org/2000/svg"><path d="M16.309 12.763c-.028-3.032 2.482-4.507 2.597-4.576-1.421-2.073-3.625-2.356-4.4-2.378-1.85-.194-3.644 1.107-4.587 1.107-.962 0-2.414-1.088-3.977-1.056-2.013.031-3.897 1.197-4.93 3.007-2.131 3.69-.541 9.114 1.5 12.097 1.022 1.461 2.216 3.092 3.778 3.034 1.529-.063 2.1-.974 3.945-.974 1.828 0 2.364.974 3.958.938 1.64-.027 2.674-1.468 3.66-2.942 1.18-1.675 1.654-3.324 1.673-3.408-.038-.014-3.186-1.214-3.217-4.849m-3.011-8.916C14.12 2.818 14.683 1.42 14.528 0c-1.192.053-2.68.823-3.537 1.83-.758.885-1.435 2.338-1.26 3.704 1.337.1 2.71-.675 3.567-1.687" fill="#8D95A0" fill-rule="evenodd"/></svg><svg width="26" height="26" viewBox="-1 -1 26 26" id="common-footer-btn-facebook" x="228" y="327" xmlns="http://www.w3.org/2000/svg"><path fill="#8D95A0" fill-rule="evenodd" d="M24 12.073C24 5.405 18.628 0 12 0 5.373 0 0 5.405 0 12.073 0 18.099 4.388 23.094 10.125 24v-8.437H7.079v-3.49h3.046v-2.66c0-3.026 1.792-4.697 4.533-4.697 1.312 0 2.686.236 2.686.236v2.971H15.83c-1.49 0-1.956.93-1.956 1.885v2.265h3.329l-.533 3.49h-2.796V24C19.612 23.094 24 18.099 24 12.073"/></svg><svg width="26" height="26" viewBox="-1 -1 26 26" id="common-footer-btn-instagram" x="202" y="327" xmlns="http://www.w3.org/2000/svg"><g fill="#8D95A0" fill-rule="evenodd"><path d="M19.846 5.595a1.441 1.441 0 10-2.883 0 1.44 1.44 0 001.442 1.438 1.44 1.44 0 001.441-1.438"/><path d="M21.767 16.849c-.053 1.17-.25 1.806-.412 2.229a3.699 3.699 0 01-.901 1.379 3.66 3.66 0 01-1.377.896c-.422.165-1.06.36-2.23.417-1.266.056-1.641.067-4.848.067-3.205 0-3.583-.011-4.848-.067-1.17-.057-1.805-.252-2.228-.417a3.679 3.679 0 01-1.38-.896 3.68 3.68 0 01-.898-1.38c-.162-.422-.361-1.058-.411-2.228-.062-1.265-.073-1.646-.073-4.848 0-3.207.01-3.585.073-4.85.05-1.17.249-1.805.41-2.231.217-.56.477-.957.899-1.377a3.72 3.72 0 011.38-.898c.423-.165 1.058-.36 2.228-.414 1.265-.056 1.643-.07 4.848-.07 3.207 0 3.582.014 4.848.07 1.17.055 1.808.249 2.23.414.56.219.96.478 1.377.898.423.42.683.818.9 1.377.163.426.36 1.062.413 2.232.059 1.264.073 1.642.073 4.849 0 3.202-.014 3.583-.073 4.848m2.16-9.796c-.058-1.278-.26-2.152-.56-2.913a5.868 5.868 0 00-1.382-2.127A5.897 5.897 0 0019.86.63c-.764-.297-1.635-.501-2.914-.556C15.667.01 15.26 0 11.999 0 8.74 0 8.329.01 7.05.074 5.774.129 4.904.333 4.137.63a5.904 5.904 0 00-2.121 1.383A5.903 5.903 0 00.63 4.14C.333 4.9.132 5.775.07 7.053.014 8.332 0 8.742 0 12c0 3.259.014 3.667.07 4.947.062 1.276.263 2.149.56 2.913a5.884 5.884 0 001.386 2.124 5.883 5.883 0 002.12 1.385c.768.297 1.638.499 2.915.557 1.278.06 1.69.073 4.948.073 3.26 0 3.669-.013 4.948-.073 1.279-.058 2.15-.26 2.914-.557a5.877 5.877 0 002.124-1.385 5.849 5.849 0 001.383-2.124c.299-.764.5-1.637.56-2.913.058-1.28.072-1.688.072-4.947 0-3.26-.014-3.67-.072-4.948"/><path d="M11.999 15.998c-2.208 0-4-1.788-4-3.997a4.001 4.001 0 118.002 0 4 4 0 01-4.002 3.997m0-10.162a6.163 6.163 0 000 12.326 6.164 6.164 0 000-12.326"/></g></svg><svg width="20" height="22" viewBox="-1 -1 20 22" id="common-footer-btn-playstore" x="371" y="303" xmlns="http://www.w3.org/2000/svg"><path d="M.195.58A1.721 1.721 0 000 1.39v17.22c0 .327.08.58.19.8l9.417-9.418L.195.58zm12.862 5.963L1.979.249c-.53-.301-1-.313-1.354-.122l9.423 9.424 3.009-3.008zM.614 19.866c.355.198.83.19 1.364-.115l11.09-6.3-3.02-3.019-9.434 9.434zm16.548-10.99l-3.544-2.014-3.129 3.13 3.14 3.14 3.533-2.008c1.09-.618 1.09-1.63 0-2.248" fill="#8D95A0" fill-rule="evenodd"/></svg><svg width="30" height="22" viewBox="-1 -1 30 22" id="common-footer-btn-youtube" x="548" y="206" xmlns="http://www.w3.org/2000/svg"><path fill="#8D95A0" fill-rule="evenodd" d="M11.2 14.286V5.715L18.474 10 11.2 14.286zM27.414 3.123A3.54 3.54 0 0024.94.598C22.756 0 14 0 14 0S5.244 0 3.06.598A3.543 3.543 0 00.585 3.123C0 5.351 0 10 0 10s0 4.649.585 6.877a3.542 3.542 0 002.475 2.526C5.244 20 14 20 14 20s8.756 0 10.94-.597a3.54 3.54 0 002.474-2.526C28 14.649 28 10 28 10s0-4.649-.586-6.877z"/></svg><svg width="72" height="20" viewBox="-1 -1 72 20" id="common-footer-img-logo" x="449" y="132" xmlns="http://www.w3.org/2000/svg"><path d="M41.408 9.576c-.539 1.19-1.506 2.022-2.352 2.022a1.18 1.18 0 01-.479-.1c-.542-.247-.72-.847-.778-1.183-.115-.667.012-1.453.357-2.215.54-1.19 1.508-2.02 2.352-2.02.17 0 .332.032.48.1.896.406 1.086 1.93.42 3.396m12.819 0c-.54 1.19-1.507 2.022-2.353 2.022a1.18 1.18 0 01-.479-.1c-.543-.247-.72-.847-.778-1.183-.116-.667.01-1.453.356-2.215.542-1.19 1.508-2.02 2.353-2.02.17 0 .332.032.479.1.897.406 1.086 1.93.422 3.396m-.983-6.128c-1.53 0-3.068.66-4.22 1.813-1.295 1.294-1.96 3.078-1.78 4.773l-1.732 1.731a.569.569 0 01-.682.11.556.556 0 01-.259-.647l.502-1.585c.006-.018.01-.037.015-.055L47.892.801a.614.614 0 00-.584-.8L44.985 0a.613.613 0 00-.584.427L43.172 4.28c-.789-.542-1.741-.828-2.753-.828-1.528 0-3.063.66-4.214 1.809-.965.966-1.591 2.211-1.761 3.508l-3.521 2.962-.047.044a.57.57 0 01-.672.1.557.557 0 01-.257-.652l.49-1.55a.404.404 0 00.016-.062l1.41-4.415h2.174a.613.613 0 00.585-.427l.166-.521a.613.613 0 00-.585-.8h-1.781L33.266.8a.613.613 0 00-.584-.8h-2.324a.613.613 0 00-.584.427l-.963 3.02h-2.575a.614.614 0 00-.586.427l-.165.523a.613.613 0 00.584.799h2.185l-1.764 5.53a2.765 2.765 0 00-.125.816 2.718 2.718 0 002.602 2.723l.084.003a2.555 2.555 0 00.168.004h.001l.227-.002c.759 0 1.497-.218 2.14-.633l.114-.075c.538-.372.822-.591 1.904-1.468l1.08-.907c.232.643.591 1.21 1.065 1.683.873.874 2.074 1.355 3.38 1.355.927 0 1.868-.241 2.725-.698.478.449 1.1.71 1.739.738l.082.003.048.001a2.5 2.5 0 00.121.003h.002l.226-.002c.758 0 1.497-.218 2.144-.635l.109-.073c.533-.368 1.075-.865 1.612-1.482.182.288.393.554.63.79.875.875 2.078 1.359 3.388 1.359 1.53 0 3.068-.662 4.222-1.814 1.077-1.077 1.717-2.462 1.803-3.9.086-1.436-.394-2.753-1.348-3.71-.877-.875-2.08-1.357-3.39-1.357M6.221 9.54c-.114-.666.013-1.452.358-2.214.54-1.191 1.506-2.023 2.352-2.023.17 0 .332.034.479.102.897.407 1.086 1.93.42 3.396-.538 1.19-1.505 2.021-2.35 2.021-.172 0-.332-.033-.48-.101-.543-.245-.721-.846-.779-1.181m2.635-6.865c-.937 0-1.888.247-2.753.714a2.73 2.73 0 00-1.713-.71l-.077-.003c-.005 0-.044 0-.049-.002-.04 0-.086-.005-.12 0h-.23c-.757 0-1.496.218-2.136.631l-.065.042-.045.03a8.75 8.75 0 00-1.51 1.365.613.613 0 00.043.864l.597.541a.61.61 0 00.873-.05l.798-.91a.567.567 0 01.689-.117.557.557 0 01.257.65l-.448 1.417a.38.38 0 00-.015.055L.048 16.327a.614.614 0 00.584.8h2.325a.615.615 0 00.585-.428l1.291-4.066c.785.534 1.73.816 2.735.816 1.529 0 3.064-.659 4.214-1.81 1.077-1.075 1.718-2.46 1.804-3.898.086-1.437-.392-2.755-1.348-3.71-.874-.874-2.075-1.356-3.382-1.356m60.808 4.274a4.602 4.602 0 00-1.201-2.144c-.875-.875-2.078-1.357-3.388-1.357-1.53 0-3.07.66-4.221 1.813-1.078 1.077-1.718 2.462-1.804 3.9-.086 1.435.392 2.754 1.349 3.71.874.874 2.077 1.357 3.387 1.357 1.485 0 2.99-.628 4.13-1.724a.612.612 0 00-.21-1.017l-1.925-.72a.616.616 0 00-.641.133c-.64.615-1.367.844-1.915.596-.897-.406-1.085-1.93-.421-3.396.54-1.19 1.507-2.021 2.353-2.021.17 0 .331.033.479.1.476.216.673.692.755 1.053.063.28.31.479.598.479h2.08a.612.612 0 00.595-.762m-49.109-.87c.17 0 .331.034.478.1.541.246.847.912.818 1.784h-3.582c.556-1.127 1.474-1.884 2.286-1.884m-.083-2.631c-1.53 0-3.068.66-4.22 1.813-1.078 1.076-1.718 2.461-1.804 3.9-.086 1.435.392 2.754 1.348 3.709.875.876 2.078 1.358 3.388 1.358 1.485 0 2.99-.628 4.13-1.724a.612.612 0 00-.21-1.017l-1.925-.72a.614.614 0 00-.641.133c-.64.615-1.367.845-1.915.596-.541-.244-.847-.912-.817-1.785h4.335l.038.002h2.336c.295 0 .548-.21.603-.5.319-1.683-.139-3.29-1.258-4.408-.875-.876-2.078-1.357-3.388-1.357" fill="#8D95A0" fill-rule="evenodd"/></svg><svg width="122" height="28" viewBox="-1 -1 122 28" id="common-gnb-logo" x="327" y="132" xmlns="http://www.w3.org/2000/svg"><defs><path id="aza" d="M0 .312h29.91V26H0z"/><path id="azc" d="M.391.626H13V13.4H.391z"/></defs><g fill="none" fill-rule="evenodd"><g transform="translate(0 -.312)"><mask id="azb" fill="#fff"><use xlink:href="#aza"/></mask><path fill="#FF5A5C" d="M22.082 21.704c0-1.011.82-1.831 1.831-1.831a1.82 1.82 0 011.35.598l.004-.004 2.936 2.937c1.091-1.417 1.706-3.29 1.707-5.277.002-2.39-.865-4.582-2.443-6.176L18.9 2.163A5.373 5.373 0 0016.398.524a5.129 5.129 0 00-3.352.15c-.837.325-1.619.884-2.263 1.615l-8.36 9.504C.857 13.371-.003 15.446 0 17.64c.001 2.283.913 4.501 2.503 6.086 1.513 1.509 3.406 2.264 5.294 2.264 1.86 0 3.712-.733 5.19-2.199.114-.109.695-.672 1.274-1.492a8.194 8.194 0 001.077-2.049c3.473-3.123 5.121-4.838 5.123-4.841a2.89 2.89 0 00.91-2.376c-.083-.888-.578-1.69-1.358-2.2-1.239-.809-2.973-.614-4.12.467l-.784.736a.186.186 0 01-.25 0l-.782-.736c-1.148-1.081-2.883-1.277-4.122-.467-.78.51-1.274 1.312-1.357 2.2-.082.886.25 1.753.887 2.354.052.058 1.144 1.266 3.77 3.64-.263 1.312-1.406 2.629-1.874 3.066l-.032.03c-2.07 2.064-5.097 2.042-7.197-.052-1.135-1.132-1.814-2.789-1.815-4.432 0-1.12.305-2.76 1.765-4.221a.841.841 0 00.05-.054l8.385-9.531c.398-.452.866-.791 1.356-.981a2.772 2.772 0 011.838-.088c.522.155 1.01.48 1.411.938l8.591 9.816c.017.02.035.039.053.057 1.154 1.154 1.79 2.77 1.787 4.551 0 .398-.035.791-.1 1.174a4.295 4.295 0 10-2.101 6.444l-2.656-2.657a1.824 1.824 0 01-.634-1.383" mask="url(#azb)"/></g><path fill="#DE4E50" d="M27.627 23.756c.205-.208.396-.43.576-.664l-2.936-2.937-.004.004c.298.326.481.758.481 1.233a1.831 1.831 0 01-3.028 1.384l2.656 2.656a4.29 4.29 0 001.297-.746c.243-.185.556-.472.958-.93"/><path fill="#FF5A5C" d="M44.809 14.533c-.136-.789.015-1.72.424-2.624.639-1.41 1.785-2.396 2.787-2.396.201 0 .393.041.567.12 1.063.482 1.286 2.287.499 4.024-.639 1.411-1.785 2.396-2.787 2.396-.201 0-.392-.04-.568-.12-.642-.29-.853-1.002-.922-1.4M47.931 6.4c-1.11 0-2.237.293-3.262.846a3.238 3.238 0 00-2.03-.84l-.091-.005c-.007 0-.052 0-.057-.002-.047-.002-.103-.007-.144-.002l-.271.002c-.898 0-1.773.26-2.532.747l-.077.051-.053.035c-.593.411-1.196.955-1.791 1.617a.728.728 0 00.053 1.024l.707.641a.725.725 0 001.035-.06l.946-1.078a.671.671 0 01.816-.139c.27.151.399.476.305.771l-.532 1.68a.519.519 0 00-.017.064l-3.441 10.824a.723.723 0 00.692.947h2.754a.726.726 0 00.692-.507l1.531-4.816c.93.632 2.051.966 3.242.966 1.809 0 3.63-.78 4.992-2.144 1.276-1.275 2.035-2.916 2.137-4.619.102-1.703-.465-3.264-1.597-4.396C50.902 6.97 49.479 6.4 47.931 6.4M86.5 14.575c-.64 1.41-1.786 2.396-2.787 2.396a1.37 1.37 0 01-.568-.12c-.642-.29-.853-1.002-.922-1.4-.136-.79.014-1.72.423-2.623.64-1.41 1.787-2.396 2.788-2.396.201 0 .392.04.567.12 1.062.482 1.286 2.287.5 4.024m15.187 0c-.64 1.41-1.787 2.395-2.788 2.395a1.37 1.37 0 01-.568-.12c-.643-.29-.853-1.002-.922-1.4-.137-.79.014-1.72.423-2.623.64-1.41 1.786-2.396 2.787-2.396.201 0 .394.04.568.12 1.063.482 1.287 2.287.5 4.024m-1.165-7.261c-1.812 0-3.635.782-5 2.148-1.534 1.533-2.322 3.648-2.109 5.656l-2.053 2.05a.672.672 0 01-.807.131.658.658 0 01-.307-.768l.595-1.877a.636.636 0 00.017-.066l3.324-10.412a.726.726 0 00-.693-.947h-2.753a.727.727 0 00-.692.506L88.59 8.3c-.935-.642-2.063-.98-3.262-.98-1.81 0-3.63.78-4.992 2.143-1.144 1.145-1.885 2.62-2.087 4.157l-4.172 3.51a.538.538 0 00-.055.053.675.675 0 01-.797.117.66.66 0 01-.304-.773l.581-1.836a.508.508 0 00.02-.074l1.67-5.23 2.575-.002a.727.727 0 00.693-.505l.196-.618a.728.728 0 00-.692-.948h-2.11l1-3.136a.726.726 0 00-.693-.949h-2.753a.728.728 0 00-.692.506l-1.14 3.58h-3.053a.729.729 0 00-.693.506l-.196.617a.727.727 0 00.693.947h2.587l-2.089 6.554a3.27 3.27 0 00-.148.966 3.219 3.219 0 003.083 3.226l.1.006h.054c.046.003.091.003.144.003h.002l.27-.003a4.66 4.66 0 002.534-.75l.135-.088c.64-.441.975-.7 2.256-1.74l1.28-1.075a5.377 5.377 0 001.262 1.994c1.034 1.035 2.457 1.606 4.006 1.606a6.889 6.889 0 003.226-.826 3.227 3.227 0 002.061.873l.098.006h.056c.045.003.091.003.144.003h.002l.268-.003a4.67 4.67 0 002.54-.752l.13-.086c.63-.436 1.273-1.026 1.91-1.755v-.002c.214.342.465.657.745.936 1.038 1.038 2.463 1.61 4.015 1.61 1.813 0 3.636-.783 5.002-2.149 1.275-1.276 2.035-2.916 2.137-4.62.101-1.702-.466-3.264-1.598-4.396-1.038-1.037-2.464-1.608-4.015-1.608"/><g transform="translate(107 6.688)"><mask id="azd" fill="#fff"><use xlink:href="#azc"/></mask><path fill="#FF5A5C" d="M12.979 4.775a5.445 5.445 0 00-1.424-2.54C10.518 1.197 9.092.626 7.542.626c-1.815 0-3.637.783-5.002 2.15C1.263 4.05.504 5.69.403 7.393.3 9.097.868 10.658 2 11.79c1.037 1.038 2.462 1.61 4.014 1.61 1.76 0 3.543-.745 4.894-2.043a.726.726 0 00-.25-1.205l-2.281-.854a.726.726 0 00-.758.158c-.757.73-1.621 1-2.27.707-1.061-.482-1.286-2.287-.5-4.024.642-1.41 1.787-2.396 2.788-2.396.2 0 .393.04.57.12.563.256.796.82.893 1.247a.727.727 0 00.709.567h2.464a.728.728 0 00.706-.902" mask="url(#azd)"/></g><path fill="#FF5A5C" d="M61.792 10.432c.201 0 .393.04.566.12.642.29 1.003 1.08.97 2.113h-4.244c.657-1.335 1.745-2.232 2.708-2.232m-.098-3.118c-1.813 0-3.636.783-5.002 2.148-1.275 1.277-2.035 2.917-2.136 4.62-.103 1.702.465 3.264 1.597 4.396 1.037 1.038 2.462 1.61 4.014 1.61 1.76 0 3.543-.745 4.894-2.043a.728.728 0 00-.249-1.206l-2.282-.854a.728.728 0 00-.759.159c-.756.729-1.619 1.002-2.268.706-.643-.29-1.004-1.081-.969-2.115h5.137l.046.002h2.767a.727.727 0 00.714-.592c.378-1.995-.165-3.898-1.49-5.223-1.037-1.037-2.463-1.608-4.014-1.608"/></g></svg><svg width="15" height="16" viewBox="-1 -1 15 16" id="common-ic-input-search" x="525" y="229" xmlns="http://www.w3.org/2000/svg"><path d="M8.972 10.61L11.92 14l1.08-.978-2.947-3.39zM5.778 1.474c-2.39 0-4.334 1.983-4.334 4.42 0 2.438 1.945 4.422 4.334 4.422 2.39 0 4.333-1.984 4.333-4.422 0-2.437-1.943-4.42-4.333-4.42m0 10.315C2.592 11.79 0 9.145 0 5.894 0 2.644 2.592 0 5.778 0c3.186 0 5.778 2.644 5.778 5.894s-2.592 5.895-5.778 5.895" fill="#8D95A0" fill-rule="evenodd"/></svg><svg width="16" height="16" viewBox="-1 -1 16 16" id="common-ic-more-small" x="509" y="229" xmlns="http://www.w3.org/2000/svg"><path fill="#8D95A0" fill-rule="evenodd" d="M7.705 3l-.757.654 2.467 2.855H3v1h6.398l-2.45 2.834.757.654 3.174-3.671a.5.5 0 000-.654L7.705 3z"/></svg><svg width="16" height="16" viewBox="-1 -1 16 16" id="common-ic-next" x="556" y="229" xmlns="http://www.w3.org/2000/svg"><path fill="none" stroke="#BCC1C8" d="M5 2l5 5-5 5"/></svg><svg width="21" height="21" viewBox="-1 -1 21 21" id="common-ic-recommend" x="391" y="303" xmlns="http://www.w3.org/2000/svg"><g fill="none" fill-rule="evenodd"><path fill="#88A6FF" d="M19 9.5c0 .811-.986 1.48-1.186 2.229-.207.773.306 1.845-.085 2.522-.398.687-1.587.776-2.145 1.334-.557.558-.646 1.746-1.333 2.144-.677.391-1.75-.122-2.523.084C10.98 18.014 10.311 19 9.5 19c-.811 0-1.48-.986-2.228-1.187-.773-.206-1.846.307-2.523-.084-.687-.398-.776-1.587-1.334-2.144-.557-.558-1.746-.648-2.144-1.334-.391-.677.122-1.749-.085-2.522C.986 10.98 0 10.311 0 9.5c0-.811.986-1.48 1.186-2.229.207-.773-.306-1.845.085-2.522.398-.687 1.587-.776 2.145-1.334.557-.558.646-1.746 1.333-2.144.677-.391 1.75.122 2.523-.084C8.02.986 8.689 0 9.5 0c.811 0 1.48.986 2.228 1.187.773.206 1.846-.307 2.523.084.687.398.776 1.587 1.334 2.144.557.558 1.746.648 2.144 1.334.391.677-.122 1.749.085 2.522C18.014 8.02 19 8.689 19 9.5"/><path fill="#FFF" d="M6.607 8.5H5.32a.321.321 0 00-.32.321v3.858c0 .177.144.321.32.321h1.287a.322.322 0 00.322-.321V8.821a.322.322 0 00-.322-.321m7.358.85s-.061-.233-.28-.31c0 0-.125-.013-.007-.158 0 0 .324-.376.202-.915 0 0-.145-.6-.705-.628h-2.6s-.175.016.034-.433c.186-.4.302-1.486-.117-2.078 0 0-.506-.786-1.144-.826 0 0-.531-.053-.531.43v1.822L7.68 8.209s-.11.164-.11.486v3.874c0 .238.198.43.44.43h4.394s.603.046.54-1.147c0 0 .789-.188.523-1.193 0 0-.06-.212.1-.296 0 0 .578-.2.397-1.012"/></g></svg><svg width="15" height="14" viewBox="-1 -1 15 14" id="common-ic-thumnail-like" x="572" y="229" xmlns="http://www.w3.org/2000/svg"><path fill="#FFF" fill-rule="evenodd" d="M11.608.579c-1.259-.942-3.02-.715-4.187.544l-.793.855a.172.172 0 01-.256 0l-.793-.855C4.413-.136 2.65-.364 1.392.579.6 1.172.097 2.104.012 3.139c-.083 1.03.254 2.038.902 2.738.061.078 1.545 1.96 5.244 5.679a.476.476 0 00.686-.005c3.538-3.643 5.216-5.644 5.219-5.648.67-.726 1.008-1.734.924-2.764-.084-1.035-.586-1.967-1.38-2.56"/></svg><svg width="34" height="34" viewBox="-1 -1 34 34" id="common-ic-write" x="68" y="327" xmlns="http://www.w3.org/2000/svg"><path fill="#FFF" fill-rule="evenodd" d="M3.599 23.009l-.612 6.006 6.018-.61L29.191 8.202a.457.457 0 00.142-.322.342.342 0 00-.094-.252l-4.874-4.867c-.14-.14-.412-.118-.579.048L3.6 23.009zM0 32l1.043-10.205L21.9.922c1.213-1.21 3.163-1.231 4.347-.05l4.877 4.87c.58.58.89 1.357.874 2.189a3.112 3.112 0 01-.922 2.158L10.22 30.962 0 32z"/></svg><svg width="327" height="327" viewBox="-1 -1 327 327" id="common-img-404" xmlns="http://www.w3.org/2000/svg"><defs><path id="bga" d="M0 0h305v303H0z"/><path id="bgc" d="M.602.358h109.022v87.52H.602z"/></defs><g fill="none" fill-rule="evenodd"><g transform="translate(10 21)"><mask id="bgb" fill="#fff"><use xlink:href="#bga"/></mask><path fill="#EDEFF7" d="M146.926.42S86.325-7.22 43.249 42.63C.17 92.478-15.527 187.083 18.424 234.385c33.95 47.303 91.995 78.96 170.849 65.496 78.852-13.462 115.36-95.332 115.724-143.726.365-48.394-31.76-92.786-67.902-115.345-7.156-4.467-14.482-8.677-22.05-12.414-5.262-2.596-10.821-5.419-16.437-7.131-8.504-2.595-16.699-6.227-24.244-10.928-3.444-2.144-6.646-4.257-10.452-5.746-3.499-1.368-7.147-2.282-10.824-3.027a249.644 249.644 0 00-6.162-1.143" mask="url(#bgb)"/></g><path fill="#DADFEF" d="M198.101 141.48c-6.737 1.404-12.184 6.677-15.443 13.371-1.19 2.44-3.824 11.26-2.076 14.692.865.004 1.787.197 2.665.457.343-.747-.262-1.583-1.008-1.283.872-.35.348-.916.235-2.305-.128-1.595.062-3.214.287-4.808.456-3.223 1.821-6.295 3.445-9.022 3.57-5.989 9.557-9.002 15.629-9.587 13.083-1.26 21.83 11.337 22.965 24.748.073.871 1.213.69 1.2-.174-.228-16.696-12.93-29.21-27.899-26.09"/><path fill="#DADFEF" d="M234.512 162.662c-.642-.655-1.88-.88-2.654-1.046-2.183-.475-4.87-.833-7.1-.463-.503.084-.583 1.047-.048 1.048 2.106.009 4.254.077 6.309.597.697.176 2.051.858 1.408 1.742-.462.636-2.822.53-3.534.65-1.53.263-3.064.493-4.596.721-5.622.84-11.262 1.387-16.898 1.766-6.08.407-12.158.475-18.219.34-2.982-.069-5.959-.22-8.927-.449-.82-.061-5.284-.082-5.363-1.134-.143-1.934 4.197-2.075 5.264-2.076 1.234 0 1.323-1.961.09-1.945-.841.009-10.997 2.223-7.522 5.31 1.916 1.702 4.856 1.608 7.219 1.831 4.477.426 9.027.436 13.536.446 8.26.017 16.538-.541 24.797-1.512 4.608-.541 9.206-1.286 13.79-2.138 1.372-.256 3.682-1.527 2.7-3.348a1.535 1.535 0 00-.252-.34m-11.745 8.897c-3.436 10.563-10.814 14.358-18.258 15.359-7.444 1-18.782-1.32-21.701-13.063-.374-1.504-2.137-1.181-1.754.328 3.012 11.831 13.353 15.126 21.13 14.795 8.095-.345 18.847-4.283 21.786-16.991.227-.98-.882-1.417-1.203-.428m-52.157-7.955c.192-.158.207-.575-.122-.598-1.017-.071-1.737.501-2.484 1.135-.713.605-1.81 1.496-1.97 2.479-.402 2.468 2.808 3.1 4.667 3.376.33.05.42-.412.1-.495-1.443-.37-4.91-1.383-3.272-3.444.847-1.066 2.059-1.618 3.082-2.453m67.199.482c-.105.055-.131.207-.103.312.1.359.408.582.363.99-.05.46-.511.943-.908 1.107-.298.123-.15.596.16.49.776-.269 1.546-.574 1.669-1.53.082-.653-.39-1.775-1.18-1.369"/><path fill="#DADFEF" d="M212.739 160.245c-10.663 1.405-21.513 1.217-32.157-.24-.632-.088-.827.945-.192 1.029 10.8 1.416 21.6 1.227 32.38-.25.325-.045.297-.583-.031-.54m3.011-3.242c-5.461.585-10.952.897-16.441 1.038-5.64.147-11.387.373-16.891-.947-.428-.103-.567.49-.23.694 1.815 1.11 4.123 1.1 6.188 1.156 3.137.087 6.278.069 9.414-.015 6.022-.16 12.013-.698 17.99-1.435.311-.04.284-.524-.03-.491m3.633-4.986a71.874 71.874 0 01-19.138 2.286c-.354-.005-.308.579.033.597 6.524.37 13.033-.28 19.4-1.894.593-.15.29-1.14-.295-.99m-3.083-4.89c-1.14 1.128-3.135 1.479-4.624 1.876-1.877.499-3.807.762-5.733.97-3.21.345-6.478.456-9.704.476-.342.001-.305.53.032.532 4.005.02 7.954.117 11.942-.384 1.755-.22 3.487-.598 5.19-1.072 1.274-.352 2.958-.647 3.555-1.96.197-.43-.343-.75-.658-.438m-9.347-3.614c-.258-.057-.397.344-.147.453-.142.392-.282.785-.422 1.18-.47.118-.939.231-1.408.34-1.148.273-2.303.438-3.473.555-1.257.125-7.456.368-6.333-2.528.12-.312-.203-.656-.5-.447-1.105.778-.697 2.034.17 2.86 1.362 1.297 4.305 1.091 5.996 1.02 2.074-.091 4.946-.433 6.728-1.582.97-.626.12-1.688-.611-1.85m-10.176 34.954c-2.483.065-4.935-.087-7.403-.377-2.312-.27-5.123-.376-6.966-2.033-.17-.154-.491.034-.388.279.787 1.879 3.357 1.903 4.992 2.168 3.238.521 6.524.572 9.792.426.279-.012.251-.47-.027-.463m11.967 1.464a136.88 136.88 0 01-12.287.485c-2.05-.01-4.102-.079-6.152-.177-1.899-.09-5.31.176-6.718-1.16-.232-.217-.7.059-.562.325.489.944 1.489 1.127 2.62 1.235 2.322.222 4.678.268 7.01.326 5.376.134 10.772-.117 16.118-.601.321-.03.292-.46-.03-.433m14.787-21.902c-1.058.472-1.967 1.144-3.047 1.596-1.063.447-2.212.702-3.337.984-.241.06-.163.409.084.391 2.194-.155 5.097-.989 6.684-2.446.24-.22-.063-.669-.384-.525"/><path fill="#DADFEF" d="M242.419 161.725c-5.17-2.935-12.815-2.968-18.66-2.507-.542.043-.588 1.008-.05 1.05 4.454.347 8.874.62 13.266 1.407 1.521.269 4.642.325 4.988 2.25.299 1.659-1.165 2.36-2.355 2.883-2.805 1.236-5.752 1.989-8.674 2.681-9.395 2.224-19.058 3.173-28.557 3.614-9.468.44-18.912-.039-28.251-1.177a92.519 92.519 0 01-5.265-.784 18.27 18.27 0 01-3.148-.89c-.665-.234-6.758-3.814-1.664-5.242 5.136-1.44 10.45-2.278 15.635-3.437.99-.221.884-1.922-.119-1.715a1730.59 1730.59 0 00-10.951 2.287c-2.11.447-4.987.48-6.9 1.817-3.213 2.249-1.394 5.468 1.246 6.987 4.977 2.865 11.25 2.916 16.823 3.424 7.03.64 14.118.747 21.208.514 7.023-.23 14.051-.985 21.048-2.078 6.746-1.052 13.942-2.265 20.246-5.566 2.31-1.21 2.218-4.335.134-5.518"/><path fill="#B7C5E2" d="M208.15 293.304c-.805.9-2.057 1.64-3.118 2.324a.792.792 0 00-.273.301c-.621-.08-1.293.289-1.21.974.291 2.397 1.617 5.302.279 7.65-1.446-.47-2.722-1.169-3.884-2.19-.465-.409-1-.454-1.458-.29-.314-.243-.753-.33-1.1-.09-1.93 1.32-3.563 2.744-6.053 2.929-1.523.114-.705-2.466-.618-3.417.14-1.516.513-3.101.127-4.5-.003-.01-.01-.018-.013-.029.17-.66-.109-1.48-.84-1.758-1.062-.402-2.155-.593-3.13-1.14-.808-.454-1.604-1.887-.5-2.572.733-.453 1.876-.385 2.695-.488a6.587 6.587 0 002.511-.825c.004-.002.005-.005.009-.008.65.606 1.996.581 2.245-.472.299-1.258.452-2.498.797-3.7.136-.477 1.426-4.347 2.346-3.615 2.13 1.689 3.057 4.762 3.804 7.263.238.8 1.327.946 1.936.571.8.153 1.595.15 2.417.074 1.02-.095 2.508-.537 3.444.134 1.064.763.148 2.248-.413 2.874m3.637-2.94c-.398-1.467-1.967-2.466-3.485-2.772-1.87-.374-3.662.527-5.511.092-.028-.007-.047 0-.074-.006-.4-1.368-.99-2.649-1.711-3.884-.856-1.47-2.107-3.406-4.1-3.753-2.011-.349-3.122 1.603-3.783 2.854-.876 1.651-1.642 3.597-1.844 5.545a1.136 1.136 0 00-.404.055c-2.672.848-6.836-.313-7.744 3.333-.797 3.198 2.167 5.196 5.227 5.85-.707 2.01-.611 4.623-.864 6.77-.204 1.732.56 3.037 2.277 3.412 2.844.621 6.484-.888 8.261-3.294 1.77 1.565 3.798 2.664 6.146 3.236.52.127 1.114.004 1.457-.412 2.385-2.902 1.986-7.197.307-10.312 3.82-.74 6.912-2.783 5.845-6.714"/><path fill="#96AAD6" d="M177.814 292.108c-.638-.71-1.447-1.246-2.19-1.838-.586-.469-1.137-.987-1.697-1.496 1.254-1.066 2.263-2.38 3.274-3.704.43-.563-.359-1.165-.88-.91-1.526.746-3.161 1.212-4.723 1.863-.795-1.863-1.655-3.749-2.276-5.672a.474.474 0 00-.932.105c-.183 2.14-.221 4.163.073 6.263-1.748.308-3.63.619-5.112 1.416-.455.246-.476.966-.014 1.218 1.397.76 3.212.999 4.933 1.1-.67 1.852-1.03 3.857-.853 5.788.069.742.953 1.062 1.39.396 1.036-1.575 1.97-3.25 2.893-4.913 1.687.943 3.822 1.655 5.632 1.52.574-.043.893-.68.482-1.136"/><g transform="translate(167)"><mask id="bgd" fill="#fff"><use xlink:href="#bgc"/></mask><path fill="#FFF" d="M97.199 86.892c.493.48-.195 1.24-.75.9-13.402-8.204-26.132-16.746-41.046-22.082-13.931-4.986-28.254-7.779-43-8.685-1.696-.105-1.877-2.178-.635-3.012 5.247-3.531 11.957-5.818 18.217-4.463-4.84-2.495-9.161-6.926-13.24-10.39-2.882-2.45-6.56-5.848-6.478-10.038.085-4.248 3.214-3.534 6.806-2.942 3.361.553 6.901 1.382 10.08 2.857-2.096-2.128-4.157-4.302-6.405-6.262-5.113-4.46-10.414-8.69-15.606-13.054C2.978 7.903-2.971.905 3.61.361 4.3.305 4.84.883 4.856 1.453 25.4 8.253 43.942 20.5 60.789 33.95c8.428 6.73 16.625 13.745 24.745 20.846 8.198 7.168 17.428 14.275 23.767 23.239 1.066 1.504-.74 3.266-2.119 1.964L97.2 86.892z" mask="url(#bgd)"/></g><path fill="#B7C5E2" d="M275.678 77.215c-6.34-8.91-15.566-15.976-23.763-23.1-8.12-7.06-16.313-14.033-24.74-20.722-16.843-13.372-35.381-25.546-55.922-32.304-.015-.568-.555-1.142-1.245-1.085-6.58.539-.632 7.496 1.531 9.303 5.192 4.339 10.491 8.543 15.603 12.976 2.248 1.949 4.308 4.112 6.403 6.225-3.177-1.466-6.716-2.29-10.076-2.84-3.592-.588-6.722-1.298-6.805 2.925-.084 4.165 3.595 7.543 6.477 9.979 4.076 3.443 8.396 7.848 13.237 10.329-6.26-1.348-12.968.925-18.215 4.437-1.24.828-1.06 2.888.635 2.992 14.743.903 29.064 3.678 42.992 8.634 14.912 5.304 27.637 13.797 41.038 21.952.554.337 1.242-.417.75-.895-20.225-19.585-51.098-29.768-79.03-32.423 4.469-1.672 8.926-1.701 14.25-1.596 1.337.026 1.592-1.74.411-2.228-.287-.118-.575-.213-.864-.314.335-.269.43-.876.158-1.263-4.01-5.703-11.094-9.448-16.225-14.084-1.191-1.076-2.084-2.304-2.903-3.687-2.838-4.793 6.035-2.404 6.717-2.267 4.016.807 7.534 2.713 11.349 4.075.48.422.967.836 1.466 1.236.712.572 1.74-.43 1.3-1.188-3.081-5.28-8.269-9.338-12.841-13.298-2.398-2.076-4.866-4.073-7.322-6.079-1.254-1.024-11.063-8.423-9.78-10.599 19.444 7.954 36.818 18.81 53.415 31.664 17.932 13.889 33.423 29.755 49.879 45.198 1.38 1.295 3.186-.457 2.12-1.953"/><path fill="#B7C5E2" d="M163.417 41.843c1.103-.932 2.94-1.163 3.937-2.358a16.375 16.375 0 017.292 3.499c-3.81.3-7.645.306-11.229-1.14m15.253 1.316c-3.413-3.859-7.575-5.572-12.292-5.076-2.518-.434-5.499 1.42-6.314 3.954-.181.564.028 1.385.564 1.664 5.518 2.872 11.394 2.522 17.343 1.765 1.011-.129 1.342-1.581.7-2.307"/><path fill="#DADFEF" d="M233.738 50.974c-7.816-5.12-16.199-9.847-23.597-15.557-2.285-1.764-4.745 2.556-1.77 3.808 8.468 3.563 16.593 8.488 24.766 12.704.63.326 1.22-.55.601-.955"/><path fill="#96AAD6" d="M303.362 72.226c.286-.627-.054-1.489-.768-1.604-3.521-.57-7.119.218-10.564.821-2.489.437-5.641.475-8.183 1.422-2.954-5.895-6.724-11.948-10.96-16.453-.224-.238-.504-.287-.776-.231-.41-.357-1.15-.19-1.37.53-1.228 3.96-1.911 7.901-2.563 11.964-.492 3.068-1.195 6.166-1.186 9.238a1.7 1.7 0 00-.848.235c-7.514 1.681-15.266 3.082-22.08 6.015a1.073 1.073 0 00-.61.713c-.464-.124-.94-.257-1.391-.37-1.029-.259-1.428 1.27-.669 1.863 5.607 4.378 12.993 9.201 20.265 11.606-.451 3.134.824 6.85 1.395 9.796.67 3.462 1.26 7.693 3.308 10.687.141 1.934 2.398 3.563 3.965 1.764 3.918-4.495 8.6-10.312 10.725-16.438 6.316 3.618 13.022 8.308 20.266 10.793 1.332.457 2.268-1.33 1.391-2.327 0-.03.024-.046.022-.076-.527-8.029-5.102-16.169-9.359-22.544 4.168-4.726 8.608-10.376 10.57-16.259.196-.59-.128-.993-.58-1.145"/><path fill="#B7C5E2" d="M293.108 54.027c-1.745 3.287-2.943 6.861-5.007 10-.413.63.54 1.314 1.059.783 2.675-2.736 5.674-5.412 7.567-8.77 1.296-2.295-2.381-4.341-3.619-2.013m-35.521 16.469c-3.329-1.888-6.304-4.314-9.61-6.232-.763-.442-1.82-.33-2.43.342-.254.282-.447.521-.509.907-.136.839.07 1.926.946 2.308 3.54 1.547 7.274 2.518 10.804 4.099.93.416 1.727-.898.8-1.424m55.81 20.214c-3.134-.489-6.295-.515-9.456-.708-1.18-.071-1.234 1.536-.257 1.892 2.844 1.035 5.633 2.255 8.57 3.025 2.802.735 3.915-3.778 1.143-4.21m-25.183 31.308c-1.751-2.632-2.273-6.788-2.506-9.834-.123-1.595-2.268-1.555-2.46-.013a32.095 32.095 0 00-.066 7.408c.115 1.11.289 2.18.533 3.27.03.128.188.865.322 1.342-.048.29-.052.59.006.89l.034.175c.275 1.424 2.219 2.233 3.436 1.423 1.834-1.22 1.851-2.932.7-4.661m-36.665-16.868c-2.017 1.339-4.312 2.11-6.471 3.167-1.87.913-4.457 1.887-5.016 4.135-.266 1.071.35 2.05 1.317 2.385 2.157.746 4.268-1.22 5.911-2.512 2.051-1.613 3.566-3.78 5.428-5.594.795-.775-.25-2.192-1.17-1.581"/><path fill="#FFF" d="M113.871 125.574c-.19-2.728.103-5.368-.982-7.869-.54-1.242-2.01-.66-2.384.34-.934 2.505-.354 5.355.003 7.984.514 3.786 1.452 7.451 2.4 11.132.373 1.451 2.318.866 2.07-.582-.625-3.65-.85-7.31-1.107-11.005m4.239 33.978c-.456-1.019-2.155-.504-2.11.546.254 5.76 1.238 12.768 3.669 18.032.74 1.605 3.384.797 3.33-.861-.188-5.75-2.535-12.47-4.889-17.717M150.472 138c-3.05.006-6.127 1.115-9.12 1.664-3.461.635-6.728 1.34-9.916 2.788-.896.407-.277 1.773.654 1.516 6.119-1.687 13.484.128 19.158-3.19 1.307-.764.823-2.78-.776-2.778m-51.453 12.005c-3.194.29-6.341.744-9.476 1.382-3.017.613-7.206 1.272-9.211 3.605-.7.812-.241 1.875.882 1.98 2.753.257 5.356-1.304 7.91-2.176a107.284 107.284 0 0110.146-2.928c1.094-.257.916-1.97-.251-1.863m36.928-31.873c-2.64 1.125-4.336 4.287-6.014 6.524-2.33 3.108-4.02 6.488-5.8 9.909-.601 1.152.994 1.998 1.737.978 2.179-2.998 4.646-5.817 6.934-8.738 1.747-2.231 4.411-4.387 5.144-7.157.327-1.237-.957-1.96-2-1.516m-31.424 20.891c-2.943-1.887-5.93-3.697-8.835-5.65-2.364-1.587-4.649-4.114-7.515-4.37-.676-.06-1.387.809-1.114 1.502 1.157 2.954 4.401 4.431 6.947 5.957 3.094 1.852 6.36 3.382 9.762 4.487 1.117.363 1.706-1.317.755-1.926m40.226 24.719c-1.676-2.529-4.796-3.848-7.294-5.413-2.989-1.872-5.969-3.825-9.19-5.245-.863-.381-1.698.617-1.014 1.387 2.197 2.474 4.81 4.492 7.434 6.451 2.425 1.811 5.391 4.642 8.403 5.064 1.126.158 2.478-1.008 1.66-2.244m-37.395-5.416c-1.793 2.25-3.47 4.454-4.968 6.917-1.418 2.329-3.629 5.508-3.364 8.323.121 1.285 1.473 1.901 2.473 1.023 1.843-1.62 2.457-4.5 3.411-6.723 1.214-2.824 2.53-5.667 3.984-8.375.5-.936-.827-2.057-1.536-1.165m44.788-5.391c-1.663-.809-3.52-1.06-5.337-1.425-2.216-.444-4.387-1.06-6.607-1.489-1.057-.204-1.682 1.122-.725 1.669 1.936 1.105 4.003 1.883 6.067 2.737 1.823.755 3.73 1.516 5.736 1.572 1.707.048 2.417-2.31.866-3.064m-7.088-27.807c-1.838-.607-3.837 1.075-5.189 2.267-1.553 1.369-2.722 3.103-3.732 4.955-.572 1.047.844 2.258 1.598 1.303 1.16-1.463 2.536-2.578 4.029-3.62 1.34-.935 3.218-1.374 4.07-2.904.433-.78-.01-1.749-.776-2m-21.47-11.518c-.336-.73-1.334-.797-1.836-.25-1.241 1.353-1.191 3.204-1.401 5.003-.258 2.206-.305 4.409-.347 6.63-.02 1.198 1.584 1.373 1.9.271.613-2.137 1.193-4.257 1.612-6.449.349-1.807.86-3.492.072-5.205m-19.718 14.793c-1.135-2.044-2.255-4.094-3.394-6.134-.983-1.758-1.776-4.052-3.489-5.096-.83-.505-2.03.144-1.982 1.225.097 2.15 1.623 3.86 2.789 5.529a68.433 68.433 0 004.527 5.758c.767.88 2.113-.264 1.549-1.282m-12.941 13.599c-3.832.293-8.062.006-11.72 1.477-1.694.68-1.644 3.57.418 3.52 3.947-.098 7.77-1.81 11.575-2.702 1.215-.285.99-2.391-.273-2.295m4.199 18.326c-1.314 1.47-2.588 2.959-3.789 4.533-1.077 1.413-2.703 3.21-2.26 5.127.164.709.895 1.157 1.56.967 1.7-.49 2.373-2.601 3.193-4.101.957-1.75 1.92-3.493 2.999-5.163.696-1.078-.876-2.288-1.703-1.363m41.267 15.416a1.784 1.784 0 00-.498-.309c-.03-.078-.122-.2-.331-.401-.236-.32-.477-.637-.72-.951-.48-.627-1.006-1.225-1.513-1.827-1.147-1.363-2.34-2.655-3.561-3.944-.83-.876-2.213.256-1.628 1.317a103.37 103.37 0 003.023 5.14c.895 1.422 1.931 3.749 3.633 4.182 1.018.258 2.293-.546 2.2-1.757-.046-.582-.158-1.058-.605-1.45m-24.423-3.606c.02-1.304-1.873-1.597-2.152-.305-.812 3.78-2.211 8.09-1.71 11.988.23 1.805 2.478 1.315 2.963.011 1.294-3.477.842-8.014.899-11.694"/><path fill="#DADFEF" d="M288.03 150.736s-5.45.106-6.358 7.352c-.909 7.243-1.554 17.23-19.233 14.349 0 0-7.47-.65-10.211-10.904-2.74-10.257-6.02-22.448-14.525-20.28-8.504 2.167-7.323 10.605-6.097 17.913 1.225 7.307-3.096 25.296-10.93 38.342 0 0-6.02 7.721-12.081 14.043-1.462-.753-2.797-1.606-3.733-2.44-2.242-2.001-7.085-.374-6.205 3.822.345 1.64.878 3.72 2.014 5.641a12.4 12.4 0 01-.688.403c-6.824 3.685-15.871 9.141-24.062 10.043-8.187.905-16.34 3.521-15.904 9.99.435 6.467 12.467 11.521 27.293 1.57 0 0-1.89 14.725 12.507 25.602 14.394 10.875 29.998 5.316 33.821 3.594 0 0-1.605 5.175-9.2 7.029-7.595 1.854-7.192 9.81-4.35 12.725 2.844 2.916 9.684 4.35 17.388-2.07 7.706-6.42 35.843-27.53 48.13-63.908 12.285-36.38 16.843-74.446 2.424-72.816"/><path fill="#96AAD6" d="M233.627 268.19c.302 0 .6.11.838.316.374.33.52.85.374 1.327-.075.24-1.903 5.903-10.074 7.91-3.309.814-4.536 2.839-4.982 4.395-.714 2.482.115 5.074 1.256 6.254 2.348 2.422 8.437 3.845 15.597-2.166.509-.427 1.107-.918 1.783-1.475 9.425-7.746 34.46-28.322 45.775-62.063 10.958-32.67 14.434-61.927 8.265-69.566-1.157-1.433-2.644-2.018-4.503-1.812a1 1 0 01-.108.008c-.194.008-4.362.25-5.111 6.263l-.083.682c-.522 4.282-1.171 9.61-5.36 12.756-3.343 2.508-8.305 3.177-15.18 2.053-.245-.02-8.266-.845-11.192-11.867-3.204-12.074-6.198-21.172-12.93-19.438-7.012 1.8-6.517 8.264-5.139 16.529 1.278 7.67-3.175 26.115-11.05 39.322a1.075 1.075 0 01-.087.127c-.06.077-6.107 7.87-12.119 14.184a1.266 1.266 0 01-1.5.25c-1.135-.587-2.75-1.522-3.983-2.628-.724-.65-2.01-.71-3-.14-.556.32-1.44 1.107-1.095 2.768.32 1.527.82 3.508 1.859 5.276.346.59.162 1.35-.416 1.716-.26.164-.512.313-.754.446-.805.438-1.64.9-2.5 1.376-6.457 3.573-14.495 8.02-21.938 8.847-6.928.768-15.105 2.899-14.72 8.674.127 1.891 1.515 3.62 3.807 4.745 4.281 2.1 12.156 2.114 21.409-4.14.413-.278.95-.287 1.374-.028.424.262.656.748.594 1.242-.071.573-1.584 14.202 11.965 24.51 14.24 10.83 29.49 4.783 32.404 3.459.169-.075.346-.112.524-.112zM226.709 293c-3.336 0-5.984-1.286-7.49-2.841-1.988-2.054-2.758-5.64-1.873-8.723.894-3.11 3.313-5.299 6.814-6.157 3.03-.745 4.995-2.047 6.245-3.264-6.44 1.993-19.172 4.03-31.239-5.15-11.336-8.624-12.945-19.474-13.044-24.327-11.652 6.981-19.621 4.11-21.88 3.001-3.13-1.533-5.032-4.033-5.222-6.858-.286-4.292 2.425-9.75 16.97-11.366 6.941-.77 14.731-5.081 20.992-8.545.722-.4 1.426-.79 2.11-1.163-.823-1.739-1.26-3.5-1.554-4.908-.484-2.323.38-4.376 2.311-5.49 1.954-1.13 4.406-.943 5.958.452.644.577 1.555 1.206 2.62 1.811 5.416-5.784 10.688-12.517 11.239-13.223 7.455-12.54 11.865-30.46 10.687-37.536-1.12-6.723-2.815-16.885 7.01-19.407 9.697-2.487 13.203 10.672 16.01 21.247 2.45 9.23 8.796 9.974 9.065 10 6.151 1.007 10.613.478 13.335-1.567 3.324-2.496 3.877-7.029 4.363-11.03l.085-.69c.815-6.552 5.229-8.408 7.506-8.484 2.695-.293 5.019.656 6.705 2.743 7.914 9.804 1.488 44.18-7.833 71.97-11.548 34.435-36.993 55.346-46.571 63.218-.67.551-1.26 1.036-1.762 1.459-4.236 3.553-8.237 4.828-11.557 4.828z"/><path fill="#5C6073" d="M228.559 248.992a1.293 1.293 0 01-.783-.379l-4.416-4.487a1.232 1.232 0 01.038-1.777 1.318 1.318 0 011.826.038l4.417 4.487a1.233 1.233 0 01-.039 1.777 1.31 1.31 0 01-1.043.34m-17.703-14.996a1.28 1.28 0 01-.747-.162l-4.487-2.556c-.6-.34-.8-1.09-.449-1.672a1.277 1.277 0 011.719-.438l4.486 2.557c.6.34.8 1.09.449 1.671-.213.354-.58.566-.971.6"/><path fill="#DADFEF" d="M209.722 223.361c-8.13-.91-9.737-6.395-10.616-10.637-.88-4.24 3.956-5.886 6.195-3.863 2.24 2.023 6.74 4.202 9.95 4.66 3.207.457 4.142 3.487 4.142 3.487S233.073 212.77 249 232"/><path fill="#96AAD6" d="M248.743 233c-.36 0-.718-.153-.967-.45-15.05-17.971-27.84-14.318-27.967-14.278a1.256 1.256 0 01-1.57-.827c-.027-.08-.756-2.215-3.075-2.542-3.31-.467-8.024-2.65-10.51-4.869-.718-.64-1.997-.701-2.975-.138-.553.318-1.43 1.095-1.086 2.732.91 4.34 2.387 8.643 9.415 9.42.69.077 1.187.697 1.111 1.383a1.257 1.257 0 01-1.39 1.107c-9.426-1.044-10.893-8.038-11.597-11.398-.482-2.29.376-4.316 2.29-5.414 1.942-1.113 4.373-.932 5.913.445 2.097 1.87 6.387 3.858 9.182 4.251 2.603.367 3.99 2.07 4.638 3.216 3.64-.612 15.803-1.108 29.553 15.307a1.25 1.25 0 01-.965 2.055"/><path fill="#DADFEF" d="M243.36 250.373s-3.029 19.174 8.49 17.527c0 0 6.593-1.692 4.86-9.631-1.736-7.94-1.945-12.131-2.056-14.269"/><path fill="#96AAD6" d="M251.008 269c-2.29 0-4.194-.753-5.672-2.246-4.814-4.862-3.025-16.006-2.946-16.479a1.268 1.268 0 011.466-1.036 1.263 1.263 0 011.056 1.444c-.475 2.87-.996 11.038 2.254 14.317 1.211 1.222 2.846 1.685 4.996 1.407.778-.212 5.433-1.763 4.016-7.918-1.803-7.834-2.027-11.94-2.149-14.146a1.282 1.282 0 011.207-1.342c.701-.025 1.304.476 1.342 1.17.119 2.168.336 6.136 2.092 13.762 1.633 7.102-3.179 10.255-5.95 10.931-.044.01-.089.02-.134.024-.544.076-1.072.112-1.578.112"/><path fill="#DADFEF" d="M203 226.02s-5.75-.637-11.155 5.212c-5.404 5.851-3.674 11.605-3.223 15.768"/><path fill="#96AAD6" d="M187.935 248c-.653 0-1.216-.477-1.288-1.123a48.75 48.75 0 00-.22-1.602c-.587-3.952-1.39-9.366 3.876-14.78 5.927-6.09 12.276-5.494 12.539-5.468.713.076 1.227.698 1.15 1.39a1.283 1.283 0 01-1.424 1.119c-.236-.017-5.39-.434-10.38 4.694-4.404 4.527-3.762 8.861-3.195 12.685.088.586.171 1.148.232 1.685.08.69-.434 1.317-1.146 1.392-.05.005-.098.008-.144.008"/><path fill="#5C6073" d="M210.235 238.32s-.938 3.685.936 5.52c1.876 1.835 5.076 1.062 6.06.578.985-.483 3.244-3.278.337-6.082-2.909-2.805-6.447-3.404-7.333-.015"/><path fill="#FFF" d="M237.65 99.15c-3.52-.84-7.741-1.414-11.53-.83.335-.598.65-1.209 1.003-1.75.82-1.26 1.735-2.47 2.604-3.697.135-.193-.13-.43-.315-.318-1.376.839-2.507 1.809-3.626 2.983-.397.417-.835.867-1.244 1.348-.083-1.65-.32-3.32-.413-4.914-.186-3.179-.64-6.328-.822-9.503-.035-.619-.92-.63-.945-.006-.122 3.179-.384 6.313-.331 9.497.02 1.324-.01 2.751.055 4.164-1.433-.984-3.027-1.844-4.667-2.11-.494-.08-.848.466-.486.868 1.295 1.44 2.999 2.616 4.546 3.811-3.413-.262-6.908-.226-10.22.604-.33.084-.36.634-.002.701 3.102.593 6.281.834 9.439 1.115-.286.298-.546.582-.758.802-1.316 1.364-2.646 2.992-3.242 4.826-.157.487.454.737.778.454 1.374-1.202 2.52-2.631 3.936-3.8.29-.24.65-.467 1.022-.697.092.467.195.938.28 1.417.51 2.823.712 5.65.591 8.516-.013.355.523.524.674.185 1.018-2.294 1.171-4.508 1.093-7.015-.028-.88-.02-1.872-.08-2.865l.065.056c.992.842 1.998 1.962 3.197 2.483.484.208.89-.222.69-.708-.456-1.109-1.413-2.027-2.155-2.948-.24-.299-.486-.611-.739-.923 1.295-.125 2.592-.318 3.885-.397 2.526-.155 5.062-.272 7.59-.383.533-.023.68-.834.127-.966m-102.999 144c-3.52-.841-7.743-1.415-11.53-.83.334-.6.648-1.21 1.002-1.751.82-1.26 1.734-2.47 2.603-3.696.137-.194-.128-.43-.313-.318-1.376.838-2.508 1.81-3.626 2.982-.398.417-.835.869-1.244 1.348-.083-1.65-.32-3.318-.415-4.914-.184-3.177-.64-6.327-.82-9.502-.035-.62-.921-.63-.946-.006-.121 3.178-.384 6.312-.33 9.497.02 1.324-.012 2.75.054 4.164-1.433-.985-3.026-1.845-4.666-2.11-.494-.08-.848.466-.488.868 1.296 1.44 3 2.615 4.547 3.812-3.413-.263-6.908-.228-10.22.604-.33.083-.36.632-.002.7 3.102.592 6.28.835 9.44 1.115-.286.297-.546.582-.758.802-1.317 1.365-2.647 2.992-3.244 4.827-.156.486.454.735.778.453 1.376-1.202 2.522-2.63 3.938-3.8.29-.24.648-.466 1.022-.696.092.465.193.937.28 1.415.509 2.824.712 5.651.59 8.517-.014.354.523.525.674.184 1.019-2.293 1.17-4.506 1.092-7.014-.026-.88-.02-1.871-.08-2.864l.066.054c.993.844 1.997 1.963 3.198 2.483.483.21.888-.22.689-.707-.456-1.11-1.412-2.027-2.154-2.948-.24-.3-.487-.61-.74-.924 1.295-.124 2.592-.318 3.886-.396 2.526-.156 5.062-.273 7.589-.382.533-.024.679-.836.128-.968M264.71 85.823l-2.771 3.753h2.771v-3.753zm3.351 3.726c.593 0 .939.515.939 1.087 0 .558-.346 1.09-.939 1.09h-.951v1.158c0 .725-.524 1.116-1.214 1.116s-1.213-.39-1.213-1.116v-1.158h-4.344c-.663 0-1.09-.322-1.255-.753-.167-.434-.084-1.033.233-1.451l5.076-6.908c.372-.517 1.117-.74 1.738-.544.551.182.979.628.979 1.256v6.223h.951zM275 91.785c1.624 0 2.507-1.387 2.507-3.798 0-2.399-.896-3.772-2.508-3.772-1.61 0-2.506 1.373-2.506 3.772 0 2.41.896 3.798 2.506 3.798M280 87.987c0 3.868-2.102 6.013-5 6.013-2.913 0-5-2.145-5-6.013 0-3.856 2.087-5.987 5-5.987 2.898 0 5 2.13 5 5.987m6.71-2.164l-2.771 3.753h2.771v-3.753zm3.351 3.726c.593 0 .939.515.939 1.087 0 .558-.346 1.09-.939 1.09h-.951v1.158c0 .725-.524 1.116-1.214 1.116s-1.213-.39-1.213-1.116v-1.158h-4.344c-.663 0-1.09-.322-1.255-.753-.167-.434-.084-1.033.233-1.451l5.076-6.908c.372-.517 1.117-.74 1.738-.544.551.182.979.628.979 1.256v6.223h.951z"/><path fill="#5C6073" d="M211.72 251c-.527 0-1.02-.332-1.206-.862-1.63-4.666-6.256-5.535-6.452-5.57a1.294 1.294 0 01-1.044-1.492 1.278 1.278 0 011.469-1.057c.256.042 6.298 1.127 8.44 7.258A1.294 1.294 0 01211.72 251"/><path fill="#5C6073" d="M210.148 246L208 244.898c1.118-2.07 3.41-3.825 3.507-3.898l1.493 1.867c-.02.014-1.98 1.52-2.852 3.133"/><path fill="#FFF" d="M80.346 83.48c-1.325 2.549-6.625 10.927-1.855 12.665 4.772 1.74 6.047-6.266 6.696-9.477.648-3.212 3.915-12.965 12.349-15.288 0 0-3.944-2.563-1.914-6.47 0 0 .302-.415.965-.173.661.241 3.661 2.308 6.383 3.075 2.724.768 13.004 1.816 20.235 6.474 7.232 4.66 8.894 10.587 9.953 11.797 1.058 1.211 1.317 2.354 2.948 3.024 1.633.67 4.767 1.961 5.674 2.143.91.182 1.175 1.102.547 1.997-.627.896-1.81 2.489-6.114 2.345 0 0-2.088 12.281-11.327 17.01-9.238 4.728-3.507 9.59.516 7.009 4.023-2.582 6.24-6.796 8.733-9.711 2.492-2.915 10.28-14.767 15.363-10.592 5.08 4.176-4.144 12.358-6.714 14.868-2.572 2.511-16.574 14.724-24.523 29.891-8.816 16.82-18.61 42.876-15.812 61.099 2.797 18.221 8.426 20.385 1.892 26.549-6.534 6.164-14.225-9.457-15.448-14.737-1.223-5.28-2.218-18.573-8.883-17.29-6.664 1.28-4.367 10.862-2.454 18.106 2.132 8.07 6.48 16.676 17.445 30.53 9.975 12.605 10.716 17.674 5.848 21.054-5.75 3.993-13.598 1.982-25.038-21.863-11.443-23.846-7.84-42.32-9.633-46.347-1.794-4.027-2.018-5.57-4.947-6.187-2.927-.617-7.19 3.337-5.131 12.183s8.854 18.293 3.634 21.788c-5.22 3.495-13.84.578-19.995-14.933-6.155-15.509-19.18-50.012 1.488-95.849 20.668-45.836 45.82-71.188 54.946-62.466 0 0 4.878 2.677-4.454 13.106-7.582 8.47-10.358 12.715-11.373 14.67"/><path fill="#96AAD6" d="M80.555 84.256c-.146.28-.334.625-.555 1.023-1.122 2.04-3.748 6.82-2.949 8.95.16.428.458.702.97.89.849.311 1.339.122 1.635-.045 1.9-1.072 2.802-5.68 3.237-7.894l.114-.577c.102-.507 2.445-11.651 11.16-15.499-.567-.718-1.052-1.608-1.266-2.627-.381.46-.785.93-1.21 1.406-7.65 8.568-10.26 12.683-11.136 14.373zM59.813 193.571c.29 0 .58.03.862.09 3.148.664 3.901 2.432 5.151 5.361.199.466.417.976.665 1.536.605 1.362.68 3.662.794 7.144.272 8.32.728 22.243 8.776 39.057 6.5 13.582 12.373 21.149 17.459 22.492 1.902.503 3.73.12 5.588-1.176 1.395-.968 2.13-2.002 2.314-3.252.455-3.073-2.135-7.985-8.405-15.924-10.066-12.756-15.162-21.713-17.586-30.918-1.698-6.443-3.157-13.055-.756-16.876.924-1.47 2.332-2.396 4.183-2.753 1.494-.287 2.855-.013 4.058.814 3.536 2.431 4.757 9.262 5.647 14.247.215 1.2.406 2.283.606 3.146 1.02 4.414 5.719 13.685 10.028 14.988 1.171.353 2.2.06 3.24-.924 3.526-3.334 3.046-4.873 1.262-10.594-1.049-3.364-2.485-7.97-3.527-14.777-2.74-17.9 6.398-43.623 15.863-61.728 7.186-13.744 19.042-24.873 23.507-29.064.484-.455.867-.815 1.13-1.071l.614-.593c2.185-2.101 7.307-7.021 7.179-10.39-.03-.785-.359-1.41-1.032-1.964-.573-.471-1.17-.652-1.897-.573-3.393.38-7.829 6.121-10.211 9.203a54.24 54.24 0 01-1.41 1.781c-.69.806-1.366 1.732-2.081 2.712-1.804 2.466-3.846 5.262-6.887 7.217-1.7 1.094-3.846 1.218-5.46.317-1.241-.693-1.97-1.905-1.945-3.243.025-1.551 1.024-3.896 5.631-6.26 8.504-4.364 10.578-15.938 10.6-16.053.106-.625.664-1.09 1.29-1.053 3.694.11 4.5-1.08 5.003-1.799l.046-.07c-1.059-.276-3.31-1.188-5.542-2.107l-.138-.055c-1.475-.608-2.12-1.555-2.69-2.39-.21-.31-.428-.636-.715-.966-.342-.39-.64-.96-1.051-1.752-1.163-2.231-3.326-6.386-8.585-9.784-5.431-3.508-12.658-4.886-16.978-5.707-1.216-.233-2.174-.416-2.814-.597-2.06-.58-4.222-1.831-5.513-2.578-.227-.131-.427-.25-.59-.34-.793 2.423 1.457 4.013 1.736 4.2a1.27 1.27 0 01-.36 2.28c-7.124 1.967-10.561 10.2-11.382 14.278l-.111.565c-.585 2.98-1.563 7.969-4.48 9.614-1.118.63-2.413.703-3.747.218-1.198-.439-2.054-1.263-2.473-2.38-1.114-2.973 1.018-7.27 3.103-11.063.207-.377.389-.704.524-.968v-.001c1.138-2.192 4.055-6.557 11.495-14.893 5.046-5.651 5.52-8.627 5.353-9.896-.12-.905-.602-1.232-.622-1.245a2.029 2.029 0 01-.228-.172c-1.261-1.21-2.884-1.6-4.97-1.198-10.504 2.046-30.251 24.381-47.671 63.114-20.699 46.021-7.216 80.085-1.46 94.63 4.43 11.188 9.524 14.237 12.167 15.06 2.11.655 4.132.399 5.847-.752 2.516-1.69 1.209-5.6-1.245-11.838-1.096-2.784-2.227-5.662-2.899-8.556-1.7-7.325.808-10.865 1.967-12.047 1.09-1.112 2.451-1.724 3.773-1.724zM95.118 272a8.757 8.757 0 01-2.245-.298c-5.92-1.564-12.165-9.364-19.098-23.849-8.276-17.292-8.742-31.55-9.022-40.069-.096-2.953-.172-5.286-.577-6.197-.253-.572-.476-1.092-.679-1.57-1.25-2.931-1.543-3.497-3.345-3.877-.721-.148-1.583.194-2.304.93-1.802 1.84-2.292 5.465-1.308 9.698.63 2.713 1.727 5.503 2.788 8.203 2.412 6.13 4.69 11.922.298 14.869-2.336 1.569-5.184 1.946-8.008 1.068-5.308-1.652-10.198-7.527-13.768-16.548-5.876-14.843-19.634-49.604 1.502-96.602 15.94-35.443 36.296-61.992 49.498-64.56 2.825-.554 5.278.062 7.115 1.769.416.286 1.382 1.119 1.67 2.795.29 1.706-.21 3.735-1.491 6.07.266.115.608.31 1.21.66 1.188.687 3.178 1.837 4.933 2.332.533.152 1.445.325 2.6.546 4.5.856 12.03 2.292 17.877 6.068 5.823 3.76 8.187 8.302 9.457 10.741.281.539.571 1.094.713 1.257.375.43.655.842.903 1.204.489.721.786 1.156 1.559 1.474l.138.056c1.35.557 4.514 1.859 5.274 2.011.815.163 1.448.672 1.738 1.397.321.802.173 1.738-.406 2.566-.588.844-1.91 2.733-6.09 2.88-.75 3.189-3.593 12.657-11.722 16.827-3.113 1.598-4.24 3.14-4.255 4.05-.009.51.347.817.647.984.664.37 1.806.44 2.857-.234 2.644-1.701 4.458-4.182 6.211-6.583.745-1.019 1.45-1.982 2.2-2.861.346-.406.8-.991 1.334-1.684 2.796-3.619 7.475-9.671 11.931-10.173 1.412-.163 2.685.223 3.79 1.134 1.238 1.02 1.895 2.307 1.953 3.824.171 4.507-5.319 9.78-7.956 12.315l-.597.577c-.27.265-.667.637-1.169 1.109-4.378 4.11-16.008 15.027-22.995 28.39-9.28 17.75-18.251 42.877-15.605 60.169 1.015 6.618 2.42 11.12 3.442 14.405 1.823 5.84 2.736 8.771-1.94 13.193-1.697 1.603-3.672 2.122-5.71 1.506-5.946-1.797-10.826-12.776-11.765-16.842-.207-.898-.41-2.024-.631-3.27-.766-4.29-1.925-10.774-4.588-12.604-.643-.442-1.328-.571-2.144-.417-1.152.223-1.975.752-2.519 1.617-2.014 3.208-.09 10.514 1.06 14.878 2.33 8.843 7.292 17.532 17.128 29.993 6.827 8.65 9.495 13.994 8.921 17.869-.291 1.96-1.394 3.584-3.372 4.961-1.764 1.227-3.585 1.843-5.438 1.843z"/><path fill="#EDEFF7" d="M85.221 113.011c-3.548.126-23.399 7.483-30.408 28.735-7.008 21.252.584 32.86 6.412 34.537 5.827 1.679 7.433 4.66 13.549 7.193 6.113 2.531 20.113 4.796 27.27-18.5 7.156-23.294 8.138-40.756-7.763-49.706 0 0-3.447-2.455-9.06-2.259"/><path fill="#5C6073" d="M110.244 84a1.255 1.255 0 01-1.239-1.152 1.262 1.262 0 011.125-1.377l5.836-.546 1.796-2.42a1.229 1.229 0 011.743-.25c.549.423.658 1.217.244 1.776l-2.461 3.315-6.929.649a1.196 1.196 0 01-.115.005"/><path fill="#5C6073" d="M117.626 89c-.642 0-1.216-.399-1.343-.976l-1.256-5.575c-.149-.657.336-1.295 1.079-1.426.754-.13 1.465.296 1.612.953l1.255 5.576c.15.657-.335 1.294-1.078 1.425-.09.016-.18.023-.269.023"/><path fill="#FF9FA4" d="M125 77.328s-2.97 4.023-6.212 2.197C115.543 77.7 117.707 73 117.707 73s3.667.126 7.293 4.328"/><path fill="#96AAD6" d="M118.877 73.752c-.361 1.239-.703 3.403.923 4.323 1.604.907 3.258-.3 4.165-1.186-2.061-2.086-3.999-2.854-5.088-3.137M120.99 81c-.796 0-1.625-.197-2.459-.667-3.52-1.993-2.636-6.484-1.674-8.58a1.298 1.298 0 011.216-.752c.18.006 4.475.207 8.615 5.03a1.3 1.3 0 01.06 1.614C125.747 79.01 123.53 81 120.99 81"/></g></svg><svg width="76" height="46" viewBox="-1 -1 76 46" id="common-img-clinic-banner-doctor" x="437" y="160" xmlns="http://www.w3.org/2000/svg"><defs><path id="bha" d="M0 68.714h76.643V0H0z"/></defs><g fill="none" fill-rule="evenodd" transform="translate(2.643 .393)"><mask id="bhb" fill="#fff"><use xlink:href="#bha"/></mask><path fill="#FFE2CF" d="M28.663 35.502h11.009V23.05H28.663z" mask="url(#bhb)"/><path fill="#474F70" d="M27.788 49.366h12.876V34.52H27.788z" mask="url(#bhb)"/><path fill="#FFE2CF" d="M47.073 13.325c-.066 0-.13.006-.195.01-1.056-6.071-6.323-10.688-12.666-10.688-6.344 0-11.612 4.617-12.666 10.688-.066-.004-.13-.01-.197-.01a3.363 3.363 0 00-3.355 3.373 3.363 3.363 0 003.355 3.37c.264 0 .52-.034.768-.092 1.792 4.971 6.53 8.522 12.095 8.522 5.564 0 10.302-3.55 12.095-8.522.246.058.502.093.766.093a3.363 3.363 0 003.355-3.371 3.363 3.363 0 00-3.355-3.373" mask="url(#bhb)"/><path fill="#4E5263" d="M34.564.015c-.136 0-.2-.015-.436-.015C25.023 0 20.63 6.856 20.63 13.386c.653.101.64.156 1.321.156 6.224 0 11.268-3.235 12.505-9.118 1.237 5.883 7.09 9.045 13.313 9.045.077 0 .154-.005.23-.007C48 6.972 43.32.015 34.564.015" mask="url(#bhb)"/><path fill="#6C728D" d="M34.361 34.513l2.32 3.958 6.293-6.286-2.53-1.048s-3.908 2.75-6.083 3.376m0 0l-2.635 3.958-5.98-6.286 2.531-1.048s3.909 2.75 6.084 3.376" mask="url(#bhb)"/><path fill="#4E5263" d="M27.954 16.283s.091-.484.817-.526c.35-.022.703.1.889.414.103.174.108.388.13.584.022.21.04.417.05.626.009.198.02.41-.026.603-.09.38-.399.617-.934.617-.598 0-.898-.258-1.024-.549-.148-.34-.024-1.464.098-1.769m9.574 0s.091-.484.816-.526c.35-.022.703.1.89.414.103.174.107.388.13.584.022.21.04.417.05.626.009.198.018.41-.027.603-.089.38-.398.617-.933.617-.599 0-.898-.258-1.024-.549-.148-.34-.024-1.464.098-1.769" mask="url(#bhb)"/><path fill="#FF999A" d="M34.167 23.604c-2.661 0-3.557-1.92-3.595-2.002a.59.59 0 01.292-.779.585.585 0 01.773.289c.03.063.655 1.314 2.53 1.314 1.864 0 2.242-1.178 2.257-1.229a.587.587 0 01.723-.399.584.584 0 01.405.715c-.024.085-.598 2.09-3.385 2.09" mask="url(#bhb)"/><path fill="#FFF" d="M28.533 30.833l-12.388 3.775s-1.195.262-1.865 2.076c-.738 2.006-4.051 21.908-3.838 32.03h48.887s-.388-23.242-5.033-32.58c0 0-.356-1.15-.872-1.67s-8.888-3.112-13.534-3.631l-5.678 18.226-5.679-18.226z" mask="url(#bhb)"/><path fill="#EDEFF1" d="M25.882 31.537l2.782-.869 5.505 18.698-7.7-9.196.967-3.192-3.033.08z" mask="url(#bhb)"/><path fill="#EDEFF1" d="M42.428 31.194l-2.756-.531-5.504 18.703 7.787-9.195-.971-3.55 3.035.436z" mask="url(#bhb)"/></g></svg><svg width="39" height="23" viewBox="-1 -1 39 23" id="common-img-clinic-banner-text-03" x="509" y="206" xmlns="http://www.w3.org/2000/svg"><defs><path id="bia" d="M0 1.047h16.818V17.18H.001z"/><path id="bic" d="M1.116 1.047h16.56V17.18H1.117z"/></defs><g fill="none" fill-rule="evenodd"><g transform="translate(.821 1.203)"><mask id="bib" fill="#fff"><use xlink:href="#bia"/></mask><path fill="#FFF" d="M11.596 2.593c0-.876.687-1.546 1.546-1.546.86 0 1.546.67 1.546 1.546v1.804h.928c.67 0 1.202.532 1.202 1.202 0 .67-.532 1.203-1.202 1.203h-.928v2.13c0 .893-.687 1.546-1.546 1.546s-1.546-.653-1.546-1.546V2.593zm-6.82 12.25h6.099c.515 0 .927-.36.927-.878 0-.515-.412-.893-.927-.893H4.776c-.515 0-.91.378-.91.893 0 .517.395.878.91.878zm-3.968-.878c0-1.82 1.477-3.23 3.281-3.23h7.473c1.82 0 3.298 1.41 3.298 3.23 0 1.804-1.477 3.214-3.298 3.214H4.089c-1.804 0-3.281-1.41-3.281-3.214zM.79 7.042c2.079-.996 2.99-2.662 2.99-4.14V2.68c0-.859.687-1.46 1.546-1.46s1.546.601 1.546 1.46v.223c0 1.478.91 2.972 2.989 3.969.498.24.79.687.79 1.305a1.38 1.38 0 01-1.408 1.392c-.24 0-.516-.069-.705-.155-1.254-.567-2.422-1.426-3.195-2.749-.773 1.41-1.958 2.354-3.23 2.922a1.866 1.866 0 01-.704.153A1.379 1.379 0 01.001 8.348c0-.618.292-1.065.79-1.306z" mask="url(#bib)"/></g><g transform="translate(18 1.203)"><mask id="bid" fill="#fff"><use xlink:href="#bic"/></mask><path fill="#FFF" d="M12.455 2.593c0-.876.687-1.546 1.546-1.546s1.546.67 1.546 1.546v1.718h.928c.67 0 1.202.533 1.202 1.203s-.532 1.202-1.202 1.202h-.928v2.079c0 .893-.687 1.546-1.546 1.546s-1.546-.653-1.546-1.546V2.593zm-7.559 12.25h7.593v-1.735H4.896v1.735zm-1.872 2.336a1.189 1.189 0 01-1.185-1.187v-4.037c0-.652.532-1.185 1.185-1.185h11.338c.652 0 1.185.533 1.185 1.185v4.037a1.19 1.19 0 01-1.185 1.187H3.024zM1.116 2.662c0-.653.534-1.185 1.186-1.185h6.992c.653 0 1.185.532 1.185 1.185s-.532 1.185-1.185 1.185h-5.12v3.264c2.303 0 4.467-.189 6.357-.653a1.54 1.54 0 01.31-.034c.652 0 1.184.533 1.184 1.185a1.18 1.18 0 01-.893 1.134c-2.422.584-4.879.739-7.97.739h-.86a1.189 1.189 0 01-1.186-1.186V2.662z" mask="url(#bid)"/></g></g></svg><svg width="110" height="89" viewBox="-1 -1 110 89" id="common-img-nodata" x="327" y="160" xmlns="http://www.w3.org/2000/svg"><g fill="none" fill-rule="evenodd"><rect width="90" height="80" fill="#F0F2F4" rx="10"/><rect width="30" height="30" x="13" y="13" fill="#E1E4E6" rx="5"/><rect width="64" height="4" x="13" y="51" fill="#C9CDD3" rx="2"/><rect width="28" height="4" x="49" y="39" fill="#C9CDD3" rx="2"/><rect width="64" height="4" x="13" y="63" fill="#C9CDD3" rx="2"/><circle cx="90" cy="69" r="18" fill="#8D95A0"/><rect width="24" height="4" x="77.899" y="66.899" fill="#F0F2F4" rx="2" transform="rotate(45 89.9 68.9)"/><rect width="24" height="4" x="77.899" y="66.899" fill="#F0F2F4" rx="2" transform="rotate(135 89.9 68.9)"/></g></svg><svg width="289" height="132" viewBox="-1 -1 289 132" id="common-popup-img-qr" x="327" xmlns="http://www.w3.org/2000/svg"><defs><path id="bkA" d="M1.797.177C.73.24.595.948.595.948.416 1.397.234 3.041.451 3.541c.185.425.626.803 1.509.803.787 0 1.244-.346 1.374-.904.066-.284.051-.593.038-.882a14.102 14.102 0 00-.075-.917c-.031-.289-.038-.601-.19-.856C2.854.357 2.388.173 1.909.173c-.037 0-.074.002-.112.004z"/><path id="bka" d="M0 0h287v130H0z"/><path id="bke" d="M1.836 4.083a3.05 3.05 0 000 4.299 3.05 3.05 0 004.299 0L9.896 4.62 5.597.321 1.836 4.083z"/><path id="bkg" d="M4.359 1.56L.597 5.321 4.896 9.62l3.761-3.761a3.05 3.05 0 000-4.299A3.035 3.035 0 006.508.674c-.78 0-1.558.296-2.149.886z"/><path id="bki" d="M4.809.794L3.781 3.549c-.468.109-1.712.269-2.284-.947a.415.415 0 00-.749.353c.335.712.845 1.113 1.388 1.316.63.235 1.296.201 1.792.087.335.44.852.931 1.49 1.171.555.207 1.193.219 1.86-.172a.414.414 0 00-.419-.714c-1.058.622-1.982-.397-2.3-.814l1.026-2.746a.412.412 0 00-.243-.531.414.414 0 00-.533.242z"/><path id="bkk" d="M.368 1.598c-.35.936.729 2.073 1.107 2.215.552.207 1.936-.01 2.287-.947.351-.937-.248-1.655-1.185-2.005a2.55 2.55 0 00-.88-.173c-.59 0-1.092.273-1.329.91z"/><path id="bkm" d="M.581 1.015a1.241 1.241 0 102.327.868A1.24 1.24 0 002.18.286a1.244 1.244 0 00-1.599.729z"/><path id="bko" d="M.783.825a1.242 1.242 0 002.326.869A1.241 1.241 0 002.38.096 1.242 1.242 0 00.783.825z"/><path id="bkq" d="M6.163 16.63c-.097-.006-.191-.014-.289-.014a4.94 4.94 0 00-4.94 4.938 4.941 4.941 0 004.94 4.94c.389 0 .765-.05 1.128-.135 2.639 7.281 9.614 12.483 17.805 12.483 8.191 0 15.167-5.202 17.805-12.483.364.085.739.135 1.129.135a4.938 4.938 0 100-9.878c-.097 0-.192.008-.289.014C41.899 7.736 34.145.974 24.807.974S7.716 7.736 6.163 16.63z"/><path id="bks" d="M.813 19.705c.962.15.944.228 1.947.228 9.161 0 16.586-4.737 18.408-13.356 1.821 8.619 10.435 13.249 19.596 13.249.115 0 .227-.007.341-.009 0-9.509-6.893-19.698-19.779-19.698-.199 0-.295-.022-.641-.022C7.282.097.813 10.139.813 19.705z"/><path id="bku" d="M.027 5.653l3.416 5.797 9.264-9.207L8.982.706S3.229 4.736.027 5.653z"/><path id="bkw" d="M.348 2.243l8.8 9.207 3.879-5.797C9.825 4.736 4.072.706 4.072.706L.348 2.243z"/><path id="bky" d="M7.461 2.133C6.671 1.206 5.462.156 4.201.156A3.946 3.946 0 00.217 4.14c0 2.739 2.463 4.507 6.193 7.89l1.051.957 1.05-.949c3.731-3.391 6.195-5.159 6.195-7.898A3.947 3.947 0 0010.721.156c-1.261 0-2.47 1.05-3.26 1.977z"/><path id="bkc" d="M.555 37.751h36.17s8.225-26.847 4.639-28.534c0 0-1.686-1.055-4.112 2.002 0 0-7.171-4.112-12.338-5.483 0 0 1.055-3.817-.843-4.651a1.082 1.082 0 00-.439-.089C21.399.995 15.784 6.968.555 37.751z"/><path id="bkC" d="M1.891.177C.824.24.689.948.689.948.51 1.397.328 3.041.544 3.541c.185.425.627.803 1.51.803.787 0 1.243-.346 1.373-.904.067-.284.052-.593.038-.882a13.433 13.433 0 00-.075-.917c-.031-.289-.037-.601-.189-.856-.254-.428-.72-.612-1.198-.612-.037 0-.074.002-.112.004z"/><path id="bkE" d="M.879.599A.864.864 0 00.45 1.741c.055.12 1.375 2.931 5.293 2.931 4.101 0 4.947-2.936 4.981-3.061a.856.856 0 00-.595-1.048.868.868 0 00-1.065.584c-.022.074-.58 1.801-3.321 1.801-2.761 0-3.681-1.834-3.726-1.927a.862.862 0 00-.782-.499.869.869 0 00-.356.077z"/><path id="bkG" d="M35.807 26.959L27.449.262 9.212 5.794s-1.758.38-2.743 3.038C5.38 11.771.504 40.924.816 55.751h71.967s-.572-34.046-7.411-47.724c0 0-.522-1.687-1.283-2.446-.759-.76-13.084-4.56-19.923-5.319l-8.359 26.697z"/><path id="bkI" d="M17.659.178c-.543 0-1.029.28-1.3.751l-2.125 3.68-3.678-2.123a1.48 1.48 0 00-1.502-.001 1.486 1.486 0 00-.752 1.302v4.247H4.054a1.49 1.49 0 00-1.302.75 1.49 1.49 0 000 1.505l2.123 3.678-3.678 2.124a1.488 1.488 0 00-.751 1.302c0 .544.281 1.03.751 1.3l3.678 2.125-2.123 3.679a1.488 1.488 0 000 1.504c.272.469.759.75 1.302.75h27.212a1.49 1.49 0 001.302-.75 1.493 1.493 0 000-1.504l-2.124-3.679 3.679-2.125c.469-.27.75-.756.751-1.3a1.49 1.49 0 00-.751-1.302l-3.679-2.124 2.124-3.678a1.495 1.495 0 000-1.505 1.49 1.49 0 00-1.302-.75h-4.247V3.787c0-.544-.282-1.031-.752-1.302a1.482 1.482 0 00-1.503.001l-3.679 2.123-2.124-3.68a1.485 1.485 0 00-1.3-.751h-.002z"/><path id="bkK" d="M4.44 1.428v3.196c-.434.289-1.639.926-2.683-.095a.45.45 0 10-.631.644c.613.597 1.285.811 1.914.811.733 0 1.396-.287 1.858-.592.509.32 1.222.626 1.962.626.644 0 1.299-.232 1.828-.883a.452.452 0 00-.064-.634.453.453 0 00-.634.066c-.84 1.036-2.168.351-2.65.046V1.428a.449.449 0 00-.451-.449c-.248 0-.449.2-.449.449z"/><path id="bkM" d="M.118 1.79c0 .959 1.349 1.617 1.735 1.617.566 0 1.736-.658 1.736-1.617 0-.957-.777-1.4-1.736-1.4C.896.39.118.833.118 1.79z"/><path id="bkO" d="M.924 1.87a1.35 1.35 0 002.699 0 1.349 1.349 0 10-2.699 0z"/><path id="bkQ" d="M.559 1.87a1.35 1.35 0 002.699 0 1.35 1.35 0 10-2.699 0z"/><path id="bkS" d="M.803.201v9.551s0 2.939 5.878 2.939c5.877 0 5.877-3.674 5.877-3.674V.201H.803z"/><path id="bkU" d="M.54.262a.195.195 0 00-.195.194v6.959c0 .107.087.194.195.194h1.816a.194.194 0 00.194-.194V.456a.195.195 0 00-.194-.194H.54z"/><path id="bkW" d="M2.546 1.295L.369 9.38l4.465-.118-1.425 4.677L14.743 27.41 6.641.02z"/><path id="bkY" d="M.743 27.41l11.462-13.471-1.429-5.198 4.47.639L12.903.792 8.846.012z"/></defs><g fill="none" fill-rule="evenodd"><mask id="bkb" fill="#fff"><use xlink:href="#bka"/></mask><path fill="#FFF2EE" d="M37.368 188.68C21.69 187.63 8.522 174.783 3.51 159.891c-5.01-14.893-4.378-30.423.124-45.476 2.03-6.795 5.683-14.652 10.358-19.983 7.266-8.283 18.763-13.856 30.196-13.593 11.432.263 22.52 5.48 30.622 13.55 5.203-17.837 19.935-32.144 37.312-38.72 17.378-6.577 37.032-5.865 54.662-.002 6.729 2.24 13.31 5.26 18.683 9.887 7.31 6.297 11.897 15.104 16.309 23.686a100.444 100.444 0 0135.187-5.772c8.162.133 16.462 1.316 23.782 4.93 12.959 6.397 21.383 19.871 24.633 33.953 3.25 14.082 1.939 28.812-.4 43.075L37.368 188.68z" mask="url(#bkb)"/><path fill="#FFF" d="M127 0h130v130H127z"/><path fill="#FF5A5C" d="M127 130h129.941V0H127v130zm3.761-3.765H253.18V3.705H130.76v122.53z"/><path fill="#000" d="M141.869 33.412h18.571V14.824h-18.57v18.588zm-3.703 3.706h25.977v-26h-25.977v26zm33.382-22.294h11.166v-3.706h-11.166zm22.274 3.706v-3.706h-3.703v-3.706h-3.702v7.411h3.702v3.706h3.703V26h3.702v-7.47zm0-3.706h3.702v-3.706h-3.702zm22.274 3.706h-3.703v-7.412h-7.464v7.411h3.762v3.706h3.702V26h3.703zm7.404 14.882h18.572V14.824h-18.571v18.588zm-3.702 3.706h25.977v-26h-25.977v26zM167.845 18.53h3.703v-3.706h-3.703z"/><path fill="#000" d="M145.571 29.706h11.167V18.529H145.57zM175.25 18.53h-3.702v3.705h-3.703v7.47h7.405v7.413h3.703V22.235h-3.703zm3.703 3.705h3.761V18.53h-3.761zm48.25 7.471h11.167V18.529h-11.167zM182.714 26h7.405v-3.765h-7.405zm18.513-3.765V26h-3.703v3.706h3.703v3.706h3.702V22.235zm7.463 7.471h3.703V26h-3.702zm-18.57 3.706v7.412h3.702V29.706h-11.108v11.118h3.703v-7.412zm25.976 7.412V29.706h-3.703v11.118h-3.702v7.411h7.405V44.53h7.405v-3.705z"/><path fill="#000" d="M190.12 52h3.702v-3.765h-3.703V52zm-29.68-3.765V52h11.108v7.412h11.166v7.412h3.703v3.705h7.405v-3.705h-3.703v-7.412h-3.702v-3.706h3.702v3.706h3.703v-3.706h3.702V52h3.703v3.706h7.464V52h-3.762v-3.765h-7.405V44.53h-7.405v-3.705h-3.702v7.411h-7.464V52h3.761v3.706h-3.761V52h-3.703v-3.765h3.703v-7.411h-3.703v3.705h-3.702V33.412h-3.703v11.117h-3.702v3.706h-3.703zm37.084-11.117h3.703v-3.706h-3.703zm7.406 3.706h3.76v-7.412h-3.76zm-63.061 3.706h3.702v-3.706h-3.702z"/><path fill="#000" d="M149.274 44.53h14.869v-3.706h-14.869zm48.25 0h3.703v-3.706h-3.703zm33.441 11.176h3.702V52h3.703v-3.765h3.702v-7.411h-3.702v3.705h-3.703v-3.705h-7.464v3.705h-3.702v3.706h7.464zm-92.799 0h3.703V44.529h-3.703zm7.405-7.471h3.703V44.53h-3.703zM149.274 52h3.702v-3.765h-3.702zm70.524 0h3.703v-3.765h-3.703zm-74.227 3.706h3.703V52h-3.703zm70.525 3.706h3.702v3.706h3.703v-3.706h3.702v-3.706h-7.405V52h-7.405v3.706h3.703zm25.976-3.706h3.703V52h-3.703z"/><path fill="#000" d="M152.976 59.412h-7.405v-3.706h-3.702v3.706h-3.703v7.412h3.703v-3.706h7.405v3.706h3.702zm0 0h3.762v-3.706h-3.762zm7.464 7.412h3.703v3.705h3.702v-3.705h11.108v-3.706h-11.108v-7.412h-7.405v3.706h3.703v3.706h-3.703v-3.706h-3.702v7.412h-3.762v3.705h7.464zm48.25-7.412h3.703v-3.706h-3.702zm29.68 0h3.702v-3.706h-3.702z"/><path fill="#000" d="M216.096 100.235h11.107V89.118h-11.107v11.117zm-7.405-14.823h-7.464v-3.706h3.702V78h3.762v7.412zm18.512-3.706v3.706h-3.702v-3.706h-7.405v-7.47h-3.703V63.117h-3.702v-3.706h-7.464v3.706h3.702v3.706h3.762v3.705h-7.464V78h-3.703v3.706h-3.702v3.706h3.702v3.706h3.703v3.706h7.464v-3.706h3.702v3.706h-3.702v3.705h3.702v3.706h-3.702V104h3.702v7.412h3.703v3.706h3.702V104h3.703v3.706h3.702V104h3.762v-3.765h3.702V96.53h-3.702v-3.705h3.702v3.705h3.703v-3.705h3.702v-3.706h-3.702v-3.706h3.702v-3.706h-7.405V78h-3.702v3.706h-3.762zm0-18.588h3.762v-3.706h-3.762zm7.464 0h3.703v-3.706h-3.703zm7.405 3.706h3.703v-7.412h-3.703z"/><path fill="#000" d="M197.524 66.824h3.703v-3.706h-3.703zm37.143 7.411V70.53h3.703v-3.705h-3.703v-3.706h-3.702v11.117zm-66.822 7.471h-3.702v3.706h-7.405v-3.706h-7.464v3.706h-3.703v-3.706h3.703V78h3.702v-7.47h-3.702v-3.707h-3.703v3.706h-3.702v3.706h-3.703v14.883h29.68zm11.108-11.176h3.761v-3.706h-3.761zm40.845 0h3.703v-3.706h-7.405v7.411h3.702zm-59.358 3.705h3.703V70.53h-3.703zm11.108 0h3.702v7.47h3.703V70.53h-7.405zm22.274 0h3.702V70.53h-3.702zm29.678 0h3.703V70.53h-3.702z"/><path fill="#000" d="M160.44 78v-3.765h-3.702v7.47h7.405V78zm11.108-3.765h-7.405V78h3.702v3.706h3.703zM186.417 78h3.702v-3.765h-3.702zm40.786 0h3.762v-3.765h-3.762zm-44.489 3.706h3.703V78h-3.703zm7.406 0h3.702V78h-3.703zm51.952 0h3.703V78h-3.703z"/><path fill="#000" d="M186.417 89.118v-3.706h-3.703v-3.706h-3.761v7.412h3.761v3.705h-3.761v7.412h-3.703v7.47h3.703V104h3.761v14.823h3.703v-26h3.702v-3.705zm3.703 0h3.702v-3.706h-3.703zm-22.275 3.706h3.703v-3.706h-3.703z"/><path fill="#000" d="M175.25 92.824h3.703v-3.706h-3.703zm18.572-.001h-3.703v3.706h3.703v3.706h3.702V89.118h-3.702zm-51.953 22.295h18.571V96.529h-18.57v18.589zm-3.703 3.706h25.977v-26h-25.977v26zm37.084-18.589v-7.412h-3.702v3.706h-3.703v11.177h3.703v-7.47zm44.548-3.705h3.703v-3.706h-3.703zm-14.868 3.705h3.76V96.53h-3.76zm22.273 7.471v7.412h-7.405v3.705h11.167v-3.705h7.405v-3.706h3.702v3.706h3.703v-7.412h-3.703V104h3.703v-7.47h-7.405v11.176z"/><path fill="#000" d="M145.571 111.412h11.167v-11.177H145.57zM190.12 104h3.702v-3.765h-3.703zm18.57 3.706V104h-3.76v-3.765h-3.703v11.177h3.702v-3.706zm-37.142 3.706h3.702v-3.706h-3.702zm22.274 0h3.702v-3.706h-3.702zm-25.977 3.706h3.703v-3.706h-3.703zm29.679 0h3.703v-3.706h-3.703z"/><path fill="#000" d="M204.93 115.118h7.463v-3.706h-7.464zm-33.382 3.706h7.405v-3.706h-7.405zm22.274 0h3.702v-3.706h-3.702zm18.571 0h3.703v-3.706h-3.703z"/><g transform="translate(93 92.293)"><mask id="bkd" fill="#fff"><use xlink:href="#bkc"/></mask><path fill="#FCE599" d="M-1.761 40.068h46.347V-1.321H-1.761z" mask="url(#bkd)"/></g><path fill="#FDE0CE" d="M64.641 81.393h16.204V63.156H64.641z"/><path fill="#485070" d="M63.352 101.703h18.954V79.955H63.352z"/><path fill="#EDEFF7" d="M118.746 40.326c-7.974 0-14.438 6.464-14.438 14.438 0 .99.101 1.958.292 2.894l-3.557 4.472 5.857.875c2.61 3.742 6.938 6.197 11.846 6.197 7.974 0 14.438-6.464 14.438-14.438s-6.464-14.438-14.438-14.438M36.99 9.027c7.765 1.811 12.591 9.575 10.781 17.34a14.442 14.442 0 01-.94 2.751l2.447 5.164-5.902-.479c-3.39 3.053-8.164 4.46-12.945 3.345-7.765-1.81-12.592-9.575-10.78-17.339 1.81-7.766 9.574-12.593 17.338-10.782"/><path fill="#FEFEFE" d="M116.597 52.615l-3.76 3.76a3.05 3.05 0 000 4.3 3.051 3.051 0 004.298 0l3.76-3.762-4.298-4.298z"/><g transform="translate(111 52.293)"><mask id="bkf" fill="#fff"><use xlink:href="#bke"/></mask><path fill="#FEFEFE" d="M-124 280H49.753V-96.233H-124z" mask="url(#bkf)"/><path fill="#FEFEFE" d="M-1.367 11.585h13.58V-1.994h-13.58z" mask="url(#bkf)"/></g><path fill="#EF4E52" d="M124.657 53.152a3.05 3.05 0 000-4.3 3.05 3.05 0 00-4.298 0l-3.762 3.763 4.299 4.298 3.76-3.761z"/><g transform="translate(116 47.293)"><mask id="bkh" fill="#fff"><use xlink:href="#bkg"/></mask><path fill="#EF4E52" d="M-1.72 11.937h13.58v-13.58H-1.72z" mask="url(#bkh)"/></g><g transform="translate(114 108.293)"><mask id="bkj" fill="#fff"><use xlink:href="#bki"/></mask><path fill="#3E3F44" d="M-1.608 7.988H9.799v-9.78H-1.608z" mask="url(#bkj)"/></g><g transform="translate(117 107.293)"><mask id="bkl" fill="#fff"><use xlink:href="#bkk"/></mask><path fill="#3E3F44" d="M-2.018 6.202h8.199v-7.831h-8.199z" mask="url(#bkl)"/></g><g transform="translate(113 104.293)"><mask id="bkn" fill="#fff"><use xlink:href="#bkm"/></mask><path fill="#3E3F44" d="M-1.814 5.007h7.118v-7.118h-7.118z" mask="url(#bkn)"/></g><g transform="translate(123 108.293)"><mask id="bkp" fill="#fff"><use xlink:href="#bko"/></mask><path fill="#3E3F44" d="M-1.613 4.818h7.118v-7.117h-7.118z" mask="url(#bkp)"/></g><g transform="translate(48 32.293)"><mask id="bkr" fill="#fff"><use xlink:href="#bkq"/></mask><path fill="#FDE0CE" d="M-1.383 41.159h52.379V-1.342H-1.383z" mask="url(#bkr)"/></g><g transform="translate(52 29.293)"><mask id="bkt" fill="#fff"><use xlink:href="#bks"/></mask><path fill="#4E5263" d="M-1.503 22.251h44.925V-2.22H-1.503z" mask="url(#bkt)"/></g><g transform="translate(73 74.293)"><mask id="bkv" fill="#fff"><use xlink:href="#bku"/></mask><path fill="#6C728D" d="M-2.29 13.766h17.313V-1.61H-2.29z" mask="url(#bkv)"/></g><g transform="translate(60 74.293)"><mask id="bkx" fill="#fff"><use xlink:href="#bkw"/></mask><path fill="#6C728D" d="M-1.969 13.766h17.313V-1.61H-1.969z" mask="url(#bkx)"/></g><g transform="translate(26 17.293)"><mask id="bkz" fill="#fff"><use xlink:href="#bky"/></mask><path fill="#EF4E52" d="M-2.1 15.303h19.122V-2.161H-2.1z" mask="url(#bkz)"/></g><g transform="translate(63 52.293)"><mask id="bkB" fill="#fff"><use xlink:href="#bkA"/></mask><path fill="#4E5263" d="M-1.964 6.66H5.7v-8.804h-7.664z" mask="url(#bkB)"/></g><g transform="translate(77 52.293)"><mask id="bkD" fill="#fff"><use xlink:href="#bkC"/></mask><path fill="#4E5263" d="M-1.871 6.66h7.665v-8.804h-7.665z" mask="url(#bkD)"/></g><g transform="translate(67 59.293)"><mask id="bkF" fill="#fff"><use xlink:href="#bkE"/></mask><path fill="#F4969A" d="M-1.944 6.989h15.015v-8.783H-1.944z" mask="url(#bkF)"/></g><g transform="translate(37 74.293)"><mask id="bkH" fill="#fff"><use xlink:href="#bkG"/></mask><path fill="#FEFEFE" d="M-1.515 58.068H75.1V-2.055H-1.515z" mask="url(#bkH)"/></g><g transform="translate(22 103.293)"><mask id="bkJ" fill="#fff"><use xlink:href="#bkI"/></mask><path fill="#D7CCC8" d="M-1.871 29.068h39.062V-2.139H-1.871z" mask="url(#bkJ)"/></g><g transform="translate(35 114.293)"><mask id="bkL" fill="#fff"><use xlink:href="#bkK"/></mask><path fill="#3E3F44" d="M-1.325 8.334h12.431v-9.673H-1.325z" mask="url(#bkL)"/></g><g transform="translate(38 114.293)"><mask id="bkN" fill="#fff"><use xlink:href="#bkM"/></mask><path fill="#3E3F44" d="M-2.198 5.724h8.104v-7.65h-8.104z" mask="url(#bkN)"/></g><g transform="translate(32 113.293)"><mask id="bkP" fill="#fff"><use xlink:href="#bkO"/></mask><path fill="#3E3F44" d="M-1.393 5.538H5.94v-7.333h-7.333z" mask="url(#bkP)"/></g><g transform="translate(43 113.293)"><mask id="bkR" fill="#fff"><use xlink:href="#bkQ"/></mask><path fill="#3E3F44" d="M-1.758 5.538h7.333v-7.333h-7.333z" mask="url(#bkR)"/></g><g transform="translate(83 98.293)"><mask id="bkT" fill="#fff"><use xlink:href="#bkS"/></mask><path fill="#ECEEF0" d="M-1.514 15.008h16.389V-2.116H-1.514z" mask="url(#bkT)"/></g><g transform="translate(90 95.293)"><mask id="bkV" fill="#fff"><use xlink:href="#bkU"/></mask><path fill="#4E5263" d="M-1.971 9.926h6.838v-11.98h-6.838z" mask="url(#bkV)"/></g><g transform="translate(58 74.293)"><mask id="bkX" fill="#fff"><use xlink:href="#bkW"/></mask><path fill="#ECEEF0" d="M-1.947 29.726H17.06V-2.296H-1.947z" mask="url(#bkX)"/></g><g transform="translate(72 74.293)"><mask id="bkZ" fill="#fff"><use xlink:href="#bkY"/></mask><path fill="#ECEEF0" d="M-1.574 29.726h19.136v-32.03H-1.574z" mask="url(#bkZ)"/></g></g></svg><svg width="38" height="43" viewBox="-1 -1 38 43" id="common-thumb-ic-new" x="437" y="206" xmlns="http://www.w3.org/2000/svg"><defs><filter id="bla" width="121.9%" height="118.9%" x="-7.8%" y="-6.8%" filterUnits="objectBoundingBox"><feOffset dx="1" dy="1" in="SourceAlpha" result="shadowOffsetOuter1"/><feGaussianBlur in="shadowOffsetOuter1" result="shadowBlurOuter1" stdDeviation="1"/><feColorMatrix in="shadowBlurOuter1" values="0 0 0 0 0 0 0 0 0 0 0 0 0 0 0 0 0 0 0.12 0"/></filter><path id="blb" d="M1 36.58c0 .968.95 1.653 1.872 1.346l13.679-5.029a1.44 1.44 0 01.899 0l13.678 5.03A1.422 1.422 0 0033 36.58V.998H1V36.58z"/></defs><g fill="none" fill-rule="evenodd"><use fill="#000" filter="url(#bla)" xlink:href="#blb"/><use fill="#FF5A5C" xlink:href="#blb"/></g></svg><svg width="22" height="22" viewBox="-1 -1 22 22" id="life-ic-bookmark" x="349" y="303" xmlns="http://www.w3.org/2000/svg"><g fill="none" fill-rule="evenodd"><circle cx="10" cy="10" r="10" fill="#88A6FF"/><path fill="#FFF" d="M13.438 6.25H6.561c-.172 0-.312.15-.312.337v8.076c0 .13.07.249.179.305.108.055.238.04.331-.044L10 12.069l3.24 2.855a.295.295 0 00.331.044.34.34 0 00.179-.305V6.587c0-.186-.14-.337-.313-.337"/></g></svg><svg width="22" height="22" viewBox="-1 -1 22 22" id="life-ic-like" x="327" y="303" xmlns="http://www.w3.org/2000/svg"><g fill="none" fill-rule="evenodd"><circle cx="10" cy="10" r="10" fill="#FF5A5C"/><path fill="#FFF" d="M13.93 6.683c-.969-.705-2.324-.534-3.221.407l-.61.64a.135.135 0 01-.197 0l-.61-.64c-.898-.941-2.253-1.112-3.221-.407A2.628 2.628 0 005.01 8.597c-.065.77.195 1.525.693 2.048.047.059 1.188 1.466 4.034 4.247v.001a.372.372 0 00.528-.005c2.721-2.724 4.012-4.22 4.014-4.223a2.675 2.675 0 00.711-2.068 2.628 2.628 0 00-1.06-1.914"/></g></svg><svg width="22" height="22" viewBox="-1 -1 22 22" id="life-ic-view" x="578" y="206" xmlns="http://www.w3.org/2000/svg"><g fill="none" fill-rule="evenodd"><path fill="#475377" d="M20 10c0 5.523-4.477 10-10 10-5.522 0-10-4.477-10-10C0 4.478 4.478 0 10 0c5.523 0 10 4.478 10 10"/><path fill="#FFF" d="M16.25 10s-2.273 4.375-6.25 4.375C6.022 14.375 3.75 10 3.75 10S6.022 5.625 10 5.625c3.977 0 6.25 4.375 6.25 4.375"/><path fill="#475377" d="M12.5 10c0 1.382-1.118 2.5-2.5 2.5A2.499 2.499 0 017.5 10c0-1.382 1.118-2.5 2.5-2.5s2.5 1.118 2.5 2.5"/></g></svg><svg width="52" height="52" viewBox="-1 -1 52 52" id="login-btn-facebook" x="485" y="249" xmlns="http://www.w3.org/2000/svg"><g fill="none" fill-rule="evenodd"><path fill="#3C5A9A" d="M25 0c13.807 0 25 11.193 25 25S38.807 50 25 50 0 38.807 0 25 11.193 0 25 0"/><path fill="#FFF" d="M30.913 11.667H26.92c-2.372 0-5.01.997-5.01 4.434.012 1.197 0 2.344 0 3.635h-2.742V24.1h2.827v12.566h5.197V24.018h3.43l.31-4.295h-3.83s.01-1.91 0-2.465c0-1.357 1.413-1.28 1.498-1.28.673 0 1.981.002 2.316 0v-4.311h-.002z"/></g></svg><svg width="54" height="54" viewBox="-1 -1 54 54" id="login-btn-google" x="327" y="249" xmlns="http://www.w3.org/2000/svg"><defs><path id="bqa" d="M0 14.167c0 7.856 6.31 14.166 14.167 14.166 7.083 0 13.522-5.151 13.522-14.166 0-.837-.128-1.74-.322-2.576h-13.2v5.473h7.598c-.708 3.478-3.67 5.474-7.598 5.474a8.355 8.355 0 01-8.371-8.371 8.355 8.355 0 018.37-8.372c1.997 0 3.8.71 5.216 1.867l4.122-4.12C20.992 1.352 17.772 0 14.167 0A14.126 14.126 0 000 14.167z"/><path id="bqc" d="M0 14.167c0 7.856 6.31 14.166 14.167 14.166 7.083 0 13.522-5.151 13.522-14.166 0-.837-.128-1.74-.322-2.576h-13.2v5.473h7.598c-.708 3.478-3.67 5.474-7.598 5.474a8.355 8.355 0 01-8.371-8.371 8.355 8.355 0 018.37-8.372c1.997 0 3.8.71 5.216 1.867l4.122-4.12C20.992 1.352 17.772 0 14.167 0A14.126 14.126 0 000 14.167z"/><path id="bqe" d="M0 14.167c0 7.856 6.31 14.166 14.167 14.166 7.083 0 13.522-5.151 13.522-14.166 0-.837-.128-1.74-.322-2.576h-13.2v5.473h7.598c-.708 3.478-3.67 5.474-7.598 5.474a8.355 8.355 0 01-8.371-8.371 8.355 8.355 0 018.37-8.372c1.997 0 3.8.71 5.216 1.867l4.122-4.12C20.992 1.352 17.772 0 14.167 0A14.126 14.126 0 000 14.167z"/><path id="bqg" d="M0 14.167c0 7.856 6.31 14.166 14.167 14.166 7.083 0 13.522-5.151 13.522-14.166 0-.837-.128-1.74-.322-2.576h-13.2v5.473h7.598c-.708 3.478-3.67 5.474-7.598 5.474a8.355 8.355 0 01-8.371-8.371 8.355 8.355 0 018.37-8.372c1.997 0 3.8.71 5.216 1.867l4.122-4.12C20.992 1.352 17.772 0 14.167 0A14.126 14.126 0 000 14.167z"/></defs><g fill="none" fill-rule="evenodd"><path fill="#FFF" stroke="#E1E4E6" stroke-width=".5" d="M26 1c13.807 0 25 11.193 25 25S39.807 51 26 51 1 39.807 1 26 12.193 1 26 1"/><g transform="translate(11.833 11.833)"><mask id="bqb" fill="#fff"><use xlink:href="#bqa"/></mask><path fill="#FBBC05" d="M-1.288 22.538V5.795L9.66 14.167z" mask="url(#bqb)"/></g><g transform="translate(11.833 11.833)"><mask id="bqd" fill="#fff"><use xlink:href="#bqc"/></mask><path fill="#EA4335" d="M-1.288 5.795L9.66 14.166l4.507-3.927 15.455-2.512v-9.015h-30.91z" mask="url(#bqd)"/></g><g transform="translate(11.833 11.833)"><mask id="bqf" fill="#fff"><use xlink:href="#bqe"/></mask><path fill="#34A853" d="M-1.288 22.538l19.319-14.81 5.086.643 6.504-9.659v30.91H-1.288z" mask="url(#bqf)"/></g><g transform="translate(11.833 11.833)"><mask id="bqh" fill="#fff"><use xlink:href="#bqg"/></mask><path fill="#4285F4" d="M29.621 29.621L9.66 14.167l-2.575-1.932 22.537-6.44z" mask="url(#bqh)"/></g></g></svg><svg width="52" height="52" viewBox="-1 -1 52 52" id="login-btn-kakao" x="381" y="249" xmlns="http://www.w3.org/2000/svg"><g fill="none" fill-rule="evenodd"><path fill="#FFDE00" d="M25 0c13.807 0 25 11.193 25 25S38.807 50 25 50 0 38.807 0 25 11.193 0 25 0"/><path fill="#3C1E1E" d="M25 12.5c-7.363 0-13.333 4.707-13.333 10.512 0 3.755 2.495 7.048 6.25 8.908-.205.704-1.313 4.532-1.357 4.832 0 0-.027.226.12.312.146.086.317.02.317.02.42-.059 4.866-3.181 5.635-3.724.769.11 1.56.166 2.368.166 7.363 0 13.333-4.707 13.333-10.514 0-5.805-5.97-10.512-13.333-10.512"/></g></svg><svg width="52" height="52" viewBox="-1 -1 52 52" id="login-btn-naver" x="433" y="249" xmlns="http://www.w3.org/2000/svg"><g fill="none" fill-rule="evenodd"><path fill="#1EC800" d="M25 0c13.807 0 25 11.193 25 25S38.807 50 25 50 0 38.807 0 25 11.193 0 25 0"/><path fill="#FFF" d="M28.178 15.838v9.244l-6.334-9.244H15v18.324h6.823v-9.245l6.333 9.245H35V15.838z"/></g></svg><svg width="34" height="34" viewBox="-1 -1 34 34" id="pagination-btn-right-disabled" x="537" y="249" xmlns="http://www.w3.org/2000/svg"><g fill="none" fill-rule="evenodd" stroke="#C9CDD3"><circle cx="16" cy="16" r="15.75" fill="#FFF" stroke-width=".5"/><path d="M14 11l5 5-5 5"/></g></svg><svg width="34" height="34" viewBox="-1 -1 34 34" id="patination-btn-left-normal" x="136" y="327" xmlns="http://www.w3.org/2000/svg"><g fill="none" fill-rule="evenodd"><circle cx="16" cy="16" r="15.75" fill="#FFF" stroke="#C9CDD3" stroke-width=".5"/><path stroke="#4E5263" d="M18 21l-5-5 5-5"/></g></svg><svg width="46" height="46" viewBox="-1 -1 46 46" id="swipe-btn-left" x="513" y="160" xmlns="http://www.w3.org/2000/svg"><defs><filter id="bva" width="117.5%" height="117.5%" x="-6.2%" y="-6.2%" filterUnits="objectBoundingBox"><feOffset dx="1" dy="1" in="SourceAlpha" result="shadowOffsetOuter1"/><feGaussianBlur in="shadowOffsetOuter1" result="shadowBlurOuter1" stdDeviation="1"/><feColorMatrix in="shadowBlurOuter1" values="0 0 0 0 0 0 0 0 0 0 0 0 0 0 0 0 0 0 0.12 0"/></filter><path id="bvb" d="M41 21c0 11.046-8.954 20-20 20S1 32.046 1 21 9.954 1 21 1s20 8.954 20 20"/></defs><g fill="none" fill-rule="evenodd"><use fill="#000" filter="url(#bva)" xlink:href="#bvb"/><use fill="#FEFEFE" xlink:href="#bvb"/><path stroke="#8D95A0" stroke-width="2" d="M25 29l-8-8 8-8"/></g></svg><svg width="46" height="46" viewBox="-1 -1 46 46" id="swipe-btn-right" x="559" y="160" xmlns="http://www.w3.org/2000/svg"><defs><filter id="bwa" width="117.5%" height="117.5%" x="-6.2%" y="-6.2%" filterUnits="objectBoundingBox"><feOffset dx="1" dy="1" in="SourceAlpha" result="shadowOffsetOuter1"/><feGaussianBlur in="shadowOffsetOuter1" result="shadowBlurOuter1" stdDeviation="1"/><feColorMatrix in="shadowBlurOuter1" values="0 0 0 0 0 0 0 0 0 0 0 0 0 0 0 0 0 0 0.12 0"/></filter><path id="bwb" d="M41 21c0 11.046-8.954 20-20 20S1 32.046 1 21 9.954 1 21 1s20 8.954 20 20"/></defs><g fill="none" fill-rule="evenodd"><use fill="#000" filter="url(#bwa)" xlink:href="#bwb"/><use fill="#FEFEFE" xlink:href="#bwb"/><path stroke="#8D95A0" stroke-width="2" d="M17 13l8 8-8 8"/></g></svg><svg width="34" height="39" viewBox="-1 -1 34 39" id="video-ic-play" x="475" y="206" xmlns="http://www.w3.org/2000/svg"><defs><path id="bxa" d="M0 0h31.992v36.054H0z"/></defs><g fill="none" fill-rule="evenodd"><mask id="bxb" fill="#fff"><use xlink:href="#bxa"/></mask><path fill="#FFF" d="M30.01 14.573L6.02.553C3.352-1.007-.001.916-.001 4.005v28.042c0 3.088 3.353 5.011 6.02 3.454L30.01 21.48c2.643-1.544 2.643-5.362 0-6.907" mask="url(#bxb)"/></g></svg><svg width="24" height="17" viewBox="-1 -1 24 17" id="youtube-btn-ic" x="521" y="132" xmlns="http://www.w3.org/2000/svg"><defs><path id="bya" d="M0 0h21.429v15H0z"/></defs><g fill="none" fill-rule="evenodd"><mask id="byb" fill="#fff"><use xlink:href="#bya"/></mask><path fill="red" d="M20.98 2.342A2.687 2.687 0 0019.087.447C17.416 0 10.714 0 10.714 0s-6.7 0-8.372.447A2.684 2.684 0 00.448 2.342C0 4.013 0 7.5 0 7.5s0 3.487.448 5.157a2.684 2.684 0 001.894 1.895C4.014 15 10.714 15 10.714 15s6.702 0 8.372-.448a2.687 2.687 0 001.895-1.895c.448-1.67.448-5.157.448-5.157s0-3.487-.448-5.158" mask="url(#byb)"/><path fill="#FFF" d="M8.572 10.714L14.139 7.5 8.572 4.285z"/></g></svg></svg>